<?xml version="1.0" encoding="UTF-8"?>
<svg width="200px" height="200px" viewBox="0 0 200 200" version="1.1" xmlns="http://www.w3.org/2000/svg" xmlns:xlink="http://www.w3.org/1999/xlink">
    <title>Group 6</title>
    <g id="Page-1" stroke="none" stroke-width="1" fill="none" fill-rule="evenodd">
        <g id="Group-6">
            <path d="M200,100 C200,155.228 155.228,200 100,200 C44.7715,200 0,155.228 0,100 C0,44.7715 44.7715,0 100,0 C155.228,0 200,44.7715 200,100 Z" id="Path" fill="#FFF6F8" fill-rule="nonzero"></path>
            <polygon id="Path" fill="#FFBFCD" fill-rule="nonzero" points="125 109.259 67 130 67 98.7414 125 78"></polygon>
            <line x1="87" y1="105" x2="113.5" y2="95.5" id="Path" stroke="#F1AABA"></line>
            <polygon id="Path" fill="#FFDCE4" fill-rule="nonzero" points="50 82.5176 66.7206 99 125 78.4824 108.279 62"></polygon>
            <polygon id="Path" fill="#E492A4" fill-rule="nonzero" points="67 130 67 99.4654 58.5 91.2327 50 83 50 113.535"></polygon>
            <polygon id="Path" fill="#DC8094" fill-rule="nonzero" points="60.5 102 66.5 106 66.5 104.5"></polygon>
            <polygon id="Path" fill="#DC8094" fill-rule="nonzero" points="60.5 115 50 104.5 50 106.5"></polygon>
            <ellipse id="Oval" fill="#FFBFCD" fill-rule="nonzero" cx="88" cy="80" rx="10" ry="6"></ellipse>
            <ellipse id="Oval" fill="#FFBFCD" fill-rule="nonzero" cx="106.5" cy="73.5" rx="2.5" ry="1.5"></ellipse>
            <ellipse id="Oval" fill="#FFBFCD" fill-rule="nonzero" cx="69.5" cy="86.5" rx="2.5" ry="1.5"></ellipse>
            <polygon id="Path" fill="#F1AABA" fill-rule="nonzero" points="86 117 67 122.5 67 124"></polygon>
            <polygon id="Path" fill="#F1AABA" fill-rule="nonzero" points="75.5 102 67 104.5 67 106"></polygon>
            <path d="M134.795,122.225 C134.795,126.656 128.814,130.266 121.398,130.266 C113.981,130.266 108,126.656 108,122.225 C108,117.793 113.981,114.183 121.398,114.183 C128.814,114.183 134.795,117.793 134.795,122.225 Z" id="Path" fill="#FFFFFF" fill-rule="nonzero"></path>
            <path d="M121.398,130.266 C114.555,130.266 108.909,127.181 108.096,123.209 C108.048,123.538 108,123.866 108,124.194 C108,128.625 113.981,132.236 121.398,132.236 C128.814,132.236 134.795,128.625 134.795,124.194 C134.795,123.866 134.747,123.538 134.699,123.209 C133.886,127.181 128.24,130.266 121.398,130.266 Z" id="Path" fill="#FFBFCD" fill-rule="nonzero"></path>
            <path d="M132.164,122.192 C132.164,122.454 132.164,122.684 132.116,122.914 C132.068,123.078 131.829,123.209 131.589,123.209 C131.35,123.176 131.159,123.012 131.159,122.848 C131.207,122.651 131.207,122.454 131.207,122.225 C131.207,122.028 131.398,121.896 131.685,121.896 C131.972,121.896 132.164,122.028 132.164,122.192 Z M131.637,120.288 C131.637,120.419 131.541,120.551 131.35,120.583 C131.111,120.649 130.824,120.551 130.728,120.387 C130.632,120.19 130.489,119.993 130.345,119.829 C130.202,119.664 130.297,119.467 130.537,119.402 C130.776,119.303 131.063,119.369 131.159,119.533 C131.302,119.73 131.446,119.96 131.541,120.157 C131.637,120.222 131.637,120.255 131.637,120.288 Z M131.302,124.719 C131.302,124.785 131.302,124.818 131.254,124.883 C131.111,125.08 130.919,125.277 130.776,125.474 C130.632,125.638 130.345,125.671 130.106,125.573 C129.867,125.474 129.819,125.277 129.962,125.113 C130.106,124.949 130.297,124.752 130.393,124.588 C130.537,124.424 130.824,124.358 131.015,124.457 C131.207,124.489 131.302,124.621 131.302,124.719 Z M129.58,118.122 C129.58,118.22 129.532,118.286 129.436,118.351 C129.245,118.483 128.958,118.483 128.766,118.351 C128.575,118.22 128.336,118.056 128.096,117.925 C127.905,117.826 127.857,117.597 128.049,117.465 C128.24,117.334 128.527,117.301 128.718,117.432 C128.958,117.564 129.245,117.728 129.436,117.892 C129.532,117.958 129.58,118.056 129.58,118.122 Z M128.91,126.721 C128.91,126.82 128.862,126.918 128.718,126.984 C128.479,127.115 128.192,127.279 127.905,127.378 C127.666,127.476 127.379,127.444 127.235,127.279 C127.092,127.115 127.139,126.918 127.379,126.82 C127.618,126.689 127.857,126.59 128.096,126.459 C128.288,126.328 128.623,126.36 128.766,126.492 C128.862,126.59 128.91,126.656 128.91,126.721 Z M126.47,116.677 C126.47,116.71 126.47,116.776 126.422,116.809 C126.326,116.973 126.039,117.039 125.8,116.973 C125.513,116.874 125.225,116.809 124.938,116.743 C124.699,116.677 124.556,116.513 124.651,116.316 C124.747,116.152 124.986,116.054 125.273,116.119 C125.608,116.185 125.895,116.284 126.182,116.349 C126.374,116.448 126.47,116.546 126.47,116.677 Z M125.608,128.002 C125.608,128.133 125.465,128.264 125.273,128.297 C124.986,128.363 124.651,128.428 124.316,128.494 C124.077,128.527 123.79,128.428 123.742,128.264 C123.694,128.1 123.838,127.903 124.077,127.87 C124.364,127.805 124.651,127.772 124.938,127.706 C125.178,127.64 125.465,127.739 125.56,127.903 C125.608,127.903 125.608,127.936 125.608,128.002 Z M122.785,116.054 C122.785,116.087 122.785,116.087 122.785,116.054 C122.785,116.251 122.546,116.382 122.259,116.382 C121.972,116.382 121.685,116.349 121.398,116.349 C121.111,116.349 120.919,116.218 120.919,116.021 C120.919,115.824 121.111,115.693 121.398,115.693 C121.733,115.693 122.02,115.693 122.355,115.726 C122.594,115.758 122.785,115.89 122.785,116.054 Z M121.876,128.395 C121.876,128.592 121.685,128.724 121.398,128.724 C121.063,128.724 120.728,128.724 120.441,128.691 C120.201,128.691 119.962,128.527 120.01,128.33 C120.01,128.133 120.249,128.002 120.536,128.034 C120.823,128.034 121.158,128.067 121.445,128.067 C121.685,128.067 121.876,128.231 121.876,128.395 Z M119.005,116.284 C119.005,116.415 118.862,116.579 118.622,116.612 C118.335,116.677 118.048,116.71 117.761,116.776 C117.522,116.842 117.235,116.743 117.139,116.579 C117.043,116.415 117.187,116.218 117.426,116.152 C117.713,116.087 118.048,116.021 118.383,115.955 C118.622,115.923 118.909,116.021 118.957,116.185 C119.005,116.218 119.005,116.251 119.005,116.284 Z M118.144,128.002 C118.144,128.034 118.144,128.067 118.096,128.1 C118,128.264 117.761,128.363 117.474,128.297 C117.187,128.231 116.852,128.133 116.565,128.067 C116.326,128.002 116.23,127.805 116.326,127.64 C116.421,127.476 116.708,127.411 116.948,127.476 C117.235,127.575 117.522,127.64 117.809,127.706 C118.048,127.739 118.144,127.87 118.144,128.002 Z M115.56,117.334 C115.56,117.432 115.464,117.531 115.369,117.597 C115.129,117.728 114.89,117.826 114.651,117.958 C114.46,118.089 114.125,118.056 113.981,117.925 C113.79,117.793 113.838,117.564 114.029,117.465 C114.268,117.334 114.555,117.17 114.842,117.071 C115.082,116.973 115.369,117.006 115.512,117.17 C115.56,117.203 115.56,117.268 115.56,117.334 Z M114.842,126.754 C114.842,126.82 114.795,126.886 114.747,126.951 C114.603,127.082 114.268,127.115 114.077,126.984 C113.838,126.853 113.55,126.689 113.359,126.524 C113.168,126.393 113.168,126.196 113.359,126.065 C113.55,125.934 113.838,125.934 114.029,126.065 C114.22,126.196 114.46,126.36 114.699,126.492 C114.795,126.557 114.842,126.656 114.842,126.754 Z M112.928,119.172 C112.928,119.238 112.881,119.303 112.833,119.336 C112.689,119.5 112.498,119.697 112.402,119.861 C112.306,120.025 111.971,120.091 111.78,119.993 C111.541,119.927 111.445,119.73 111.589,119.566 C111.732,119.369 111.924,119.172 112.067,118.975 C112.211,118.811 112.498,118.778 112.737,118.877 C112.833,118.942 112.928,119.074 112.928,119.172 Z M112.45,124.752 C112.45,124.883 112.354,124.982 112.211,125.047 C111.971,125.146 111.684,125.08 111.589,124.916 C111.445,124.719 111.302,124.489 111.206,124.292 C111.11,124.128 111.254,123.931 111.493,123.866 C111.732,123.8 112.019,123.899 112.115,124.063 C112.211,124.26 112.354,124.457 112.498,124.621 C112.45,124.654 112.45,124.686 112.45,124.752 Z M111.637,121.601 L111.637,121.634 C111.589,121.831 111.589,122.028 111.589,122.225 C111.589,122.422 111.397,122.553 111.11,122.553 C110.823,122.553 110.632,122.422 110.632,122.225 C110.632,121.995 110.632,121.765 110.68,121.568 C110.727,121.404 110.967,121.273 111.206,121.273 C111.445,121.273 111.637,121.437 111.637,121.601 Z" id="Shape" fill="#FFBFCD" fill-rule="nonzero"></path>
            <path d="M121.876,130.266 L121.876,132.236 C122.211,132.236 122.498,132.203 122.833,132.203 L122.833,130.233 C122.498,130.233 122.211,130.266 121.876,130.266 Z" id="Path" fill="#F48BA2" fill-rule="nonzero"></path>
            <path d="M119.484,130.201 L119.484,132.17 C119.819,132.203 120.106,132.203 120.441,132.236 L120.441,130.266 C120.106,130.233 119.819,130.233 119.484,130.201 Z" id="Path" fill="#F48BA2" fill-rule="nonzero"></path>
            <path d="M124.269,130.102 L124.269,132.072 C124.603,132.039 124.891,131.973 125.226,131.908 L125.226,129.938 C124.891,130.004 124.603,130.037 124.269,130.102 Z" id="Path" fill="#F48BA2" fill-rule="nonzero"></path>
            <path d="M126.661,129.643 L126.661,131.612 C126.996,131.514 127.283,131.448 127.618,131.349 L127.618,129.38 C127.283,129.446 126.996,129.544 126.661,129.643 Z" id="Path" fill="#F48BA2" fill-rule="nonzero"></path>
            <path d="M117.091,129.84 L117.091,131.809 C117.426,131.875 117.713,131.94 118.048,131.973 L118.048,130.004 C117.713,129.971 117.426,129.905 117.091,129.84 Z" id="Path" fill="#F48BA2" fill-rule="nonzero"></path>
            <path d="M114.699,129.183 L114.699,131.153 C115.034,131.251 115.321,131.35 115.656,131.448 L115.656,129.479 C115.321,129.413 115.034,129.314 114.699,129.183 Z" id="Path" fill="#F48BA2" fill-rule="nonzero"></path>
            <path d="M111.828,127.87 L111.828,129.84 C112.115,130.036 112.45,130.201 112.785,130.365 L112.785,128.395 C112.45,128.231 112.115,128.034 111.828,127.87 Z" id="Path" fill="#F48BA2" fill-rule="nonzero"></path>
            <path d="M109.436,125.835 L109.436,127.804 C109.723,128.133 110.058,128.461 110.393,128.756 L110.393,126.787 C110.058,126.492 109.723,126.196 109.436,125.835 Z" id="Path" fill="#F48BA2" fill-rule="nonzero"></path>
            <path d="M129.532,128.625 L129.532,130.595 C129.867,130.43 130.202,130.266 130.489,130.102 L130.489,128.133 C130.202,128.297 129.867,128.461 129.532,128.625 Z" id="Path" fill="#F48BA2" fill-rule="nonzero"></path>
            <path d="M131.924,129.183 C132.259,128.921 132.594,128.658 132.881,128.363 L132.881,126.393 C132.594,126.689 132.259,126.951 131.924,127.214 L131.924,129.183 Z" id="Path" fill="#F48BA2" fill-rule="nonzero"></path>
            <path d="M123.876,121.733 L123.876,123.023 L125.226,123.023 L125.226,124.033 L123.876,124.033 L123.876,124.854 L122.691,124.854 L122.691,124.033 L122.066,124.033 L122.066,124.854 L120.88,124.854 L120.88,124.033 L116.721,124.033 L116.721,121.801 C116.721,121.157 116.967,120.643 117.457,120.259 C117.944,119.874 118.592,119.682 119.402,119.682 C120.228,119.682 120.876,119.865 121.347,120.23 C121.814,120.596 122.054,121.105 122.066,121.757 L122.066,123.023 L122.691,123.023 L122.691,121.733 L123.876,121.733 Z M120.88,123.023 L120.88,121.817 C120.88,121.454 120.757,121.176 120.512,120.984 C120.267,120.791 119.901,120.695 119.414,120.695 C118.978,120.695 118.621,120.79 118.345,120.98 C118.068,121.167 117.924,121.426 117.913,121.757 L117.913,123.023 L120.88,123.023 Z" id="Shape" fill="#F48BA2" fill-rule="nonzero"></path>
            <path d="M134.795,120.103 C134.795,124.534 128.814,128.145 121.398,128.145 C113.981,128.145 108,124.534 108,120.103 C108,115.672 113.981,112.061 121.398,112.061 C128.814,112.061 134.795,115.672 134.795,120.103 Z" id="Path" fill="#FFFFFF" fill-rule="nonzero"></path>
            <path d="M121.398,128.145 C114.555,128.145 108.909,125.059 108.096,121.088 C108.048,121.416 108,121.744 108,122.072 C108,126.504 113.981,130.114 121.398,130.114 C128.814,130.114 134.795,126.504 134.795,122.072 C134.795,121.744 134.747,121.416 134.699,121.088 C133.886,125.059 128.24,128.145 121.398,128.145 Z" id="Path" fill="#FFBFCD" fill-rule="nonzero"></path>
            <path d="M132.164,120.07 C132.164,120.333 132.164,120.563 132.116,120.792 C132.068,120.957 131.829,121.088 131.589,121.088 C131.35,121.055 131.159,120.891 131.159,120.727 C131.207,120.53 131.207,120.333 131.207,120.103 C131.207,119.906 131.398,119.775 131.685,119.775 C131.972,119.775 132.164,119.906 132.164,120.07 Z M131.637,118.167 C131.637,118.298 131.541,118.429 131.35,118.462 C131.111,118.528 130.824,118.429 130.728,118.265 C130.632,118.068 130.489,117.871 130.345,117.707 C130.202,117.543 130.297,117.346 130.537,117.28 C130.776,117.182 131.063,117.248 131.159,117.412 C131.302,117.609 131.446,117.838 131.541,118.035 C131.637,118.101 131.637,118.134 131.637,118.167 Z M131.302,122.598 C131.302,122.663 131.302,122.696 131.254,122.762 C131.111,122.959 130.919,123.156 130.776,123.353 C130.632,123.517 130.345,123.55 130.106,123.451 C129.867,123.353 129.819,123.156 129.962,122.992 C130.106,122.827 130.297,122.631 130.393,122.466 C130.537,122.302 130.824,122.237 131.015,122.335 C131.207,122.368 131.302,122.499 131.302,122.598 Z M129.58,116 C129.58,116.099 129.532,116.164 129.436,116.23 C129.245,116.361 128.958,116.361 128.766,116.23 C128.575,116.099 128.336,115.935 128.096,115.803 C127.905,115.705 127.857,115.475 128.049,115.344 C128.24,115.212 128.527,115.18 128.718,115.311 C128.958,115.442 129.245,115.606 129.436,115.77 C129.532,115.836 129.58,115.935 129.58,116 Z M128.91,124.6 C128.91,124.698 128.862,124.797 128.718,124.863 C128.479,124.994 128.192,125.158 127.905,125.256 C127.666,125.355 127.379,125.322 127.235,125.158 C127.092,124.994 127.139,124.797 127.379,124.698 C127.618,124.567 127.857,124.469 128.096,124.337 C128.288,124.206 128.623,124.239 128.766,124.37 C128.862,124.469 128.91,124.534 128.91,124.6 Z M126.47,114.556 C126.47,114.589 126.47,114.654 126.422,114.687 C126.326,114.851 126.039,114.917 125.8,114.851 C125.513,114.753 125.225,114.687 124.938,114.622 C124.699,114.556 124.556,114.392 124.651,114.195 C124.747,114.031 124.986,113.932 125.273,113.998 C125.608,114.064 125.895,114.162 126.182,114.228 C126.374,114.326 126.47,114.425 126.47,114.556 Z M125.608,125.88 C125.608,126.011 125.465,126.143 125.273,126.175 C124.986,126.241 124.651,126.307 124.316,126.372 C124.077,126.405 123.79,126.307 123.742,126.143 C123.694,125.979 123.838,125.782 124.077,125.749 C124.364,125.683 124.651,125.65 124.938,125.585 C125.178,125.519 125.465,125.617 125.56,125.782 C125.608,125.782 125.608,125.814 125.608,125.88 Z M122.785,113.932 C122.785,113.965 122.785,113.965 122.785,113.932 C122.785,114.129 122.546,114.261 122.259,114.261 C121.972,114.261 121.685,114.228 121.398,114.228 C121.111,114.228 120.919,114.096 120.919,113.9 C120.919,113.703 121.111,113.571 121.398,113.571 C121.733,113.571 122.02,113.571 122.355,113.604 C122.594,113.637 122.785,113.768 122.785,113.932 Z M121.876,126.274 C121.876,126.471 121.685,126.602 121.398,126.602 C121.063,126.602 120.728,126.602 120.441,126.569 C120.201,126.569 119.962,126.405 120.01,126.208 C120.01,126.011 120.249,125.88 120.536,125.913 C120.823,125.913 121.158,125.946 121.445,125.946 C121.685,125.946 121.876,126.11 121.876,126.274 Z M119.005,114.162 C119.005,114.293 118.862,114.458 118.622,114.49 C118.335,114.556 118.048,114.589 117.761,114.654 C117.522,114.72 117.235,114.622 117.139,114.458 C117.043,114.293 117.187,114.096 117.426,114.031 C117.713,113.965 118.048,113.9 118.383,113.834 C118.622,113.801 118.909,113.9 118.957,114.064 C119.005,114.096 119.005,114.129 119.005,114.162 Z M118.144,125.88 C118.144,125.913 118.144,125.946 118.096,125.979 C118,126.143 117.761,126.241 117.474,126.175 C117.187,126.11 116.852,126.011 116.565,125.946 C116.326,125.88 116.23,125.683 116.326,125.519 C116.421,125.355 116.708,125.289 116.948,125.355 C117.235,125.453 117.522,125.519 117.809,125.585 C118.048,125.617 118.144,125.749 118.144,125.88 Z M115.56,115.212 C115.56,115.311 115.464,115.409 115.369,115.475 C115.129,115.606 114.89,115.705 114.651,115.836 C114.46,115.967 114.125,115.935 113.981,115.803 C113.79,115.672 113.838,115.442 114.029,115.344 C114.268,115.212 114.555,115.048 114.842,114.95 C115.082,114.851 115.369,114.884 115.512,115.048 C115.56,115.081 115.56,115.147 115.56,115.212 Z M114.842,124.633 C114.842,124.698 114.795,124.764 114.747,124.83 C114.603,124.961 114.268,124.994 114.077,124.863 C113.838,124.731 113.55,124.567 113.359,124.403 C113.168,124.272 113.168,124.075 113.359,123.943 C113.55,123.812 113.838,123.812 114.029,123.943 C114.22,124.075 114.46,124.239 114.699,124.37 C114.795,124.436 114.842,124.534 114.842,124.633 Z M112.928,117.051 C112.928,117.116 112.881,117.182 112.833,117.215 C112.689,117.379 112.498,117.576 112.402,117.74 C112.306,117.904 111.971,117.97 111.78,117.871 C111.541,117.806 111.445,117.609 111.589,117.444 C111.732,117.248 111.924,117.051 112.067,116.854 C112.211,116.69 112.498,116.657 112.737,116.755 C112.833,116.821 112.928,116.952 112.928,117.051 Z M112.45,122.631 C112.45,122.762 112.354,122.86 112.211,122.926 C111.971,123.024 111.684,122.959 111.589,122.795 C111.445,122.598 111.302,122.368 111.206,122.171 C111.11,122.007 111.254,121.81 111.493,121.744 C111.732,121.679 112.019,121.777 112.115,121.941 C112.211,122.138 112.354,122.335 112.498,122.499 C112.45,122.532 112.45,122.565 112.45,122.631 Z M111.637,119.48 L111.637,119.512 C111.589,119.709 111.589,119.906 111.589,120.103 C111.589,120.3 111.397,120.431 111.11,120.431 C110.823,120.431 110.632,120.3 110.632,120.103 C110.632,119.873 110.632,119.644 110.68,119.447 C110.727,119.283 110.967,119.151 111.206,119.151 C111.445,119.151 111.637,119.315 111.637,119.48 Z" id="Shape" fill="#FFBFCD" fill-rule="nonzero"></path>
            <path d="M121.876,128.145 L121.876,130.114 C122.211,130.114 122.498,130.081 122.833,130.081 L122.833,128.112 C122.498,128.112 122.211,128.145 121.876,128.145 Z" id="Path" fill="#F48BA2" fill-rule="nonzero"></path>
            <path d="M119.484,128.079 L119.484,130.049 C119.819,130.081 120.106,130.081 120.441,130.114 L120.441,128.145 C120.106,128.112 119.819,128.112 119.484,128.079 Z" id="Path" fill="#F48BA2" fill-rule="nonzero"></path>
            <path d="M124.269,127.981 L124.269,129.95 C124.603,129.917 124.891,129.852 125.226,129.786 L125.226,127.817 C124.891,127.882 124.603,127.915 124.269,127.981 Z" id="Path" fill="#F48BA2" fill-rule="nonzero"></path>
            <path d="M126.661,127.521 L126.661,129.491 C126.996,129.392 127.283,129.327 127.618,129.228 L127.618,127.259 C127.283,127.324 126.996,127.423 126.661,127.521 Z" id="Path" fill="#F48BA2" fill-rule="nonzero"></path>
            <path d="M117.091,127.718 L117.091,129.688 C117.426,129.753 117.713,129.819 118.048,129.852 L118.048,127.882 C117.713,127.85 117.426,127.784 117.091,127.718 Z" id="Path" fill="#F48BA2" fill-rule="nonzero"></path>
            <path d="M114.699,127.062 L114.699,129.031 C115.034,129.13 115.321,129.228 115.656,129.327 L115.656,127.357 C115.321,127.291 115.034,127.193 114.699,127.062 Z" id="Path" fill="#F48BA2" fill-rule="nonzero"></path>
            <path d="M111.828,125.749 L111.828,127.718 C112.115,127.915 112.45,128.079 112.785,128.243 L112.785,126.274 C112.45,126.11 112.115,125.913 111.828,125.749 Z" id="Path" fill="#F48BA2" fill-rule="nonzero"></path>
            <path d="M109.436,123.714 L109.436,125.683 C109.723,126.011 110.058,126.34 110.393,126.635 L110.393,124.666 C110.058,124.37 109.723,124.075 109.436,123.714 Z" id="Path" fill="#F48BA2" fill-rule="nonzero"></path>
            <path d="M129.532,126.504 L129.532,128.473 C129.867,128.309 130.202,128.145 130.489,127.981 L130.489,126.011 C130.202,126.176 129.867,126.34 129.532,126.504 Z" id="Path" fill="#F48BA2" fill-rule="nonzero"></path>
            <path d="M131.924,127.062 C132.259,126.799 132.594,126.536 132.881,126.241 L132.881,124.272 C132.594,124.567 132.259,124.83 131.924,125.092 L131.924,127.062 Z" id="Path" fill="#F48BA2" fill-rule="nonzero"></path>
            <path d="M123.876,119.612 L123.876,120.902 L125.226,120.902 L125.226,121.912 L123.876,121.912 L123.876,122.733 L122.691,122.733 L122.691,121.912 L122.066,121.912 L122.066,122.733 L120.88,122.733 L120.88,121.912 L116.721,121.912 L116.721,119.68 C116.721,119.036 116.967,118.522 117.457,118.137 C117.944,117.752 118.592,117.56 119.402,117.56 C120.228,117.56 120.876,117.743 121.347,118.109 C121.814,118.475 122.054,118.984 122.066,119.636 L122.066,120.902 L122.691,120.902 L122.691,119.612 L123.876,119.612 Z M120.88,120.902 L120.88,119.696 C120.88,119.332 120.757,119.055 120.512,118.862 C120.267,118.67 119.901,118.574 119.414,118.574 C118.978,118.574 118.621,118.669 118.345,118.858 C118.068,119.045 117.924,119.304 117.913,119.636 L117.913,120.902 L120.88,120.902 Z" id="Shape" fill="#F48BA2" fill-rule="nonzero"></path>
            <path d="M134.795,117.973 C134.795,122.404 128.814,126.015 121.398,126.015 C113.981,126.015 108,122.404 108,117.973 C108,113.542 113.981,109.931 121.398,109.931 C128.814,109.931 134.795,113.542 134.795,117.973 Z" id="Path" fill="#FFFFFF" fill-rule="nonzero"></path>
            <path d="M121.398,126.015 C114.555,126.015 108.909,122.929 108.096,118.958 C108.048,119.286 108,119.614 108,119.942 C108,124.373 113.981,127.984 121.398,127.984 C128.814,127.984 134.795,124.373 134.795,119.942 C134.795,119.614 134.747,119.286 134.699,118.958 C133.886,122.929 128.24,126.015 121.398,126.015 Z" id="Path" fill="#FFBFCD" fill-rule="nonzero"></path>
            <path d="M132.164,117.94 C132.164,118.203 132.164,118.433 132.116,118.662 C132.068,118.826 131.829,118.958 131.589,118.958 C131.35,118.925 131.159,118.761 131.159,118.597 C131.207,118.4 131.207,118.203 131.207,117.973 C131.207,117.776 131.398,117.645 131.685,117.645 C131.972,117.645 132.164,117.776 132.164,117.94 Z M131.637,116.036 C131.637,116.168 131.541,116.299 131.35,116.332 C131.111,116.397 130.824,116.299 130.728,116.135 C130.632,115.938 130.489,115.741 130.345,115.577 C130.202,115.413 130.297,115.216 130.537,115.15 C130.776,115.052 131.063,115.117 131.159,115.282 C131.302,115.478 131.446,115.708 131.541,115.905 C131.637,115.971 131.637,116.004 131.637,116.036 Z M131.302,120.468 C131.302,120.533 131.302,120.566 131.254,120.632 C131.111,120.829 130.919,121.026 130.776,121.223 C130.632,121.387 130.345,121.419 130.106,121.321 C129.867,121.223 129.819,121.026 129.962,120.861 C130.106,120.697 130.297,120.5 130.393,120.336 C130.537,120.172 130.824,120.107 131.015,120.205 C131.207,120.238 131.302,120.369 131.302,120.468 Z M129.58,113.87 C129.58,113.969 129.532,114.034 129.436,114.1 C129.245,114.231 128.958,114.231 128.766,114.1 C128.575,113.969 128.336,113.804 128.096,113.673 C127.905,113.575 127.857,113.345 128.049,113.214 C128.24,113.082 128.527,113.05 128.718,113.181 C128.958,113.312 129.245,113.476 129.436,113.64 C129.532,113.706 129.58,113.804 129.58,113.87 Z M128.91,122.47 C128.91,122.568 128.862,122.667 128.718,122.732 C128.479,122.864 128.192,123.028 127.905,123.126 C127.666,123.225 127.379,123.192 127.235,123.028 C127.092,122.864 127.139,122.667 127.379,122.568 C127.618,122.437 127.857,122.339 128.096,122.207 C128.288,122.076 128.623,122.109 128.766,122.24 C128.862,122.339 128.91,122.404 128.91,122.47 Z M126.47,112.426 C126.47,112.459 126.47,112.524 126.422,112.557 C126.326,112.721 126.039,112.787 125.8,112.721 C125.513,112.623 125.225,112.557 124.938,112.492 C124.699,112.426 124.556,112.262 124.651,112.065 C124.747,111.901 124.986,111.802 125.273,111.868 C125.608,111.934 125.895,112.032 126.182,112.098 C126.374,112.196 126.47,112.295 126.47,112.426 Z M125.608,123.75 C125.608,123.881 125.465,124.013 125.273,124.045 C124.986,124.111 124.651,124.177 124.316,124.242 C124.077,124.275 123.79,124.177 123.742,124.013 C123.694,123.848 123.838,123.651 124.077,123.619 C124.364,123.553 124.651,123.52 124.938,123.455 C125.178,123.389 125.465,123.487 125.56,123.651 C125.608,123.651 125.608,123.684 125.608,123.75 Z M122.785,111.802 C122.785,111.835 122.785,111.835 122.785,111.802 C122.785,111.999 122.546,112.13 122.259,112.13 C121.972,112.13 121.685,112.098 121.398,112.098 C121.111,112.098 120.919,111.966 120.919,111.769 C120.919,111.572 121.111,111.441 121.398,111.441 C121.733,111.441 122.02,111.441 122.355,111.474 C122.594,111.507 122.785,111.638 122.785,111.802 Z M121.876,124.144 C121.876,124.341 121.685,124.472 121.398,124.472 C121.063,124.472 120.728,124.472 120.441,124.439 C120.201,124.439 119.962,124.275 120.01,124.078 C120.01,123.881 120.249,123.75 120.536,123.783 C120.823,123.783 121.158,123.816 121.445,123.816 C121.685,123.816 121.876,123.98 121.876,124.144 Z M119.005,112.032 C119.005,112.163 118.862,112.327 118.622,112.36 C118.335,112.426 118.048,112.459 117.761,112.524 C117.522,112.59 117.235,112.492 117.139,112.327 C117.043,112.163 117.187,111.966 117.426,111.901 C117.713,111.835 118.048,111.769 118.383,111.704 C118.622,111.671 118.909,111.769 118.957,111.934 C119.005,111.966 119.005,111.999 119.005,112.032 Z M118.144,123.75 C118.144,123.783 118.144,123.816 118.096,123.848 C118,124.013 117.761,124.111 117.474,124.045 C117.187,123.98 116.852,123.881 116.565,123.816 C116.326,123.75 116.23,123.553 116.326,123.389 C116.421,123.225 116.708,123.159 116.948,123.225 C117.235,123.323 117.522,123.389 117.809,123.455 C118.048,123.487 118.144,123.619 118.144,123.75 Z M115.56,113.082 C115.56,113.181 115.464,113.279 115.369,113.345 C115.129,113.476 114.89,113.575 114.651,113.706 C114.46,113.837 114.125,113.804 113.981,113.673 C113.79,113.542 113.838,113.312 114.029,113.214 C114.268,113.082 114.555,112.918 114.842,112.82 C115.082,112.721 115.369,112.754 115.512,112.918 C115.56,112.951 115.56,113.017 115.56,113.082 Z M114.842,122.503 C114.842,122.568 114.795,122.634 114.747,122.7 C114.603,122.831 114.268,122.864 114.077,122.732 C113.838,122.601 113.55,122.437 113.359,122.273 C113.168,122.142 113.168,121.945 113.359,121.813 C113.55,121.682 113.838,121.682 114.029,121.813 C114.22,121.945 114.46,122.109 114.699,122.24 C114.795,122.306 114.842,122.404 114.842,122.503 Z M112.928,114.92 C112.928,114.986 112.881,115.052 112.833,115.085 C112.689,115.249 112.498,115.446 112.402,115.61 C112.306,115.774 111.971,115.84 111.78,115.741 C111.541,115.675 111.445,115.478 111.589,115.314 C111.732,115.117 111.924,114.92 112.067,114.724 C112.211,114.559 112.498,114.527 112.737,114.625 C112.833,114.691 112.928,114.822 112.928,114.92 Z M112.45,120.5 C112.45,120.632 112.354,120.73 112.211,120.796 C111.971,120.894 111.684,120.829 111.589,120.665 C111.445,120.468 111.302,120.238 111.206,120.041 C111.11,119.877 111.254,119.68 111.493,119.614 C111.732,119.549 112.019,119.647 112.115,119.811 C112.211,120.008 112.354,120.205 112.498,120.369 C112.45,120.402 112.45,120.435 112.45,120.5 Z M111.637,117.349 L111.637,117.382 C111.589,117.579 111.589,117.776 111.589,117.973 C111.589,118.17 111.397,118.301 111.11,118.301 C110.823,118.301 110.632,118.17 110.632,117.973 C110.632,117.743 110.632,117.513 110.68,117.317 C110.727,117.152 110.967,117.021 111.206,117.021 C111.445,117.021 111.637,117.185 111.637,117.349 Z" id="Shape" fill="#FFBFCD" fill-rule="nonzero"></path>
            <path d="M121.876,126.015 L121.876,127.984 C122.211,127.984 122.498,127.951 122.833,127.951 L122.833,125.982 C122.498,125.982 122.211,126.015 121.876,126.015 Z" id="Path" fill="#F48BA2" fill-rule="nonzero"></path>
            <path d="M119.484,125.949 L119.484,127.918 C119.819,127.951 120.106,127.951 120.441,127.984 L120.441,126.015 C120.106,125.982 119.819,125.982 119.484,125.949 Z" id="Path" fill="#F48BA2" fill-rule="nonzero"></path>
            <path d="M124.269,125.851 L124.269,127.82 C124.603,127.787 124.891,127.722 125.226,127.656 L125.226,125.687 C124.891,125.752 124.603,125.785 124.269,125.851 Z" id="Path" fill="#F48BA2" fill-rule="nonzero"></path>
            <path d="M126.661,125.391 L126.661,127.36 C126.996,127.262 127.283,127.196 127.618,127.098 L127.618,125.128 C127.283,125.194 126.996,125.293 126.661,125.391 Z" id="Path" fill="#F48BA2" fill-rule="nonzero"></path>
            <path d="M117.091,125.588 L117.091,127.557 C117.426,127.623 117.713,127.689 118.048,127.722 L118.048,125.752 C117.713,125.719 117.426,125.654 117.091,125.588 Z" id="Path" fill="#F48BA2" fill-rule="nonzero"></path>
            <path d="M114.699,124.932 L114.699,126.901 C115.034,126.999 115.321,127.098 115.656,127.196 L115.656,125.227 C115.321,125.161 115.034,125.063 114.699,124.932 Z" id="Path" fill="#F48BA2" fill-rule="nonzero"></path>
            <path d="M111.828,123.619 L111.828,125.588 C112.115,125.785 112.45,125.949 112.785,126.113 L112.785,124.144 C112.45,123.98 112.115,123.783 111.828,123.619 Z" id="Path" fill="#F48BA2" fill-rule="nonzero"></path>
            <path d="M109.436,121.584 L109.436,123.553 C109.723,123.881 110.058,124.209 110.393,124.505 L110.393,122.535 C110.058,122.24 109.723,121.945 109.436,121.584 Z" id="Path" fill="#F48BA2" fill-rule="nonzero"></path>
            <path d="M129.532,124.374 L129.532,126.343 C129.867,126.179 130.202,126.015 130.489,125.851 L130.489,123.881 C130.202,124.045 129.867,124.209 129.532,124.374 Z" id="Path" fill="#F48BA2" fill-rule="nonzero"></path>
            <path d="M131.924,124.932 C132.259,124.669 132.594,124.406 132.881,124.111 L132.881,122.142 C132.594,122.437 132.259,122.7 131.924,122.962 L131.924,124.932 Z" id="Path" fill="#F48BA2" fill-rule="nonzero"></path>
            <path d="M123.876,117.482 L123.876,118.772 L125.226,118.772 L125.226,119.781 L123.876,119.781 L123.876,120.603 L122.691,120.603 L122.691,119.781 L122.066,119.781 L122.066,120.603 L120.88,120.603 L120.88,119.781 L116.721,119.781 L116.721,117.55 C116.721,116.906 116.967,116.392 117.457,116.007 C117.944,115.622 118.592,115.43 119.402,115.43 C120.228,115.43 120.876,115.613 121.347,115.979 C121.814,116.345 122.054,116.854 122.066,117.506 L122.066,118.772 L122.691,118.772 L122.691,117.482 L123.876,117.482 Z M120.88,118.772 L120.88,117.566 C120.88,117.202 120.757,116.925 120.512,116.732 C120.267,116.54 119.901,116.444 119.414,116.444 C118.978,116.444 118.621,116.539 118.345,116.728 C118.068,116.915 117.924,117.174 117.913,117.506 L117.913,118.772 L120.88,118.772 Z" id="Shape" fill="#F48BA2" fill-rule="nonzero"></path>
            <path d="M134.795,115.851 C134.795,120.283 128.814,123.893 121.398,123.893 C113.981,123.893 108,120.283 108,115.851 C108,111.42 113.981,107.81 121.398,107.81 C128.814,107.81 134.795,111.42 134.795,115.851 Z" id="Path" fill="#FFFFFF" fill-rule="nonzero"></path>
            <path d="M121.398,123.893 C114.555,123.893 108.909,120.808 108.096,116.836 C108.048,117.164 108,117.493 108,117.821 C108,122.252 113.981,125.863 121.398,125.863 C128.814,125.863 134.795,122.252 134.795,117.821 C134.795,117.493 134.747,117.164 134.699,116.836 C133.886,120.808 128.24,123.893 121.398,123.893 Z" id="Path" fill="#FFBFCD" fill-rule="nonzero"></path>
            <path d="M132.164,115.819 C132.164,116.081 132.164,116.311 132.116,116.541 C132.068,116.705 131.829,116.836 131.589,116.836 C131.35,116.803 131.159,116.639 131.159,116.475 C131.207,116.278 131.207,116.081 131.207,115.851 C131.207,115.655 131.398,115.523 131.685,115.523 C131.972,115.523 132.164,115.655 132.164,115.819 Z M131.637,113.915 C131.637,114.046 131.541,114.177 131.35,114.21 C131.111,114.276 130.824,114.177 130.728,114.013 C130.632,113.816 130.489,113.619 130.345,113.455 C130.202,113.291 130.297,113.094 130.537,113.029 C130.776,112.93 131.063,112.996 131.159,113.16 C131.302,113.357 131.446,113.587 131.541,113.784 C131.637,113.849 131.637,113.882 131.637,113.915 Z M131.302,118.346 C131.302,118.412 131.302,118.444 131.254,118.51 C131.111,118.707 130.919,118.904 130.776,119.101 C130.632,119.265 130.345,119.298 130.106,119.199 C129.867,119.101 129.819,118.904 129.962,118.74 C130.106,118.576 130.297,118.379 130.393,118.215 C130.537,118.051 130.824,117.985 131.015,118.083 C131.207,118.116 131.302,118.248 131.302,118.346 Z M129.58,111.749 C129.58,111.847 129.532,111.913 129.436,111.978 C129.245,112.11 128.958,112.11 128.766,111.978 C128.575,111.847 128.336,111.683 128.096,111.552 C127.905,111.453 127.857,111.223 128.049,111.092 C128.24,110.961 128.527,110.928 128.718,111.059 C128.958,111.191 129.245,111.355 129.436,111.519 C129.532,111.584 129.58,111.683 129.58,111.749 Z M128.91,120.348 C128.91,120.447 128.862,120.545 128.718,120.611 C128.479,120.742 128.192,120.906 127.905,121.005 C127.666,121.103 127.379,121.07 127.235,120.906 C127.092,120.742 127.139,120.545 127.379,120.447 C127.618,120.315 127.857,120.217 128.096,120.086 C128.288,119.954 128.623,119.987 128.766,120.118 C128.862,120.217 128.91,120.283 128.91,120.348 Z M126.47,110.304 C126.47,110.337 126.47,110.403 126.422,110.436 C126.326,110.6 126.039,110.665 125.8,110.6 C125.513,110.501 125.225,110.436 124.938,110.37 C124.699,110.304 124.556,110.14 124.651,109.943 C124.747,109.779 124.986,109.681 125.273,109.746 C125.608,109.812 125.895,109.91 126.182,109.976 C126.374,110.075 126.47,110.173 126.47,110.304 Z M125.608,121.628 C125.608,121.76 125.465,121.891 125.273,121.924 C124.986,121.989 124.651,122.055 124.316,122.121 C124.077,122.154 123.79,122.055 123.742,121.891 C123.694,121.727 123.838,121.53 124.077,121.497 C124.364,121.431 124.651,121.399 124.938,121.333 C125.178,121.267 125.465,121.366 125.56,121.53 C125.608,121.53 125.608,121.563 125.608,121.628 Z M122.785,109.681 C122.785,109.713 122.785,109.713 122.785,109.681 C122.785,109.878 122.546,110.009 122.259,110.009 C121.972,110.009 121.685,109.976 121.398,109.976 C121.111,109.976 120.919,109.845 120.919,109.648 C120.919,109.451 121.111,109.32 121.398,109.32 C121.733,109.32 122.02,109.32 122.355,109.352 C122.594,109.385 122.785,109.517 122.785,109.681 Z M121.876,122.022 C121.876,122.219 121.685,122.35 121.398,122.35 C121.063,122.35 120.728,122.35 120.441,122.318 C120.201,122.318 119.962,122.154 120.01,121.957 C120.01,121.76 120.249,121.628 120.536,121.661 C120.823,121.661 121.158,121.694 121.445,121.694 C121.685,121.694 121.876,121.858 121.876,122.022 Z M119.005,109.91 C119.005,110.042 118.862,110.206 118.622,110.239 C118.335,110.304 118.048,110.337 117.761,110.403 C117.522,110.468 117.235,110.37 117.139,110.206 C117.043,110.042 117.187,109.845 117.426,109.779 C117.713,109.713 118.048,109.648 118.383,109.582 C118.622,109.549 118.909,109.648 118.957,109.812 C119.005,109.845 119.005,109.878 119.005,109.91 Z M118.144,121.628 C118.144,121.661 118.144,121.694 118.096,121.727 C118,121.891 117.761,121.989 117.474,121.924 C117.187,121.858 116.852,121.76 116.565,121.694 C116.326,121.628 116.23,121.431 116.326,121.267 C116.421,121.103 116.708,121.038 116.948,121.103 C117.235,121.202 117.522,121.267 117.809,121.333 C118.048,121.366 118.144,121.497 118.144,121.628 Z M115.56,110.961 C115.56,111.059 115.464,111.158 115.369,111.223 C115.129,111.355 114.89,111.453 114.651,111.584 C114.46,111.716 114.125,111.683 113.981,111.552 C113.79,111.42 113.838,111.191 114.029,111.092 C114.268,110.961 114.555,110.797 114.842,110.698 C115.082,110.6 115.369,110.633 115.512,110.797 C115.56,110.829 115.56,110.895 115.56,110.961 Z M114.842,120.381 C114.842,120.447 114.795,120.512 114.747,120.578 C114.603,120.709 114.268,120.742 114.077,120.611 C113.838,120.48 113.55,120.315 113.359,120.151 C113.168,120.02 113.168,119.823 113.359,119.692 C113.55,119.56 113.838,119.56 114.029,119.692 C114.22,119.823 114.46,119.987 114.699,120.118 C114.795,120.184 114.842,120.283 114.842,120.381 Z M112.928,112.799 C112.928,112.865 112.881,112.93 112.833,112.963 C112.689,113.127 112.498,113.324 112.402,113.488 C112.306,113.652 111.971,113.718 111.78,113.619 C111.541,113.554 111.445,113.357 111.589,113.193 C111.732,112.996 111.924,112.799 112.067,112.602 C112.211,112.438 112.498,112.405 112.737,112.503 C112.833,112.569 112.928,112.7 112.928,112.799 Z M112.45,118.379 C112.45,118.51 112.354,118.609 112.211,118.674 C111.971,118.773 111.684,118.707 111.589,118.543 C111.445,118.346 111.302,118.116 111.206,117.919 C111.11,117.755 111.254,117.558 111.493,117.493 C111.732,117.427 112.019,117.525 112.115,117.69 C112.211,117.887 112.354,118.083 112.498,118.248 C112.45,118.28 112.45,118.313 112.45,118.379 Z M111.637,115.228 L111.637,115.261 C111.589,115.458 111.589,115.655 111.589,115.851 C111.589,116.048 111.397,116.18 111.11,116.18 C110.823,116.18 110.632,116.048 110.632,115.851 C110.632,115.622 110.632,115.392 110.68,115.195 C110.727,115.031 110.967,114.9 111.206,114.9 C111.445,114.9 111.637,115.064 111.637,115.228 Z" id="Shape" fill="#FFBFCD" fill-rule="nonzero"></path>
            <path d="M121.876,123.893 L121.876,125.863 C122.211,125.863 122.498,125.83 122.833,125.83 L122.833,123.86 C122.498,123.86 122.211,123.893 121.876,123.893 Z" id="Path" fill="#F48BA2" fill-rule="nonzero"></path>
            <path d="M119.484,123.827 L119.484,125.797 C119.819,125.83 120.106,125.83 120.441,125.863 L120.441,123.893 C120.106,123.86 119.819,123.86 119.484,123.827 Z" id="Path" fill="#F48BA2" fill-rule="nonzero"></path>
            <path d="M124.269,123.729 L124.269,125.698 C124.603,125.666 124.891,125.6 125.226,125.534 L125.226,123.565 C124.891,123.63 124.603,123.663 124.269,123.729 Z" id="Path" fill="#F48BA2" fill-rule="nonzero"></path>
            <path d="M126.661,123.269 L126.661,125.239 C126.996,125.14 127.283,125.075 127.618,124.976 L127.618,123.007 C127.283,123.073 126.996,123.171 126.661,123.269 Z" id="Path" fill="#F48BA2" fill-rule="nonzero"></path>
            <path d="M117.091,123.466 L117.091,125.436 C117.426,125.502 117.713,125.567 118.048,125.6 L118.048,123.631 C117.713,123.598 117.426,123.532 117.091,123.466 Z" id="Path" fill="#F48BA2" fill-rule="nonzero"></path>
            <path d="M114.699,122.81 L114.699,124.779 C115.034,124.878 115.321,124.976 115.656,125.075 L115.656,123.105 C115.321,123.04 115.034,122.941 114.699,122.81 Z" id="Path" fill="#F48BA2" fill-rule="nonzero"></path>
            <path d="M111.828,121.497 L111.828,123.466 C112.115,123.663 112.45,123.827 112.785,123.992 L112.785,122.022 C112.45,121.858 112.115,121.661 111.828,121.497 Z" id="Path" fill="#F48BA2" fill-rule="nonzero"></path>
            <path d="M109.436,119.462 L109.436,121.431 C109.723,121.76 110.058,122.088 110.393,122.383 L110.393,120.414 C110.058,120.119 109.723,119.823 109.436,119.462 Z" id="Path" fill="#F48BA2" fill-rule="nonzero"></path>
            <path d="M129.532,122.252 L129.532,124.221 C129.867,124.057 130.202,123.893 130.489,123.729 L130.489,121.76 C130.202,121.924 129.867,122.088 129.532,122.252 Z" id="Path" fill="#F48BA2" fill-rule="nonzero"></path>
            <path d="M131.924,122.81 C132.259,122.547 132.594,122.285 132.881,121.989 L132.881,120.02 C132.594,120.315 132.259,120.578 131.924,120.84 L131.924,122.81 Z" id="Path" fill="#F48BA2" fill-rule="nonzero"></path>
            <path d="M123.876,115.36 L123.876,116.65 L125.226,116.65 L125.226,117.66 L123.876,117.66 L123.876,118.481 L122.691,118.481 L122.691,117.66 L122.066,117.66 L122.066,118.481 L120.88,118.481 L120.88,117.66 L116.721,117.66 L116.721,115.428 C116.721,114.784 116.967,114.27 117.457,113.885 C117.944,113.501 118.592,113.308 119.402,113.308 C120.228,113.308 120.876,113.491 121.347,113.857 C121.814,114.223 122.054,114.732 122.066,115.384 L122.066,116.65 L122.691,116.65 L122.691,115.36 L123.876,115.36 Z M120.88,116.65 L120.88,115.444 C120.88,115.081 120.757,114.803 120.512,114.611 C120.267,114.418 119.901,114.322 119.414,114.322 C118.978,114.322 118.621,114.417 118.345,114.607 C118.068,114.794 117.924,115.053 117.913,115.384 L117.913,116.65 L120.88,116.65 Z" id="Shape" fill="#F48BA2" fill-rule="nonzero"></path>
            <path d="M134.795,113.644 C134.795,118.076 128.814,121.686 121.398,121.686 C113.981,121.686 108,118.076 108,113.644 C108,109.213 113.981,105.603 121.398,105.603 C128.814,105.603 134.795,109.213 134.795,113.644 Z" id="Path" fill="#FFFFFF" fill-rule="nonzero"></path>
            <path d="M121.398,121.686 C114.555,121.686 108.909,118.601 108.096,114.629 C108.048,114.957 108,115.286 108,115.614 C108,120.045 113.981,123.656 121.398,123.656 C128.814,123.656 134.795,120.045 134.795,115.614 C134.795,115.286 134.747,114.957 134.699,114.629 C133.886,118.601 128.24,121.686 121.398,121.686 Z" id="Path" fill="#FFBFCD" fill-rule="nonzero"></path>
            <path d="M132.164,113.612 C132.164,113.874 132.164,114.104 132.116,114.334 C132.068,114.498 131.829,114.629 131.589,114.629 C131.35,114.596 131.159,114.432 131.159,114.268 C131.207,114.071 131.207,113.874 131.207,113.644 C131.207,113.447 131.398,113.316 131.685,113.316 C131.972,113.316 132.164,113.447 132.164,113.612 Z M131.637,111.708 C131.637,111.839 131.541,111.97 131.35,112.003 C131.111,112.069 130.824,111.97 130.728,111.806 C130.632,111.609 130.489,111.412 130.345,111.248 C130.202,111.084 130.297,110.887 130.537,110.822 C130.776,110.723 131.063,110.789 131.159,110.953 C131.302,111.15 131.446,111.38 131.541,111.577 C131.637,111.642 131.637,111.675 131.637,111.708 Z M131.302,116.139 C131.302,116.205 131.302,116.237 131.254,116.303 C131.111,116.5 130.919,116.697 130.776,116.894 C130.632,117.058 130.345,117.091 130.106,116.992 C129.867,116.894 129.819,116.697 129.962,116.533 C130.106,116.369 130.297,116.172 130.393,116.008 C130.537,115.844 130.824,115.778 131.015,115.876 C131.207,115.909 131.302,116.041 131.302,116.139 Z M129.58,109.541 C129.58,109.64 129.532,109.706 129.436,109.771 C129.245,109.903 128.958,109.903 128.766,109.771 C128.575,109.64 128.336,109.476 128.096,109.345 C127.905,109.246 127.857,109.016 128.049,108.885 C128.24,108.754 128.527,108.721 128.718,108.852 C128.958,108.984 129.245,109.148 129.436,109.312 C129.532,109.377 129.58,109.476 129.58,109.541 Z M128.91,118.141 C128.91,118.24 128.862,118.338 128.718,118.404 C128.479,118.535 128.192,118.699 127.905,118.798 C127.666,118.896 127.379,118.863 127.235,118.699 C127.092,118.535 127.139,118.338 127.379,118.24 C127.618,118.108 127.857,118.01 128.096,117.879 C128.288,117.747 128.623,117.78 128.766,117.911 C128.862,118.01 128.91,118.076 128.91,118.141 Z M126.47,108.097 C126.47,108.13 126.47,108.196 126.422,108.229 C126.326,108.393 126.039,108.458 125.8,108.393 C125.513,108.294 125.225,108.229 124.938,108.163 C124.699,108.097 124.556,107.933 124.651,107.736 C124.747,107.572 124.986,107.474 125.273,107.539 C125.608,107.605 125.895,107.703 126.182,107.769 C126.374,107.868 126.47,107.966 126.47,108.097 Z M125.608,119.421 C125.608,119.553 125.465,119.684 125.273,119.717 C124.986,119.782 124.651,119.848 124.316,119.914 C124.077,119.947 123.79,119.848 123.742,119.684 C123.694,119.52 123.838,119.323 124.077,119.29 C124.364,119.224 124.651,119.192 124.938,119.126 C125.178,119.06 125.465,119.159 125.56,119.323 C125.608,119.323 125.608,119.356 125.608,119.421 Z M122.785,107.474 C122.785,107.506 122.785,107.506 122.785,107.474 C122.785,107.671 122.546,107.802 122.259,107.802 C121.972,107.802 121.685,107.769 121.398,107.769 C121.111,107.769 120.919,107.638 120.919,107.441 C120.919,107.244 121.111,107.113 121.398,107.113 C121.733,107.113 122.02,107.113 122.355,107.145 C122.594,107.178 122.785,107.31 122.785,107.474 Z M121.876,119.815 C121.876,120.012 121.685,120.143 121.398,120.143 C121.063,120.143 120.728,120.143 120.441,120.111 C120.201,120.111 119.962,119.947 120.01,119.75 C120.01,119.553 120.249,119.421 120.536,119.454 C120.823,119.454 121.158,119.487 121.445,119.487 C121.685,119.487 121.876,119.651 121.876,119.815 Z M119.005,107.703 C119.005,107.835 118.862,107.999 118.622,108.032 C118.335,108.097 118.048,108.13 117.761,108.196 C117.522,108.261 117.235,108.163 117.139,107.999 C117.043,107.835 117.187,107.638 117.426,107.572 C117.713,107.506 118.048,107.441 118.383,107.375 C118.622,107.342 118.909,107.441 118.957,107.605 C119.005,107.638 119.005,107.671 119.005,107.703 Z M118.144,119.421 C118.144,119.454 118.144,119.487 118.096,119.52 C118,119.684 117.761,119.782 117.474,119.717 C117.187,119.651 116.852,119.553 116.565,119.487 C116.326,119.421 116.23,119.224 116.326,119.06 C116.421,118.896 116.708,118.831 116.948,118.896 C117.235,118.995 117.522,119.06 117.809,119.126 C118.048,119.159 118.144,119.29 118.144,119.421 Z M115.56,108.754 C115.56,108.852 115.464,108.951 115.369,109.016 C115.129,109.148 114.89,109.246 114.651,109.377 C114.46,109.509 114.125,109.476 113.981,109.345 C113.79,109.213 113.838,108.984 114.029,108.885 C114.268,108.754 114.555,108.59 114.842,108.491 C115.082,108.393 115.369,108.426 115.512,108.59 C115.56,108.622 115.56,108.688 115.56,108.754 Z M114.842,118.174 C114.842,118.24 114.795,118.305 114.747,118.371 C114.603,118.502 114.268,118.535 114.077,118.404 C113.838,118.273 113.55,118.108 113.359,117.944 C113.168,117.813 113.168,117.616 113.359,117.485 C113.55,117.353 113.838,117.353 114.029,117.485 C114.22,117.616 114.46,117.78 114.699,117.911 C114.795,117.977 114.842,118.076 114.842,118.174 Z M112.928,110.592 C112.928,110.657 112.881,110.723 112.833,110.756 C112.689,110.92 112.498,111.117 112.402,111.281 C112.306,111.445 111.971,111.511 111.78,111.412 C111.541,111.347 111.445,111.15 111.589,110.986 C111.732,110.789 111.924,110.592 112.067,110.395 C112.211,110.231 112.498,110.198 112.737,110.296 C112.833,110.362 112.928,110.493 112.928,110.592 Z M112.45,116.172 C112.45,116.303 112.354,116.402 112.211,116.467 C111.971,116.566 111.684,116.5 111.589,116.336 C111.445,116.139 111.302,115.909 111.206,115.712 C111.11,115.548 111.254,115.351 111.493,115.286 C111.732,115.22 112.019,115.318 112.115,115.483 C112.211,115.679 112.354,115.876 112.498,116.041 C112.45,116.073 112.45,116.106 112.45,116.172 Z M111.637,113.021 L111.637,113.054 C111.589,113.251 111.589,113.447 111.589,113.644 C111.589,113.841 111.397,113.973 111.11,113.973 C110.823,113.973 110.632,113.841 110.632,113.644 C110.632,113.415 110.632,113.185 110.68,112.988 C110.727,112.824 110.967,112.693 111.206,112.693 C111.445,112.693 111.637,112.857 111.637,113.021 Z" id="Shape" fill="#FFBFCD" fill-rule="nonzero"></path>
            <path d="M121.876,121.686 L121.876,123.656 C122.211,123.656 122.498,123.623 122.833,123.623 L122.833,121.653 C122.498,121.653 122.211,121.686 121.876,121.686 Z" id="Path" fill="#F48BA2" fill-rule="nonzero"></path>
            <path d="M119.484,121.62 L119.484,123.59 C119.819,123.623 120.106,123.623 120.441,123.656 L120.441,121.686 C120.106,121.653 119.819,121.653 119.484,121.62 Z" id="Path" fill="#F48BA2" fill-rule="nonzero"></path>
            <path d="M124.269,121.522 L124.269,123.491 C124.603,123.459 124.891,123.393 125.226,123.327 L125.226,121.358 C124.891,121.423 124.603,121.456 124.269,121.522 Z" id="Path" fill="#F48BA2" fill-rule="nonzero"></path>
            <path d="M126.661,121.062 L126.661,123.032 C126.996,122.933 127.283,122.868 127.618,122.769 L127.618,120.8 C127.283,120.866 126.996,120.964 126.661,121.062 Z" id="Path" fill="#F48BA2" fill-rule="nonzero"></path>
            <path d="M117.091,121.259 L117.091,123.229 C117.426,123.294 117.713,123.36 118.048,123.393 L118.048,121.424 C117.713,121.391 117.426,121.325 117.091,121.259 Z" id="Path" fill="#F48BA2" fill-rule="nonzero"></path>
            <path d="M114.699,120.603 L114.699,122.572 C115.034,122.671 115.321,122.769 115.656,122.868 L115.656,120.898 C115.321,120.833 115.034,120.734 114.699,120.603 Z" id="Path" fill="#F48BA2" fill-rule="nonzero"></path>
            <path d="M111.828,119.29 L111.828,121.259 C112.115,121.456 112.45,121.621 112.785,121.785 L112.785,119.815 C112.45,119.651 112.115,119.454 111.828,119.29 Z" id="Path" fill="#F48BA2" fill-rule="nonzero"></path>
            <path d="M109.436,117.255 L109.436,119.224 C109.723,119.553 110.058,119.881 110.393,120.176 L110.393,118.207 C110.058,117.911 109.723,117.616 109.436,117.255 Z" id="Path" fill="#F48BA2" fill-rule="nonzero"></path>
            <path d="M129.532,120.045 L129.532,122.014 C129.867,121.85 130.202,121.686 130.489,121.522 L130.489,119.553 C130.202,119.717 129.867,119.881 129.532,120.045 Z" id="Path" fill="#F48BA2" fill-rule="nonzero"></path>
            <path d="M131.924,120.603 C132.259,120.34 132.594,120.078 132.881,119.782 L132.881,117.813 C132.594,118.108 132.259,118.371 131.924,118.634 L131.924,120.603 Z" id="Path" fill="#F48BA2" fill-rule="nonzero"></path>
            <path d="M123.876,113.153 L123.876,114.443 L125.226,114.443 L125.226,115.453 L123.876,115.453 L123.876,116.274 L122.691,116.274 L122.691,115.453 L122.066,115.453 L122.066,116.274 L120.88,116.274 L120.88,115.453 L116.721,115.453 L116.721,113.221 C116.721,112.577 116.967,112.063 117.457,111.678 C117.944,111.294 118.592,111.101 119.402,111.101 C120.228,111.101 120.876,111.284 121.347,111.65 C121.814,112.016 122.054,112.525 122.066,113.177 L122.066,114.443 L122.691,114.443 L122.691,113.153 L123.876,113.153 Z M120.88,114.443 L120.88,113.237 C120.88,112.874 120.757,112.596 120.512,112.404 C120.267,112.211 119.901,112.115 119.414,112.115 C118.978,112.115 118.621,112.21 118.345,112.4 C118.068,112.587 117.924,112.846 117.913,113.177 L117.913,114.443 L120.88,114.443 Z" id="Shape" fill="#F48BA2" fill-rule="nonzero"></path>
            <path d="M134.795,111.523 C134.795,115.954 128.814,119.565 121.398,119.565 C113.981,119.565 108,115.954 108,111.523 C108,107.092 113.981,103.481 121.398,103.481 C128.814,103.481 134.795,107.092 134.795,111.523 Z" id="Path" fill="#FFDCE4" fill-rule="nonzero"></path>
            <path d="M121.398,119.565 C114.555,119.565 108.909,116.479 108.096,112.508 C108.048,112.836 108,113.164 108,113.492 C108,117.923 113.981,121.534 121.398,121.534 C128.814,121.534 134.795,117.923 134.795,113.492 C134.795,113.164 134.747,112.836 134.699,112.508 C133.886,116.479 128.24,119.565 121.398,119.565 Z" id="Path" fill="#FFBFCD" fill-rule="nonzero"></path>
            <path d="M132.164,111.49 C132.164,111.753 132.164,111.982 132.116,112.212 C132.068,112.376 131.829,112.508 131.589,112.508 C131.35,112.475 131.159,112.311 131.159,112.147 C131.207,111.95 131.207,111.753 131.207,111.523 C131.207,111.326 131.398,111.195 131.685,111.195 C131.972,111.195 132.164,111.326 132.164,111.49 Z M131.637,109.586 C131.637,109.718 131.541,109.849 131.35,109.882 C131.111,109.947 130.824,109.849 130.728,109.685 C130.632,109.488 130.489,109.291 130.345,109.127 C130.202,108.963 130.297,108.766 130.537,108.7 C130.776,108.602 131.063,108.667 131.159,108.831 C131.302,109.028 131.446,109.258 131.541,109.455 C131.637,109.521 131.637,109.553 131.637,109.586 Z M131.302,114.017 C131.302,114.083 131.302,114.116 131.254,114.182 C131.111,114.379 130.919,114.575 130.776,114.772 C130.632,114.937 130.345,114.969 130.106,114.871 C129.867,114.772 129.819,114.575 129.962,114.411 C130.106,114.247 130.297,114.05 130.393,113.886 C130.537,113.722 130.824,113.656 131.015,113.755 C131.207,113.788 131.302,113.919 131.302,114.017 Z M129.58,107.42 C129.58,107.518 129.532,107.584 129.436,107.65 C129.245,107.781 128.958,107.781 128.766,107.65 C128.575,107.518 128.336,107.354 128.096,107.223 C127.905,107.125 127.857,106.895 128.049,106.763 C128.24,106.632 128.527,106.599 128.718,106.731 C128.958,106.862 129.245,107.026 129.436,107.19 C129.532,107.256 129.58,107.354 129.58,107.42 Z M128.91,116.02 C128.91,116.118 128.862,116.217 128.718,116.282 C128.479,116.414 128.192,116.578 127.905,116.676 C127.666,116.775 127.379,116.742 127.235,116.578 C127.092,116.414 127.139,116.217 127.379,116.118 C127.618,115.987 127.857,115.888 128.096,115.757 C128.288,115.626 128.623,115.659 128.766,115.79 C128.862,115.888 128.91,115.954 128.91,116.02 Z M126.47,105.976 C126.47,106.009 126.47,106.074 126.422,106.107 C126.326,106.271 126.039,106.337 125.8,106.271 C125.513,106.173 125.225,106.107 124.938,106.041 C124.699,105.976 124.556,105.812 124.651,105.615 C124.747,105.451 124.986,105.352 125.273,105.418 C125.608,105.483 125.895,105.582 126.182,105.648 C126.374,105.746 126.47,105.844 126.47,105.976 Z M125.608,117.3 C125.608,117.431 125.465,117.562 125.273,117.595 C124.986,117.661 124.651,117.727 124.316,117.792 C124.077,117.825 123.79,117.727 123.742,117.562 C123.694,117.398 123.838,117.201 124.077,117.169 C124.364,117.103 124.651,117.07 124.938,117.004 C125.178,116.939 125.465,117.037 125.56,117.201 C125.608,117.201 125.608,117.234 125.608,117.3 Z M122.785,105.352 C122.785,105.385 122.785,105.385 122.785,105.352 C122.785,105.549 122.546,105.68 122.259,105.68 C121.972,105.68 121.685,105.648 121.398,105.648 C121.111,105.648 120.919,105.516 120.919,105.319 C120.919,105.122 121.111,104.991 121.398,104.991 C121.733,104.991 122.02,104.991 122.355,105.024 C122.594,105.057 122.785,105.188 122.785,105.352 Z M121.876,117.694 C121.876,117.891 121.685,118.022 121.398,118.022 C121.063,118.022 120.728,118.022 120.441,117.989 C120.201,117.989 119.962,117.825 120.01,117.628 C120.01,117.431 120.249,117.3 120.536,117.333 C120.823,117.333 121.158,117.365 121.445,117.365 C121.685,117.365 121.876,117.53 121.876,117.694 Z M119.005,105.582 C119.005,105.713 118.862,105.877 118.622,105.91 C118.335,105.976 118.048,106.009 117.761,106.074 C117.522,106.14 117.235,106.041 117.139,105.877 C117.043,105.713 117.187,105.516 117.426,105.451 C117.713,105.385 118.048,105.319 118.383,105.254 C118.622,105.221 118.909,105.319 118.957,105.483 C119.005,105.516 119.005,105.549 119.005,105.582 Z M118.144,117.3 C118.144,117.333 118.144,117.365 118.096,117.398 C118,117.562 117.761,117.661 117.474,117.595 C117.187,117.53 116.852,117.431 116.565,117.365 C116.326,117.3 116.23,117.103 116.326,116.939 C116.421,116.775 116.708,116.709 116.948,116.775 C117.235,116.873 117.522,116.939 117.809,117.004 C118.048,117.037 118.144,117.169 118.144,117.3 Z M115.56,106.632 C115.56,106.731 115.464,106.829 115.369,106.895 C115.129,107.026 114.89,107.125 114.651,107.256 C114.46,107.387 114.125,107.354 113.981,107.223 C113.79,107.092 113.838,106.862 114.029,106.763 C114.268,106.632 114.555,106.468 114.842,106.37 C115.082,106.271 115.369,106.304 115.512,106.468 C115.56,106.501 115.56,106.567 115.56,106.632 Z M114.842,116.053 C114.842,116.118 114.795,116.184 114.747,116.249 C114.603,116.381 114.268,116.414 114.077,116.282 C113.838,116.151 113.55,115.987 113.359,115.823 C113.168,115.691 113.168,115.495 113.359,115.363 C113.55,115.232 113.838,115.232 114.029,115.363 C114.22,115.495 114.46,115.659 114.699,115.79 C114.795,115.856 114.842,115.954 114.842,116.053 Z M112.928,108.47 C112.928,108.536 112.881,108.602 112.833,108.634 C112.689,108.799 112.498,108.995 112.402,109.16 C112.306,109.324 111.971,109.389 111.78,109.291 C111.541,109.225 111.445,109.028 111.589,108.864 C111.732,108.667 111.924,108.47 112.067,108.273 C112.211,108.109 112.498,108.076 112.737,108.175 C112.833,108.241 112.928,108.372 112.928,108.47 Z M112.45,114.05 C112.45,114.182 112.354,114.28 112.211,114.346 C111.971,114.444 111.684,114.379 111.589,114.214 C111.445,114.017 111.302,113.788 111.206,113.591 C111.11,113.427 111.254,113.23 111.493,113.164 C111.732,113.098 112.019,113.197 112.115,113.361 C112.211,113.558 112.354,113.755 112.498,113.919 C112.45,113.952 112.45,113.985 112.45,114.05 Z M111.637,110.899 L111.637,110.932 C111.589,111.129 111.589,111.326 111.589,111.523 C111.589,111.72 111.397,111.851 111.11,111.851 C110.823,111.851 110.632,111.72 110.632,111.523 C110.632,111.293 110.632,111.063 110.68,110.866 C110.727,110.702 110.967,110.571 111.206,110.571 C111.445,110.571 111.637,110.735 111.637,110.899 Z" id="Shape" fill="#FFBFCD" fill-rule="nonzero"></path>
            <path d="M121.876,119.565 L121.876,121.534 C122.211,121.534 122.498,121.501 122.833,121.501 L122.833,119.532 C122.498,119.532 122.211,119.565 121.876,119.565 Z" id="Path" fill="#F48BA2" fill-rule="nonzero"></path>
            <path d="M119.484,119.499 L119.484,121.468 C119.819,121.501 120.106,121.501 120.441,121.534 L120.441,119.565 C120.106,119.532 119.819,119.532 119.484,119.499 Z" id="Path" fill="#F48BA2" fill-rule="nonzero"></path>
            <path d="M124.269,119.4 L124.269,121.37 C124.603,121.337 124.891,121.271 125.226,121.206 L125.226,119.236 C124.891,119.302 124.603,119.335 124.269,119.4 Z" id="Path" fill="#F48BA2" fill-rule="nonzero"></path>
            <path d="M126.661,118.941 L126.661,120.91 C126.996,120.812 127.283,120.746 127.618,120.648 L127.618,118.678 C127.283,118.744 126.996,118.843 126.661,118.941 Z" id="Path" fill="#F48BA2" fill-rule="nonzero"></path>
            <path d="M117.091,119.138 L117.091,121.107 C117.426,121.173 117.713,121.239 118.048,121.271 L118.048,119.302 C117.713,119.269 117.426,119.204 117.091,119.138 Z" id="Path" fill="#F48BA2" fill-rule="nonzero"></path>
            <path d="M114.699,118.481 L114.699,120.451 C115.034,120.549 115.321,120.648 115.656,120.746 L115.656,118.777 C115.321,118.711 115.034,118.613 114.699,118.481 Z" id="Path" fill="#F48BA2" fill-rule="nonzero"></path>
            <path d="M111.828,117.168 L111.828,119.138 C112.115,119.335 112.45,119.499 112.785,119.663 L112.785,117.694 C112.45,117.529 112.115,117.333 111.828,117.168 Z" id="Path" fill="#F48BA2" fill-rule="nonzero"></path>
            <path d="M109.436,115.133 L109.436,117.103 C109.723,117.431 110.058,117.759 110.393,118.055 L110.393,116.085 C110.058,115.79 109.723,115.495 109.436,115.133 Z" id="Path" fill="#F48BA2" fill-rule="nonzero"></path>
            <path d="M129.532,117.924 L129.532,119.893 C129.867,119.729 130.202,119.565 130.489,119.401 L130.489,117.431 C130.202,117.595 129.867,117.759 129.532,117.924 Z" id="Path" fill="#F48BA2" fill-rule="nonzero"></path>
            <path d="M131.924,118.481 C132.259,118.219 132.594,117.956 132.881,117.661 L132.881,115.691 C132.594,115.987 132.259,116.249 131.924,116.512 L131.924,118.481 Z" id="Path" fill="#F48BA2" fill-rule="nonzero"></path>
            <path d="M123.876,111.031 L123.876,112.321 L125.226,112.321 L125.226,113.331 L123.876,113.331 L123.876,114.153 L122.691,114.153 L122.691,113.331 L122.066,113.331 L122.066,114.153 L120.88,114.153 L120.88,113.331 L116.721,113.331 L116.721,111.099 C116.721,110.456 116.967,109.941 117.457,109.557 C117.944,109.172 118.592,108.98 119.402,108.98 C120.228,108.98 120.876,109.163 121.347,109.529 C121.814,109.895 122.054,110.404 122.066,111.055 L122.066,112.321 L122.691,112.321 L122.691,111.031 L123.876,111.031 Z M120.88,112.321 L120.88,111.115 C120.88,110.752 120.757,110.474 120.512,110.282 C120.267,110.09 119.901,109.994 119.414,109.994 C118.978,109.994 118.621,110.088 118.345,110.278 C118.068,110.465 117.924,110.724 117.913,111.055 L117.913,112.321 L120.88,112.321 Z" id="Shape" fill="#F48BA2" fill-rule="nonzero"></path>
            <path d="M163.02,115.711 C163.02,120.142 157.039,123.752 149.622,123.752 C142.206,123.752 136.225,120.142 136.225,115.711 C136.225,111.28 142.206,107.669 149.622,107.669 C157.039,107.669 163.02,111.28 163.02,115.711 Z" id="Path" fill="#FFFFFF" fill-rule="nonzero"></path>
            <path d="M149.622,123.753 C142.78,123.753 137.134,120.667 136.321,116.695 C136.273,117.024 136.225,117.352 136.225,117.68 C136.225,122.111 142.206,125.722 149.622,125.722 C157.039,125.722 163.02,122.111 163.02,117.68 C163.02,117.352 162.972,117.024 162.924,116.695 C162.111,120.667 156.465,123.753 149.622,123.753 Z" id="Path" fill="#FFBFCD" fill-rule="nonzero"></path>
            <path d="M160.388,115.678 C160.388,115.941 160.388,116.17 160.341,116.4 C160.293,116.564 160.053,116.695 159.814,116.695 C159.575,116.663 159.384,116.499 159.384,116.334 C159.431,116.137 159.431,115.941 159.431,115.711 C159.431,115.514 159.623,115.383 159.91,115.383 C160.197,115.383 160.388,115.514 160.388,115.678 Z M159.862,113.774 C159.862,113.905 159.766,114.037 159.575,114.07 C159.336,114.135 159.049,114.037 158.953,113.873 C158.857,113.676 158.714,113.479 158.57,113.315 C158.427,113.151 158.522,112.954 158.762,112.888 C159.001,112.79 159.288,112.855 159.384,113.019 C159.527,113.216 159.671,113.446 159.766,113.643 C159.862,113.709 159.862,113.741 159.862,113.774 Z M159.527,118.205 C159.527,118.271 159.527,118.304 159.479,118.369 C159.336,118.566 159.144,118.763 159.001,118.96 C158.857,119.124 158.57,119.157 158.331,119.059 C158.092,118.96 158.044,118.763 158.187,118.599 C158.331,118.435 158.522,118.238 158.618,118.074 C158.762,117.91 159.049,117.844 159.24,117.943 C159.431,117.976 159.527,118.107 159.527,118.205 Z M157.805,111.608 C157.805,111.706 157.757,111.772 157.661,111.838 C157.47,111.969 157.183,111.969 156.991,111.838 C156.8,111.706 156.56,111.542 156.321,111.411 C156.13,111.312 156.082,111.083 156.273,110.951 C156.465,110.82 156.752,110.787 156.943,110.919 C157.183,111.05 157.47,111.214 157.661,111.378 C157.757,111.444 157.805,111.542 157.805,111.608 Z M157.135,120.208 C157.135,120.306 157.087,120.405 156.943,120.47 C156.704,120.601 156.417,120.766 156.13,120.864 C155.891,120.963 155.604,120.93 155.46,120.766 C155.316,120.601 155.364,120.405 155.604,120.306 C155.843,120.175 156.082,120.076 156.321,119.945 C156.513,119.814 156.848,119.847 156.991,119.978 C157.087,120.076 157.135,120.142 157.135,120.208 Z M154.694,110.164 C154.694,110.196 154.694,110.262 154.647,110.295 C154.551,110.459 154.264,110.525 154.025,110.459 C153.737,110.361 153.45,110.295 153.163,110.229 C152.924,110.164 152.78,110 152.876,109.803 C152.972,109.638 153.211,109.54 153.498,109.606 C153.833,109.671 154.12,109.77 154.407,109.835 C154.599,109.934 154.694,110.032 154.694,110.164 Z M153.833,121.488 C153.833,121.619 153.69,121.75 153.498,121.783 C153.211,121.849 152.876,121.914 152.541,121.98 C152.302,122.013 152.015,121.914 151.967,121.75 C151.919,121.586 152.063,121.389 152.302,121.356 C152.589,121.291 152.876,121.258 153.163,121.192 C153.402,121.127 153.69,121.225 153.785,121.389 C153.833,121.389 153.833,121.422 153.833,121.488 Z M151.01,109.54 C151.01,109.573 151.01,109.573 151.01,109.54 C151.01,109.737 150.771,109.868 150.484,109.868 C150.197,109.868 149.91,109.835 149.622,109.835 C149.335,109.835 149.144,109.704 149.144,109.507 C149.144,109.31 149.335,109.179 149.622,109.179 C149.957,109.179 150.244,109.179 150.579,109.212 C150.819,109.245 151.01,109.376 151.01,109.54 Z M150.101,121.882 C150.101,122.079 149.91,122.21 149.622,122.21 C149.288,122.21 148.953,122.21 148.665,122.177 C148.426,122.177 148.187,122.013 148.235,121.816 C148.235,121.619 148.474,121.488 148.761,121.521 C149.048,121.521 149.383,121.553 149.67,121.553 C149.91,121.553 150.101,121.717 150.101,121.882 Z M147.23,109.77 C147.23,109.901 147.086,110.065 146.847,110.098 C146.56,110.164 146.273,110.196 145.986,110.262 C145.747,110.328 145.46,110.229 145.364,110.065 C145.268,109.901 145.412,109.704 145.651,109.638 C145.938,109.573 146.273,109.507 146.608,109.442 C146.847,109.409 147.134,109.507 147.182,109.671 C147.23,109.704 147.23,109.737 147.23,109.77 Z M146.369,121.488 C146.369,121.521 146.369,121.553 146.321,121.586 C146.225,121.75 145.986,121.849 145.699,121.783 C145.412,121.717 145.077,121.619 144.79,121.553 C144.551,121.488 144.455,121.291 144.551,121.127 C144.646,120.963 144.933,120.897 145.173,120.963 C145.46,121.061 145.747,121.127 146.034,121.192 C146.273,121.225 146.369,121.356 146.369,121.488 Z M143.785,110.82 C143.785,110.919 143.689,111.017 143.594,111.083 C143.354,111.214 143.115,111.312 142.876,111.444 C142.684,111.575 142.35,111.542 142.206,111.411 C142.015,111.28 142.062,111.05 142.254,110.951 C142.493,110.82 142.78,110.656 143.067,110.558 C143.306,110.459 143.594,110.492 143.737,110.656 C143.785,110.689 143.785,110.754 143.785,110.82 Z M143.067,120.24 C143.067,120.306 143.019,120.372 142.972,120.437 C142.828,120.569 142.493,120.601 142.302,120.47 C142.062,120.339 141.775,120.175 141.584,120.011 C141.393,119.879 141.393,119.682 141.584,119.551 C141.775,119.42 142.062,119.42 142.254,119.551 C142.445,119.682 142.684,119.847 142.924,119.978 C143.019,120.043 143.067,120.142 143.067,120.24 Z M141.153,112.658 C141.153,112.724 141.105,112.79 141.058,112.822 C140.914,112.986 140.723,113.183 140.627,113.347 C140.531,113.512 140.196,113.577 140.005,113.479 C139.766,113.413 139.67,113.216 139.814,113.052 C139.957,112.855 140.148,112.658 140.292,112.461 C140.436,112.297 140.723,112.264 140.962,112.363 C141.058,112.428 141.153,112.56 141.153,112.658 Z M140.675,118.238 C140.675,118.369 140.579,118.468 140.436,118.534 C140.196,118.632 139.909,118.566 139.814,118.402 C139.67,118.205 139.526,117.976 139.431,117.779 C139.335,117.615 139.479,117.418 139.718,117.352 C139.957,117.286 140.244,117.385 140.34,117.549 C140.436,117.746 140.579,117.943 140.723,118.107 C140.675,118.14 140.675,118.173 140.675,118.238 Z M139.861,115.087 L139.861,115.12 C139.814,115.317 139.814,115.514 139.814,115.711 C139.814,115.908 139.622,116.039 139.335,116.039 C139.048,116.039 138.857,115.908 138.857,115.711 C138.857,115.481 138.857,115.251 138.904,115.054 C138.952,114.89 139.192,114.759 139.431,114.759 C139.67,114.759 139.861,114.923 139.861,115.087 Z" id="Shape" fill="#FFBFCD" fill-rule="nonzero"></path>
            <path d="M150.101,123.752 L150.101,125.722 C150.436,125.722 150.723,125.689 151.058,125.689 L151.058,123.72 C150.723,123.72 150.436,123.752 150.101,123.752 Z" id="Path" fill="#F48BA2" fill-rule="nonzero"></path>
            <path d="M147.708,123.687 L147.708,125.656 C148.043,125.689 148.331,125.689 148.665,125.722 L148.665,123.752 C148.331,123.72 148.043,123.72 147.708,123.687 Z" id="Path" fill="#F48BA2" fill-rule="nonzero"></path>
            <path d="M152.493,123.588 L152.493,125.558 C152.828,125.525 153.115,125.459 153.45,125.394 L153.45,123.424 C153.115,123.49 152.828,123.523 152.493,123.588 Z" id="Path" fill="#F48BA2" fill-rule="nonzero"></path>
            <path d="M154.886,123.129 L154.886,125.098 C155.221,125 155.508,124.934 155.843,124.836 L155.843,122.866 C155.508,122.932 155.221,123.03 154.886,123.129 Z" id="Path" fill="#F48BA2" fill-rule="nonzero"></path>
            <path d="M145.316,123.326 L145.316,125.295 C145.651,125.361 145.938,125.426 146.273,125.459 L146.273,123.49 C145.938,123.457 145.651,123.391 145.316,123.326 Z" id="Path" fill="#F48BA2" fill-rule="nonzero"></path>
            <path d="M142.924,122.669 L142.924,124.639 C143.259,124.737 143.546,124.836 143.881,124.934 L143.881,122.965 C143.546,122.899 143.259,122.801 142.924,122.669 Z" id="Path" fill="#F48BA2" fill-rule="nonzero"></path>
            <path d="M140.053,121.356 L140.053,123.326 C140.34,123.523 140.675,123.687 141.01,123.851 L141.01,121.881 C140.675,121.717 140.34,121.52 140.053,121.356 Z" id="Path" fill="#F48BA2" fill-rule="nonzero"></path>
            <path d="M137.66,119.321 L137.66,121.291 C137.947,121.619 138.282,121.947 138.617,122.243 L138.617,120.273 C138.282,119.978 137.947,119.682 137.66,119.321 Z" id="Path" fill="#F48BA2" fill-rule="nonzero"></path>
            <path d="M157.757,122.111 L157.757,124.081 C158.092,123.917 158.427,123.752 158.714,123.588 L158.714,121.619 C158.427,121.783 158.092,121.947 157.757,122.111 Z" id="Path" fill="#F48BA2" fill-rule="nonzero"></path>
            <path d="M160.149,122.669 C160.484,122.407 160.819,122.144 161.106,121.849 L161.106,119.879 C160.819,120.175 160.484,120.437 160.149,120.7 L160.149,122.669 Z" id="Path" fill="#F48BA2" fill-rule="nonzero"></path>
            <path d="M152.101,115.219 L152.101,116.509 L153.45,116.509 L153.45,117.519 L152.101,117.519 L152.101,118.34 L150.915,118.34 L150.915,117.519 L150.29,117.519 L150.29,118.34 L149.105,118.34 L149.105,117.519 L144.946,117.519 L144.946,115.287 C144.946,114.644 145.191,114.129 145.682,113.745 C146.169,113.36 146.817,113.168 147.627,113.168 C148.453,113.168 149.101,113.351 149.572,113.717 C150.039,114.083 150.279,114.591 150.29,115.243 L150.29,116.509 L150.915,116.509 L150.915,115.219 L152.101,115.219 Z M149.105,116.509 L149.105,115.303 C149.105,114.94 148.982,114.662 148.737,114.47 C148.491,114.278 148.125,114.181 147.639,114.181 C147.203,114.181 146.846,114.276 146.57,114.466 C146.293,114.653 146.149,114.912 146.138,115.243 L146.138,116.509 L149.105,116.509 Z" id="Shape" fill="#F48BA2" fill-rule="nonzero"></path>
            <path d="M163.02,113.589 C163.02,118.02 157.039,121.631 149.622,121.631 C142.206,121.631 136.225,118.02 136.225,113.589 C136.225,109.158 142.206,105.547 149.622,105.547 C157.039,105.547 163.02,109.158 163.02,113.589 Z" id="Path" fill="#FFFFFF" fill-rule="nonzero"></path>
            <path d="M149.622,121.631 C142.78,121.631 137.134,118.546 136.321,114.574 C136.273,114.902 136.225,115.23 136.225,115.559 C136.225,119.99 142.206,123.6 149.622,123.6 C157.039,123.6 163.02,119.99 163.02,115.559 C163.02,115.23 162.972,114.902 162.924,114.574 C162.111,118.546 156.465,121.631 149.622,121.631 Z" id="Path" fill="#FFBFCD" fill-rule="nonzero"></path>
            <path d="M160.388,113.556 C160.388,113.819 160.388,114.049 160.341,114.279 C160.293,114.443 160.053,114.574 159.814,114.574 C159.575,114.541 159.384,114.377 159.384,114.213 C159.431,114.016 159.431,113.819 159.431,113.589 C159.431,113.392 159.623,113.261 159.91,113.261 C160.197,113.261 160.388,113.392 160.388,113.556 Z M159.862,111.653 C159.862,111.784 159.766,111.915 159.575,111.948 C159.336,112.014 159.049,111.915 158.953,111.751 C158.857,111.554 158.714,111.357 158.57,111.193 C158.427,111.029 158.522,110.832 158.762,110.766 C159.001,110.668 159.288,110.734 159.384,110.898 C159.527,111.095 159.671,111.324 159.766,111.521 C159.862,111.587 159.862,111.62 159.862,111.653 Z M159.527,116.084 C159.527,116.149 159.527,116.182 159.479,116.248 C159.336,116.445 159.144,116.642 159.001,116.839 C158.857,117.003 158.57,117.036 158.331,116.937 C158.092,116.839 158.044,116.642 158.187,116.478 C158.331,116.314 158.522,116.117 158.618,115.953 C158.762,115.788 159.049,115.723 159.24,115.821 C159.431,115.854 159.527,115.985 159.527,116.084 Z M157.805,109.486 C157.805,109.585 157.757,109.65 157.661,109.716 C157.47,109.847 157.183,109.847 156.991,109.716 C156.8,109.585 156.56,109.421 156.321,109.289 C156.13,109.191 156.082,108.961 156.273,108.83 C156.465,108.699 156.752,108.666 156.943,108.797 C157.183,108.928 157.47,109.092 157.661,109.257 C157.757,109.322 157.805,109.421 157.805,109.486 Z M157.135,118.086 C157.135,118.185 157.087,118.283 156.943,118.349 C156.704,118.48 156.417,118.644 156.13,118.743 C155.891,118.841 155.604,118.808 155.46,118.644 C155.316,118.48 155.364,118.283 155.604,118.185 C155.843,118.053 156.082,117.955 156.321,117.823 C156.513,117.692 156.848,117.725 156.991,117.856 C157.087,117.955 157.135,118.02 157.135,118.086 Z M154.694,108.042 C154.694,108.075 154.694,108.141 154.647,108.173 C154.551,108.338 154.264,108.403 154.025,108.338 C153.737,108.239 153.45,108.173 153.163,108.108 C152.924,108.042 152.78,107.878 152.876,107.681 C152.972,107.517 153.211,107.418 153.498,107.484 C153.833,107.55 154.12,107.648 154.407,107.714 C154.599,107.812 154.694,107.911 154.694,108.042 Z M153.833,119.366 C153.833,119.497 153.69,119.629 153.498,119.662 C153.211,119.727 152.876,119.793 152.541,119.859 C152.302,119.891 152.015,119.793 151.967,119.629 C151.919,119.465 152.063,119.268 152.302,119.235 C152.589,119.169 152.876,119.136 153.163,119.071 C153.402,119.005 153.69,119.104 153.785,119.268 C153.833,119.268 153.833,119.301 153.833,119.366 Z M151.01,107.418 C151.01,107.451 151.01,107.451 151.01,107.418 C151.01,107.615 150.771,107.747 150.484,107.747 C150.197,107.747 149.91,107.714 149.622,107.714 C149.335,107.714 149.144,107.583 149.144,107.386 C149.144,107.189 149.335,107.057 149.622,107.057 C149.957,107.057 150.244,107.057 150.579,107.09 C150.819,107.123 151.01,107.254 151.01,107.418 Z M150.101,119.76 C150.101,119.957 149.91,120.088 149.622,120.088 C149.288,120.088 148.953,120.088 148.665,120.055 C148.426,120.055 148.187,119.891 148.235,119.694 C148.235,119.497 148.474,119.366 148.761,119.399 C149.048,119.399 149.383,119.432 149.67,119.432 C149.91,119.432 150.101,119.596 150.101,119.76 Z M147.23,107.648 C147.23,107.78 147.086,107.944 146.847,107.976 C146.56,108.042 146.273,108.075 145.986,108.141 C145.747,108.206 145.46,108.108 145.364,107.944 C145.268,107.78 145.412,107.583 145.651,107.517 C145.938,107.451 146.273,107.386 146.608,107.32 C146.847,107.287 147.134,107.386 147.182,107.55 C147.23,107.583 147.23,107.615 147.23,107.648 Z M146.369,119.366 C146.369,119.399 146.369,119.432 146.321,119.465 C146.225,119.629 145.986,119.727 145.699,119.662 C145.412,119.596 145.077,119.497 144.79,119.432 C144.551,119.366 144.455,119.169 144.551,119.005 C144.646,118.841 144.933,118.775 145.173,118.841 C145.46,118.939 145.747,119.005 146.034,119.071 C146.273,119.104 146.369,119.235 146.369,119.366 Z M143.785,108.699 C143.785,108.797 143.689,108.896 143.594,108.961 C143.354,109.092 143.115,109.191 142.876,109.322 C142.684,109.454 142.35,109.421 142.206,109.289 C142.015,109.158 142.062,108.928 142.254,108.83 C142.493,108.699 142.78,108.534 143.067,108.436 C143.306,108.338 143.594,108.37 143.737,108.534 C143.785,108.567 143.785,108.633 143.785,108.699 Z M143.067,118.119 C143.067,118.185 143.019,118.25 142.972,118.316 C142.828,118.447 142.493,118.48 142.302,118.349 C142.062,118.217 141.775,118.053 141.584,117.889 C141.393,117.758 141.393,117.561 141.584,117.43 C141.775,117.298 142.062,117.298 142.254,117.43 C142.445,117.561 142.684,117.725 142.924,117.856 C143.019,117.922 143.067,118.02 143.067,118.119 Z M141.153,110.537 C141.153,110.602 141.105,110.668 141.058,110.701 C140.914,110.865 140.723,111.062 140.627,111.226 C140.531,111.39 140.196,111.456 140.005,111.357 C139.766,111.292 139.67,111.095 139.814,110.931 C139.957,110.734 140.148,110.537 140.292,110.34 C140.436,110.176 140.723,110.143 140.962,110.241 C141.058,110.307 141.153,110.438 141.153,110.537 Z M140.675,116.117 C140.675,116.248 140.579,116.346 140.436,116.412 C140.196,116.511 139.909,116.445 139.814,116.281 C139.67,116.084 139.526,115.854 139.431,115.657 C139.335,115.493 139.479,115.296 139.718,115.23 C139.957,115.165 140.244,115.263 140.34,115.427 C140.436,115.624 140.579,115.821 140.723,115.985 C140.675,116.018 140.675,116.051 140.675,116.117 Z M139.861,112.966 L139.861,112.998 C139.814,113.195 139.814,113.392 139.814,113.589 C139.814,113.786 139.622,113.918 139.335,113.918 C139.048,113.918 138.857,113.786 138.857,113.589 C138.857,113.36 138.857,113.13 138.904,112.933 C138.952,112.769 139.192,112.637 139.431,112.637 C139.67,112.637 139.861,112.802 139.861,112.966 Z" id="Shape" fill="#FFBFCD" fill-rule="nonzero"></path>
            <path d="M150.101,121.631 L150.101,123.6 C150.436,123.6 150.723,123.568 151.058,123.568 L151.058,121.598 C150.723,121.598 150.436,121.631 150.101,121.631 Z" id="Path" fill="#F48BA2" fill-rule="nonzero"></path>
            <path d="M147.708,121.565 L147.708,123.535 C148.043,123.568 148.331,123.568 148.665,123.6 L148.665,121.631 C148.331,121.598 148.043,121.598 147.708,121.565 Z" id="Path" fill="#F48BA2" fill-rule="nonzero"></path>
            <path d="M152.493,121.467 L152.493,123.436 C152.828,123.403 153.115,123.338 153.45,123.272 L153.45,121.303 C153.115,121.368 152.828,121.401 152.493,121.467 Z" id="Path" fill="#F48BA2" fill-rule="nonzero"></path>
            <path d="M154.886,121.007 L154.886,122.977 C155.221,122.878 155.508,122.813 155.843,122.714 L155.843,120.745 C155.508,120.81 155.221,120.909 154.886,121.007 Z" id="Path" fill="#F48BA2" fill-rule="nonzero"></path>
            <path d="M145.316,121.204 L145.316,123.174 C145.651,123.239 145.938,123.305 146.273,123.338 L146.273,121.369 C145.938,121.336 145.651,121.27 145.316,121.204 Z" id="Path" fill="#F48BA2" fill-rule="nonzero"></path>
            <path d="M142.924,120.548 L142.924,122.517 C143.259,122.616 143.546,122.714 143.881,122.813 L143.881,120.843 C143.546,120.778 143.259,120.679 142.924,120.548 Z" id="Path" fill="#F48BA2" fill-rule="nonzero"></path>
            <path d="M140.053,119.235 L140.053,121.204 C140.34,121.401 140.675,121.565 141.01,121.729 L141.01,119.76 C140.675,119.596 140.34,119.399 140.053,119.235 Z" id="Path" fill="#F48BA2" fill-rule="nonzero"></path>
            <path d="M137.66,117.2 L137.66,119.169 C137.947,119.497 138.282,119.826 138.617,120.121 L138.617,118.152 C138.282,117.856 137.947,117.561 137.66,117.2 Z" id="Path" fill="#F48BA2" fill-rule="nonzero"></path>
            <path d="M157.757,119.99 L157.757,121.959 C158.092,121.795 158.427,121.631 158.714,121.467 L158.714,119.498 C158.427,119.662 158.092,119.826 157.757,119.99 Z" id="Path" fill="#F48BA2" fill-rule="nonzero"></path>
            <path d="M160.149,120.548 C160.484,120.285 160.819,120.023 161.106,119.727 L161.106,117.758 C160.819,118.053 160.484,118.316 160.149,118.578 L160.149,120.548 Z" id="Path" fill="#F48BA2" fill-rule="nonzero"></path>
            <path d="M152.101,113.098 L152.101,114.388 L153.45,114.388 L153.45,115.398 L152.101,115.398 L152.101,116.219 L150.915,116.219 L150.915,115.398 L150.29,115.398 L150.29,116.219 L149.105,116.219 L149.105,115.398 L144.946,115.398 L144.946,113.166 C144.946,112.522 145.191,112.008 145.682,111.623 C146.169,111.239 146.817,111.046 147.627,111.046 C148.453,111.046 149.101,111.229 149.572,111.595 C150.039,111.961 150.279,112.47 150.29,113.122 L150.29,114.388 L150.915,114.388 L150.915,113.098 L152.101,113.098 Z M149.105,114.388 L149.105,113.182 C149.105,112.819 148.982,112.541 148.737,112.348 C148.491,112.156 148.125,112.06 147.639,112.06 C147.203,112.06 146.846,112.155 146.57,112.344 C146.293,112.531 146.149,112.791 146.138,113.122 L146.138,114.388 L149.105,114.388 Z" id="Shape" fill="#F48BA2" fill-rule="nonzero"></path>
            <path d="M163.02,111.459 C163.02,115.89 157.039,119.501 149.622,119.501 C142.206,119.501 136.225,115.89 136.225,111.459 C136.225,107.028 142.206,103.417 149.622,103.417 C157.039,103.417 163.02,107.028 163.02,111.459 Z" id="Path" fill="#FFFFFF" fill-rule="nonzero"></path>
            <path d="M149.622,119.501 C142.78,119.501 137.134,116.416 136.321,112.444 C136.273,112.772 136.225,113.1 136.225,113.429 C136.225,117.86 142.206,121.47 149.622,121.47 C157.039,121.47 163.02,117.86 163.02,113.429 C163.02,113.1 162.972,112.772 162.924,112.444 C162.111,116.416 156.465,119.501 149.622,119.501 Z" id="Path" fill="#FFBFCD" fill-rule="nonzero"></path>
            <path d="M160.388,111.426 C160.388,111.689 160.388,111.919 160.341,112.149 C160.293,112.313 160.053,112.444 159.814,112.444 C159.575,112.411 159.384,112.247 159.384,112.083 C159.431,111.886 159.431,111.689 159.431,111.459 C159.431,111.262 159.623,111.131 159.91,111.131 C160.197,111.131 160.388,111.262 160.388,111.426 Z M159.862,109.523 C159.862,109.654 159.766,109.785 159.575,109.818 C159.336,109.884 159.049,109.785 158.953,109.621 C158.857,109.424 158.714,109.227 158.57,109.063 C158.427,108.899 158.522,108.702 158.762,108.636 C159.001,108.538 159.288,108.604 159.384,108.768 C159.527,108.965 159.671,109.194 159.766,109.391 C159.862,109.457 159.862,109.49 159.862,109.523 Z M159.527,113.954 C159.527,114.019 159.527,114.052 159.479,114.118 C159.336,114.315 159.144,114.512 159.001,114.709 C158.857,114.873 158.57,114.906 158.331,114.807 C158.092,114.709 158.044,114.512 158.187,114.348 C158.331,114.184 158.522,113.987 158.618,113.823 C158.762,113.658 159.049,113.593 159.24,113.691 C159.431,113.724 159.527,113.855 159.527,113.954 Z M157.805,107.356 C157.805,107.455 157.757,107.52 157.661,107.586 C157.47,107.717 157.183,107.717 156.991,107.586 C156.8,107.455 156.56,107.291 156.321,107.159 C156.13,107.061 156.082,106.831 156.273,106.7 C156.465,106.569 156.752,106.536 156.943,106.667 C157.183,106.798 157.47,106.962 157.661,107.127 C157.757,107.192 157.805,107.291 157.805,107.356 Z M157.135,115.956 C157.135,116.055 157.087,116.153 156.943,116.219 C156.704,116.35 156.417,116.514 156.13,116.613 C155.891,116.711 155.604,116.678 155.46,116.514 C155.316,116.35 155.364,116.153 155.604,116.055 C155.843,115.923 156.082,115.825 156.321,115.693 C156.513,115.562 156.848,115.595 156.991,115.726 C157.087,115.825 157.135,115.89 157.135,115.956 Z M154.694,105.912 C154.694,105.945 154.694,106.011 154.647,106.043 C154.551,106.208 154.264,106.273 154.025,106.208 C153.737,106.109 153.45,106.043 153.163,105.978 C152.924,105.912 152.78,105.748 152.876,105.551 C152.972,105.387 153.211,105.288 153.498,105.354 C153.833,105.42 154.12,105.518 154.407,105.584 C154.599,105.682 154.694,105.781 154.694,105.912 Z M153.833,117.236 C153.833,117.367 153.69,117.499 153.498,117.532 C153.211,117.597 152.876,117.663 152.541,117.729 C152.302,117.761 152.015,117.663 151.967,117.499 C151.919,117.335 152.063,117.138 152.302,117.105 C152.589,117.039 152.876,117.006 153.163,116.941 C153.402,116.875 153.69,116.974 153.785,117.138 C153.833,117.138 153.833,117.171 153.833,117.236 Z M151.01,105.288 C151.01,105.321 151.01,105.321 151.01,105.288 C151.01,105.485 150.771,105.617 150.484,105.617 C150.197,105.617 149.91,105.584 149.622,105.584 C149.335,105.584 149.144,105.453 149.144,105.256 C149.144,105.059 149.335,104.927 149.622,104.927 C149.957,104.927 150.244,104.927 150.579,104.96 C150.819,104.993 151.01,105.124 151.01,105.288 Z M150.101,117.63 C150.101,117.827 149.91,117.958 149.622,117.958 C149.288,117.958 148.953,117.958 148.665,117.925 C148.426,117.925 148.187,117.761 148.235,117.564 C148.235,117.367 148.474,117.236 148.761,117.269 C149.048,117.269 149.383,117.302 149.67,117.302 C149.91,117.302 150.101,117.466 150.101,117.63 Z M147.23,105.518 C147.23,105.65 147.086,105.814 146.847,105.846 C146.56,105.912 146.273,105.945 145.986,106.011 C145.747,106.076 145.46,105.978 145.364,105.814 C145.268,105.65 145.412,105.453 145.651,105.387 C145.938,105.321 146.273,105.256 146.608,105.19 C146.847,105.157 147.134,105.256 147.182,105.42 C147.23,105.453 147.23,105.485 147.23,105.518 Z M146.369,117.236 C146.369,117.269 146.369,117.302 146.321,117.335 C146.225,117.499 145.986,117.597 145.699,117.532 C145.412,117.466 145.077,117.367 144.79,117.302 C144.551,117.236 144.455,117.039 144.551,116.875 C144.646,116.711 144.933,116.645 145.173,116.711 C145.46,116.809 145.747,116.875 146.034,116.941 C146.273,116.974 146.369,117.105 146.369,117.236 Z M143.785,106.569 C143.785,106.667 143.689,106.766 143.594,106.831 C143.354,106.962 143.115,107.061 142.876,107.192 C142.684,107.324 142.35,107.291 142.206,107.159 C142.015,107.028 142.062,106.798 142.254,106.7 C142.493,106.569 142.78,106.404 143.067,106.306 C143.306,106.208 143.594,106.24 143.737,106.404 C143.785,106.437 143.785,106.503 143.785,106.569 Z M143.067,115.989 C143.067,116.055 143.019,116.12 142.972,116.186 C142.828,116.317 142.493,116.35 142.302,116.219 C142.062,116.087 141.775,115.923 141.584,115.759 C141.393,115.628 141.393,115.431 141.584,115.3 C141.775,115.168 142.062,115.168 142.254,115.3 C142.445,115.431 142.684,115.595 142.924,115.726 C143.019,115.792 143.067,115.89 143.067,115.989 Z M141.153,108.407 C141.153,108.472 141.105,108.538 141.058,108.571 C140.914,108.735 140.723,108.932 140.627,109.096 C140.531,109.26 140.196,109.326 140.005,109.227 C139.766,109.162 139.67,108.965 139.814,108.801 C139.957,108.604 140.148,108.407 140.292,108.21 C140.436,108.046 140.723,108.013 140.962,108.111 C141.058,108.177 141.153,108.308 141.153,108.407 Z M140.675,113.987 C140.675,114.118 140.579,114.216 140.436,114.282 C140.196,114.381 139.909,114.315 139.814,114.151 C139.67,113.954 139.526,113.724 139.431,113.527 C139.335,113.363 139.479,113.166 139.718,113.1 C139.957,113.035 140.244,113.133 140.34,113.297 C140.436,113.494 140.579,113.691 140.723,113.855 C140.675,113.888 140.675,113.921 140.675,113.987 Z M139.861,110.836 L139.861,110.868 C139.814,111.065 139.814,111.262 139.814,111.459 C139.814,111.656 139.622,111.787 139.335,111.787 C139.048,111.787 138.857,111.656 138.857,111.459 C138.857,111.229 138.857,111 138.904,110.803 C138.952,110.639 139.192,110.507 139.431,110.507 C139.67,110.507 139.861,110.671 139.861,110.836 Z" id="Shape" fill="#FFBFCD" fill-rule="nonzero"></path>
            <path d="M150.101,119.501 L150.101,121.47 C150.436,121.47 150.723,121.438 151.058,121.438 L151.058,119.468 C150.723,119.468 150.436,119.501 150.101,119.501 Z" id="Path" fill="#F48BA2" fill-rule="nonzero"></path>
            <path d="M147.708,119.435 L147.708,121.405 C148.043,121.438 148.331,121.438 148.665,121.47 L148.665,119.501 C148.331,119.468 148.043,119.468 147.708,119.435 Z" id="Path" fill="#F48BA2" fill-rule="nonzero"></path>
            <path d="M152.493,119.337 L152.493,121.306 C152.828,121.274 153.115,121.208 153.45,121.142 L153.45,119.173 C153.115,119.239 152.828,119.271 152.493,119.337 Z" id="Path" fill="#F48BA2" fill-rule="nonzero"></path>
            <path d="M154.886,118.877 L154.886,120.847 C155.221,120.748 155.508,120.683 155.843,120.584 L155.843,118.615 C155.508,118.68 155.221,118.779 154.886,118.877 Z" id="Path" fill="#F48BA2" fill-rule="nonzero"></path>
            <path d="M145.316,119.074 L145.316,121.044 C145.651,121.109 145.938,121.175 146.273,121.208 L146.273,119.238 C145.938,119.206 145.651,119.14 145.316,119.074 Z" id="Path" fill="#F48BA2" fill-rule="nonzero"></path>
            <path d="M142.924,118.418 L142.924,120.387 C143.259,120.486 143.546,120.584 143.881,120.683 L143.881,118.713 C143.546,118.648 143.259,118.549 142.924,118.418 Z" id="Path" fill="#F48BA2" fill-rule="nonzero"></path>
            <path d="M140.053,117.105 L140.053,119.074 C140.34,119.271 140.675,119.435 141.01,119.599 L141.01,117.63 C140.675,117.466 140.34,117.269 140.053,117.105 Z" id="Path" fill="#F48BA2" fill-rule="nonzero"></path>
            <path d="M137.66,115.07 L137.66,117.039 C137.947,117.367 138.282,117.696 138.617,117.991 L138.617,116.022 C138.282,115.726 137.947,115.431 137.66,115.07 Z" id="Path" fill="#F48BA2" fill-rule="nonzero"></path>
            <path d="M157.757,117.86 L157.757,119.829 C158.092,119.665 158.427,119.501 158.714,119.337 L158.714,117.367 C158.427,117.532 158.092,117.696 157.757,117.86 Z" id="Path" fill="#F48BA2" fill-rule="nonzero"></path>
            <path d="M160.149,118.418 C160.484,118.155 160.819,117.893 161.106,117.597 L161.106,115.628 C160.819,115.923 160.484,116.186 160.149,116.448 L160.149,118.418 Z" id="Path" fill="#F48BA2" fill-rule="nonzero"></path>
            <path d="M152.101,110.968 L152.101,112.258 L153.45,112.258 L153.45,113.268 L152.101,113.268 L152.101,114.089 L150.915,114.089 L150.915,113.268 L150.29,113.268 L150.29,114.089 L149.105,114.089 L149.105,113.268 L144.946,113.268 L144.946,111.036 C144.946,110.392 145.191,109.878 145.682,109.493 C146.169,109.109 146.817,108.916 147.627,108.916 C148.453,108.916 149.101,109.099 149.572,109.465 C150.039,109.831 150.279,110.34 150.29,110.992 L150.29,112.258 L150.915,112.258 L150.915,110.968 L152.101,110.968 Z M149.105,112.258 L149.105,111.052 C149.105,110.689 148.982,110.411 148.737,110.218 C148.491,110.026 148.125,109.93 147.639,109.93 C147.203,109.93 146.846,110.025 146.57,110.214 C146.293,110.401 146.149,110.661 146.138,110.992 L146.138,112.258 L149.105,112.258 Z" id="Shape" fill="#F48BA2" fill-rule="nonzero"></path>
            <path d="M163.02,109.338 C163.02,113.769 157.039,117.379 149.622,117.379 C142.206,117.379 136.225,113.769 136.225,109.338 C136.225,104.906 142.206,101.296 149.622,101.296 C157.039,101.296 163.02,104.906 163.02,109.338 Z" id="Path" fill="#FFDCE4" fill-rule="nonzero"></path>
            <path d="M149.622,117.379 C142.78,117.379 137.134,114.294 136.321,110.322 C136.273,110.651 136.225,110.979 136.225,111.307 C136.225,115.738 142.206,119.349 149.622,119.349 C157.039,119.349 163.02,115.738 163.02,111.307 C163.02,110.979 162.972,110.651 162.924,110.322 C162.111,114.294 156.465,117.379 149.622,117.379 Z" id="Path" fill="#FFBFCD" fill-rule="nonzero"></path>
            <path d="M160.388,109.305 C160.388,109.567 160.388,109.797 160.341,110.027 C160.293,110.191 160.053,110.322 159.814,110.322 C159.575,110.29 159.384,110.125 159.384,109.961 C159.431,109.764 159.431,109.567 159.431,109.338 C159.431,109.141 159.623,109.009 159.91,109.009 C160.197,109.009 160.388,109.141 160.388,109.305 Z M159.862,107.401 C159.862,107.532 159.766,107.664 159.575,107.697 C159.336,107.762 159.049,107.664 158.953,107.5 C158.857,107.303 158.714,107.106 158.57,106.942 C158.427,106.777 158.522,106.581 158.762,106.515 C159.001,106.416 159.288,106.482 159.384,106.646 C159.527,106.843 159.671,107.073 159.766,107.27 C159.862,107.335 159.862,107.368 159.862,107.401 Z M159.527,111.832 C159.527,111.898 159.527,111.931 159.479,111.996 C159.336,112.193 159.144,112.39 159.001,112.587 C158.857,112.751 158.57,112.784 158.331,112.686 C158.092,112.587 158.044,112.39 158.187,112.226 C158.331,112.062 158.522,111.865 158.618,111.701 C158.762,111.537 159.049,111.471 159.24,111.57 C159.431,111.602 159.527,111.734 159.527,111.832 Z M157.805,105.235 C157.805,105.333 157.757,105.399 157.661,105.465 C157.47,105.596 157.183,105.596 156.991,105.465 C156.8,105.333 156.56,105.169 156.321,105.038 C156.13,104.939 156.082,104.71 156.273,104.578 C156.465,104.447 156.752,104.414 156.943,104.545 C157.183,104.677 157.47,104.841 157.661,105.005 C157.757,105.071 157.805,105.169 157.805,105.235 Z M157.135,113.834 C157.135,113.933 157.087,114.031 156.943,114.097 C156.704,114.228 156.417,114.392 156.13,114.491 C155.891,114.589 155.604,114.557 155.46,114.392 C155.316,114.228 155.364,114.031 155.604,113.933 C155.843,113.802 156.082,113.703 156.321,113.572 C156.513,113.441 156.848,113.473 156.991,113.605 C157.087,113.703 157.135,113.769 157.135,113.834 Z M154.694,103.791 C154.694,103.823 154.694,103.889 154.647,103.922 C154.551,104.086 154.264,104.152 154.025,104.086 C153.737,103.987 153.45,103.922 153.163,103.856 C152.924,103.791 152.78,103.626 152.876,103.429 C152.972,103.265 153.211,103.167 153.498,103.233 C153.833,103.298 154.12,103.397 154.407,103.462 C154.599,103.561 154.694,103.659 154.694,103.791 Z M153.833,115.115 C153.833,115.246 153.69,115.377 153.498,115.41 C153.211,115.476 152.876,115.541 152.541,115.607 C152.302,115.64 152.015,115.541 151.967,115.377 C151.919,115.213 152.063,115.016 152.302,114.983 C152.589,114.918 152.876,114.885 153.163,114.819 C153.402,114.754 153.69,114.852 153.785,115.016 C153.833,115.016 153.833,115.049 153.833,115.115 Z M151.01,103.167 C151.01,103.2 151.01,103.2 151.01,103.167 C151.01,103.364 150.771,103.495 150.484,103.495 C150.197,103.495 149.91,103.462 149.622,103.462 C149.335,103.462 149.144,103.331 149.144,103.134 C149.144,102.937 149.335,102.806 149.622,102.806 C149.957,102.806 150.244,102.806 150.579,102.839 C150.819,102.871 151.01,103.003 151.01,103.167 Z M150.101,115.508 C150.101,115.705 149.91,115.837 149.622,115.837 C149.288,115.837 148.953,115.837 148.665,115.804 C148.426,115.804 148.187,115.64 148.235,115.443 C148.235,115.246 148.474,115.115 148.761,115.147 C149.048,115.147 149.383,115.18 149.67,115.18 C149.91,115.18 150.101,115.344 150.101,115.508 Z M147.23,103.397 C147.23,103.528 147.086,103.692 146.847,103.725 C146.56,103.791 146.273,103.823 145.986,103.889 C145.747,103.955 145.46,103.856 145.364,103.692 C145.268,103.528 145.412,103.331 145.651,103.265 C145.938,103.2 146.273,103.134 146.608,103.068 C146.847,103.036 147.134,103.134 147.182,103.298 C147.23,103.331 147.23,103.364 147.23,103.397 Z M146.369,115.115 C146.369,115.147 146.369,115.18 146.321,115.213 C146.225,115.377 145.986,115.476 145.699,115.41 C145.412,115.344 145.077,115.246 144.79,115.18 C144.551,115.115 144.455,114.918 144.551,114.754 C144.646,114.589 144.933,114.524 145.173,114.589 C145.46,114.688 145.747,114.754 146.034,114.819 C146.273,114.852 146.369,114.983 146.369,115.115 Z M143.785,104.447 C143.785,104.545 143.689,104.644 143.594,104.71 C143.354,104.841 143.115,104.939 142.876,105.071 C142.684,105.202 142.35,105.169 142.206,105.038 C142.015,104.907 142.062,104.677 142.254,104.578 C142.493,104.447 142.78,104.283 143.067,104.184 C143.306,104.086 143.594,104.119 143.737,104.283 C143.785,104.316 143.785,104.381 143.785,104.447 Z M143.067,113.867 C143.067,113.933 143.019,113.999 142.972,114.064 C142.828,114.196 142.493,114.228 142.302,114.097 C142.062,113.966 141.775,113.802 141.584,113.638 C141.393,113.506 141.393,113.309 141.584,113.178 C141.775,113.047 142.062,113.047 142.254,113.178 C142.445,113.309 142.684,113.473 142.924,113.605 C143.019,113.67 143.067,113.769 143.067,113.867 Z M141.153,106.285 C141.153,106.351 141.105,106.416 141.058,106.449 C140.914,106.613 140.723,106.81 140.627,106.974 C140.531,107.139 140.196,107.204 140.005,107.106 C139.766,107.04 139.67,106.843 139.814,106.679 C139.957,106.482 140.148,106.285 140.292,106.088 C140.436,105.924 140.723,105.891 140.962,105.99 C141.058,106.055 141.153,106.187 141.153,106.285 Z M140.675,111.865 C140.675,111.996 140.579,112.095 140.436,112.16 C140.196,112.259 139.909,112.193 139.814,112.029 C139.67,111.832 139.526,111.602 139.431,111.406 C139.335,111.241 139.479,111.044 139.718,110.979 C139.957,110.913 140.244,111.012 140.34,111.176 C140.436,111.373 140.579,111.57 140.723,111.734 C140.675,111.767 140.675,111.799 140.675,111.865 Z M139.861,108.714 L139.861,108.747 C139.814,108.944 139.814,109.141 139.814,109.338 C139.814,109.535 139.622,109.666 139.335,109.666 C139.048,109.666 138.857,109.535 138.857,109.338 C138.857,109.108 138.857,108.878 138.904,108.681 C138.952,108.517 139.192,108.386 139.431,108.386 C139.67,108.386 139.861,108.55 139.861,108.714 Z" id="Shape" fill="#FFBFCD" fill-rule="nonzero"></path>
            <path d="M150.101,117.379 L150.101,119.349 C150.436,119.349 150.723,119.316 151.058,119.316 L151.058,117.347 C150.723,117.347 150.436,117.379 150.101,117.379 Z" id="Path" fill="#F48BA2" fill-rule="nonzero"></path>
            <path d="M147.708,117.314 L147.708,119.283 C148.043,119.316 148.331,119.316 148.665,119.349 L148.665,117.379 C148.331,117.347 148.043,117.347 147.708,117.314 Z" id="Path" fill="#F48BA2" fill-rule="nonzero"></path>
            <path d="M152.493,117.215 L152.493,119.185 C152.828,119.152 153.115,119.086 153.45,119.02 L153.45,117.051 C153.115,117.117 152.828,117.15 152.493,117.215 Z" id="Path" fill="#F48BA2" fill-rule="nonzero"></path>
            <path d="M154.886,116.756 L154.886,118.725 C155.221,118.627 155.508,118.561 155.843,118.463 L155.843,116.493 C155.508,116.559 155.221,116.657 154.886,116.756 Z" id="Path" fill="#F48BA2" fill-rule="nonzero"></path>
            <path d="M145.316,116.953 L145.316,118.922 C145.651,118.988 145.938,119.053 146.273,119.086 L146.273,117.117 C145.938,117.084 145.651,117.018 145.316,116.953 Z" id="Path" fill="#F48BA2" fill-rule="nonzero"></path>
            <path d="M142.924,116.296 L142.924,118.266 C143.259,118.364 143.546,118.463 143.881,118.561 L143.881,116.592 C143.546,116.526 143.259,116.428 142.924,116.296 Z" id="Path" fill="#F48BA2" fill-rule="nonzero"></path>
            <path d="M140.053,114.983 L140.053,116.953 C140.34,117.15 140.675,117.314 141.01,117.478 L141.01,115.508 C140.675,115.344 140.34,115.147 140.053,114.983 Z" id="Path" fill="#F48BA2" fill-rule="nonzero"></path>
            <path d="M137.66,112.948 L137.66,114.918 C137.947,115.246 138.282,115.574 138.617,115.87 L138.617,113.9 C138.282,113.605 137.947,113.309 137.66,112.948 Z" id="Path" fill="#F48BA2" fill-rule="nonzero"></path>
            <path d="M157.757,115.738 L157.757,117.708 C158.092,117.544 158.427,117.379 158.714,117.215 L158.714,115.246 C158.427,115.41 158.092,115.574 157.757,115.738 Z" id="Path" fill="#F48BA2" fill-rule="nonzero"></path>
            <path d="M160.149,116.296 C160.484,116.033 160.819,115.771 161.106,115.475 L161.106,113.506 C160.819,113.801 160.484,114.064 160.149,114.327 L160.149,116.296 Z" id="Path" fill="#F48BA2" fill-rule="nonzero"></path>
            <path d="M152.101,108.846 L152.101,110.136 L153.45,110.136 L153.45,111.146 L152.101,111.146 L152.101,111.967 L150.915,111.967 L150.915,111.146 L150.29,111.146 L150.29,111.967 L149.105,111.967 L149.105,111.146 L144.946,111.146 L144.946,108.914 C144.946,108.271 145.191,107.756 145.682,107.372 C146.169,106.987 146.817,106.795 147.627,106.795 C148.453,106.795 149.101,106.978 149.572,107.344 C150.039,107.71 150.279,108.218 150.29,108.87 L150.29,110.136 L150.915,110.136 L150.915,108.846 L152.101,108.846 Z M149.105,110.136 L149.105,108.93 C149.105,108.567 148.982,108.289 148.737,108.097 C148.491,107.905 148.125,107.808 147.639,107.808 C147.203,107.808 146.846,107.903 146.57,108.093 C146.293,108.28 146.149,108.539 146.138,108.87 L146.138,110.136 L149.105,110.136 Z" id="Shape" fill="#F48BA2" fill-rule="nonzero"></path>
        </g>
    </g>
</svg>