<?xml version="1.0" encoding="UTF-8"?>
<svg width="200px" height="200px" viewBox="0 0 200 200" version="1.1" xmlns="http://www.w3.org/2000/svg" xmlns:xlink="http://www.w3.org/1999/xlink">
    <title>Group 6.1</title>
    <g id="Page-1" stroke="none" stroke-width="1" fill="none" fill-rule="evenodd">
        <g id="Group-6.1" fill-rule="nonzero">
            <path d="M200,100 C200,155.228 155.228,200 100,200 C44.7715,200 0,155.228 0,100 C0,44.7715 44.7715,0 100,0 C155.228,0 200,44.7715 200,100 Z" id="Path" fill="#FFF6F8"></path>
            <path d="M100.795,120.743 C100.795,125.175 94.8141,128.785 87.3976,128.785 C79.9811,128.785 74,125.175 74,120.743 C74,116.312 79.9811,112.702 87.3976,112.702 C94.8141,112.702 100.795,116.312 100.795,120.743 Z" id="Path" fill="#FFFFFF"></path>
            <path d="M87.3976,128.785 C80.5552,128.785 74.9091,125.7 74.0957,121.728 C74.0478,122.056 74,122.385 74,122.713 C74,127.144 79.9811,130.755 87.3976,130.755 C94.8141,130.755 100.795,127.144 100.795,122.713 C100.795,122.385 100.747,122.056 100.699,121.728 C99.886,125.7 94.2399,128.785 87.3976,128.785 Z" id="Path" fill="#FFBFCD"></path>
            <path d="M98.1635,120.711 C98.1635,120.973 98.1635,121.203 98.1157,121.433 C98.0678,121.597 97.8286,121.728 97.5893,121.728 C97.3501,121.695 97.1587,121.531 97.1587,121.367 C97.2065,121.17 97.2065,120.973 97.2065,120.743 C97.2065,120.547 97.3979,120.415 97.685,120.415 C97.9721,120.415 98.1635,120.547 98.1635,120.711 Z M97.6372,118.807 C97.6372,118.938 97.5415,119.069 97.3501,119.102 C97.1108,119.168 96.8237,119.069 96.728,118.905 C96.6324,118.708 96.4888,118.511 96.3453,118.347 C96.2017,118.183 96.2974,117.986 96.5367,117.921 C96.7759,117.822 97.063,117.888 97.1587,118.052 C97.3022,118.249 97.4458,118.479 97.5415,118.676 C97.6372,118.741 97.6372,118.774 97.6372,118.807 Z M97.3022,123.238 C97.3022,123.304 97.3022,123.336 97.2544,123.402 C97.1108,123.599 96.9194,123.796 96.7759,123.993 C96.6324,124.157 96.3453,124.19 96.106,124.091 C95.8668,123.993 95.8189,123.796 95.9625,123.632 C96.106,123.468 96.2974,123.271 96.3931,123.107 C96.5367,122.943 96.8237,122.877 97.0151,122.975 C97.2065,123.008 97.3022,123.14 97.3022,123.238 Z M95.5797,116.641 C95.5797,116.739 95.5318,116.805 95.4361,116.87 C95.2447,117.002 94.9577,117.002 94.7663,116.87 C94.5749,116.739 94.3356,116.575 94.0964,116.444 C93.905,116.345 93.8571,116.115 94.0485,115.984 C94.2399,115.853 94.527,115.82 94.7184,115.951 C94.9577,116.083 95.2447,116.247 95.4361,116.411 C95.5318,116.476 95.5797,116.575 95.5797,116.641 Z M94.9098,125.24 C94.9098,125.339 94.862,125.437 94.7184,125.503 C94.4792,125.634 94.1921,125.798 93.905,125.897 C93.6658,125.995 93.3787,125.962 93.2351,125.798 C93.0916,125.634 93.1394,125.437 93.3787,125.339 C93.6179,125.207 93.8571,125.109 94.0964,124.978 C94.2878,124.846 94.6227,124.879 94.7663,125.01 C94.862,125.109 94.9098,125.175 94.9098,125.24 Z M92.4695,115.196 C92.4695,115.229 92.4695,115.295 92.4217,115.328 C92.326,115.492 92.0389,115.557 91.7997,115.492 C91.5126,115.393 91.2255,115.328 90.9384,115.262 C90.6991,115.196 90.5556,115.032 90.6513,114.835 C90.747,114.671 90.9862,114.573 91.2733,114.638 C91.6083,114.704 91.8954,114.802 92.1824,114.868 C92.3738,114.967 92.4695,115.065 92.4695,115.196 Z M91.6083,126.52 C91.6083,126.652 91.4647,126.783 91.2733,126.816 C90.9862,126.881 90.6513,126.947 90.3164,127.013 C90.0771,127.046 89.79,126.947 89.7422,126.783 C89.6943,126.619 89.8379,126.422 90.0771,126.389 C90.3642,126.323 90.6513,126.291 90.9384,126.225 C91.1776,126.159 91.4647,126.258 91.5604,126.422 C91.6083,126.422 91.6083,126.455 91.6083,126.52 Z M88.7852,114.573 C88.7852,114.605 88.7852,114.605 88.7852,114.573 C88.7852,114.77 88.546,114.901 88.2589,114.901 C87.9718,114.901 87.6847,114.868 87.3976,114.868 C87.1105,114.868 86.9191,114.737 86.9191,114.54 C86.9191,114.343 87.1105,114.212 87.3976,114.212 C87.7325,114.212 88.0196,114.212 88.3546,114.244 C88.5938,114.277 88.7852,114.409 88.7852,114.573 Z M87.8761,126.914 C87.8761,127.111 87.6847,127.242 87.3976,127.242 C87.0627,127.242 86.7277,127.242 86.4406,127.21 C86.2014,127.21 85.9622,127.046 86.01,126.849 C86.01,126.652 86.2492,126.52 86.5363,126.553 C86.8234,126.553 87.1584,126.586 87.4455,126.586 C87.6847,126.586 87.8761,126.75 87.8761,126.914 Z M85.0052,114.802 C85.0052,114.934 84.8616,115.098 84.6224,115.131 C84.3353,115.196 84.0482,115.229 83.7611,115.295 C83.5219,115.36 83.2348,115.262 83.1391,115.098 C83.0434,114.934 83.1869,114.737 83.4262,114.671 C83.7133,114.605 84.0482,114.54 84.3832,114.474 C84.6224,114.441 84.9095,114.54 84.9573,114.704 C85.0052,114.737 85.0052,114.77 85.0052,114.802 Z M84.1439,126.52 C84.1439,126.553 84.1439,126.586 84.0961,126.619 C84.0004,126.783 83.7611,126.881 83.474,126.816 C83.1869,126.75 82.852,126.652 82.5649,126.586 C82.3257,126.52 82.23,126.323 82.3257,126.159 C82.4214,125.995 82.7085,125.93 82.9477,125.995 C83.2348,126.094 83.5219,126.159 83.809,126.225 C84.0482,126.258 84.1439,126.389 84.1439,126.52 Z M81.5601,115.853 C81.5601,115.951 81.4644,116.05 81.3687,116.115 C81.1295,116.247 80.8902,116.345 80.651,116.476 C80.4596,116.608 80.1246,116.575 79.9811,116.444 C79.7897,116.312 79.8376,116.083 80.029,115.984 C80.2682,115.853 80.5553,115.689 80.8424,115.59 C81.0816,115.492 81.3687,115.525 81.5123,115.689 C81.5601,115.721 81.5601,115.787 81.5601,115.853 Z M80.8424,125.273 C80.8424,125.339 80.7945,125.404 80.7467,125.47 C80.6031,125.601 80.2682,125.634 80.0768,125.503 C79.8376,125.372 79.5505,125.207 79.3591,125.043 C79.1677,124.912 79.1677,124.715 79.3591,124.584 C79.5505,124.452 79.8376,124.452 80.029,124.584 C80.2203,124.715 80.4596,124.879 80.6988,125.01 C80.7945,125.076 80.8424,125.175 80.8424,125.273 Z M78.9284,117.691 C78.9284,117.757 78.8806,117.822 78.8327,117.855 C78.6892,118.019 78.4978,118.216 78.4021,118.38 C78.3064,118.544 77.9715,118.61 77.7801,118.511 C77.5408,118.446 77.4451,118.249 77.5887,118.085 C77.7322,117.888 77.9236,117.691 78.0672,117.494 C78.2107,117.33 78.4978,117.297 78.737,117.395 C78.8327,117.461 78.9284,117.592 78.9284,117.691 Z M78.45,123.271 C78.45,123.402 78.3543,123.501 78.2107,123.566 C77.9715,123.665 77.6844,123.599 77.5887,123.435 C77.4451,123.238 77.3016,123.008 77.2059,122.811 C77.1102,122.647 77.2537,122.45 77.493,122.385 C77.7322,122.319 78.0193,122.417 78.115,122.582 C78.2107,122.778 78.3543,122.975 78.4978,123.14 C78.45,123.172 78.45,123.205 78.45,123.271 Z M77.6365,120.12 L77.6365,120.153 C77.5887,120.35 77.5887,120.547 77.5887,120.743 C77.5887,120.94 77.3973,121.072 77.1102,121.072 C76.8231,121.072 76.6317,120.94 76.6317,120.743 C76.6317,120.514 76.6317,120.284 76.6796,120.087 C76.7274,119.923 76.9667,119.792 77.2059,119.792 C77.4451,119.792 77.6365,119.956 77.6365,120.12 Z" id="Shape" fill="#FFBFCD"></path>
            <path d="M87.8761,128.785 L87.8761,130.755 C88.211,130.755 88.4981,130.722 88.8331,130.722 L88.8331,128.752 C88.4981,128.752 88.211,128.785 87.8761,128.785 Z" id="Path" fill="#F48BA2"></path>
            <path d="M85.4836,128.719 L85.4836,130.689 C85.8186,130.722 86.1057,130.722 86.4406,130.755 L86.4406,128.785 C86.1057,128.752 85.8186,128.752 85.4836,128.719 Z" id="Path" fill="#F48BA2"></path>
            <path d="M90.2686,128.621 L90.2686,130.59 C90.6035,130.558 90.8906,130.492 91.2255,130.426 L91.2255,128.457 C90.8906,128.523 90.6035,128.555 90.2686,128.621 Z" id="Path" fill="#F48BA2"></path>
            <path d="M92.6609,128.161 L92.6609,130.131 C92.9958,130.032 93.2829,129.967 93.6179,129.868 L93.6179,127.899 C93.2829,127.965 92.9958,128.063 92.6609,128.161 Z" id="Path" fill="#F48BA2"></path>
            <path d="M83.0913,128.358 L83.0913,130.328 C83.4262,130.394 83.7133,130.459 84.0483,130.492 L84.0483,128.523 C83.7133,128.49 83.4262,128.424 83.0913,128.358 Z" id="Path" fill="#F48BA2"></path>
            <path d="M80.6989,127.702 L80.6989,129.671 C81.0338,129.77 81.3209,129.868 81.6558,129.967 L81.6558,127.997 C81.3209,127.932 81.0338,127.833 80.6989,127.702 Z" id="Path" fill="#F48BA2"></path>
            <path d="M77.8279,126.389 L77.8279,128.358 C78.115,128.555 78.4499,128.719 78.7848,128.884 L78.7848,126.914 C78.4499,126.75 78.115,126.553 77.8279,126.389 Z" id="Path" fill="#F48BA2"></path>
            <path d="M75.4355,124.354 L75.4355,126.323 C75.7226,126.652 76.0576,126.98 76.3925,127.275 L76.3925,125.306 C76.0576,125.01 75.7226,124.715 75.4355,124.354 Z" id="Path" fill="#F48BA2"></path>
            <path d="M95.5319,127.144 L95.5319,129.113 C95.8668,128.949 96.2017,128.785 96.4888,128.621 L96.4888,126.652 C96.2017,126.816 95.8668,126.98 95.5319,127.144 Z" id="Path" fill="#F48BA2"></path>
            <path d="M97.9243,127.702 C98.2593,127.439 98.5942,127.177 98.8813,126.881 L98.8813,124.912 C98.5942,125.207 98.2593,125.47 97.9243,125.733 L97.9243,127.702 Z" id="Path" fill="#F48BA2"></path>
            <path d="M89.8763,120.252 L89.8763,121.542 L91.2255,121.542 L91.2255,122.552 L89.8763,122.552 L89.8763,123.373 L88.6906,123.373 L88.6906,122.552 L88.0656,122.552 L88.0656,123.373 L86.8799,123.373 L86.8799,122.552 L82.7212,122.552 L82.7212,120.32 C82.7212,119.676 82.9665,119.162 83.4571,118.777 C83.9439,118.393 84.5922,118.2 85.4022,118.2 C86.2277,118.2 86.876,118.383 87.3472,118.749 C87.8144,119.115 88.0539,119.624 88.0656,120.276 L88.0656,121.542 L88.6906,121.542 L88.6906,120.252 L89.8763,120.252 Z M86.8799,121.542 L86.8799,120.336 C86.8799,119.973 86.7572,119.695 86.5119,119.503 C86.2666,119.31 85.9006,119.214 85.4138,119.214 C84.9777,119.214 84.6214,119.309 84.345,119.499 C84.0685,119.686 83.9244,119.945 83.9127,120.276 L83.9127,121.542 L86.8799,121.542 Z" id="Shape" fill="#F48BA2"></path>
            <path d="M100.795,118.622 C100.795,123.053 94.8141,126.664 87.3976,126.664 C79.9811,126.664 74,123.053 74,118.622 C74,114.191 79.9811,110.58 87.3976,110.58 C94.8141,110.58 100.795,114.191 100.795,118.622 Z" id="Path" fill="#FFFFFF"></path>
            <path d="M87.3976,126.664 C80.5552,126.664 74.9091,123.578 74.0957,119.607 C74.0478,119.935 74,120.263 74,120.591 C74,125.022 79.9811,128.633 87.3976,128.633 C94.8141,128.633 100.795,125.022 100.795,120.591 C100.795,120.263 100.747,119.935 100.699,119.607 C99.886,123.578 94.2399,126.664 87.3976,126.664 Z" id="Path" fill="#FFBFCD"></path>
            <path d="M98.1635,118.589 C98.1635,118.852 98.1635,119.082 98.1157,119.311 C98.0678,119.475 97.8286,119.607 97.5893,119.607 C97.3501,119.574 97.1587,119.41 97.1587,119.246 C97.2065,119.049 97.2065,118.852 97.2065,118.622 C97.2065,118.425 97.3979,118.294 97.685,118.294 C97.9721,118.294 98.1635,118.425 98.1635,118.589 Z M97.6372,116.685 C97.6372,116.817 97.5415,116.948 97.3501,116.981 C97.1108,117.046 96.8237,116.948 96.728,116.784 C96.6324,116.587 96.4888,116.39 96.3453,116.226 C96.2017,116.062 96.2974,115.865 96.5367,115.799 C96.7759,115.701 97.063,115.766 97.1587,115.93 C97.3022,116.127 97.4458,116.357 97.5415,116.554 C97.6372,116.62 97.6372,116.653 97.6372,116.685 Z M97.3022,121.117 C97.3022,121.182 97.3022,121.215 97.2544,121.281 C97.1108,121.478 96.9194,121.675 96.7759,121.871 C96.6324,122.036 96.3453,122.068 96.106,121.97 C95.8668,121.871 95.8189,121.675 95.9625,121.51 C96.106,121.346 96.2974,121.149 96.3931,120.985 C96.5367,120.821 96.8237,120.755 97.0151,120.854 C97.2065,120.887 97.3022,121.018 97.3022,121.117 Z M95.5797,114.519 C95.5797,114.618 95.5318,114.683 95.4361,114.749 C95.2447,114.88 94.9577,114.88 94.7663,114.749 C94.5749,114.618 94.3356,114.453 94.0964,114.322 C93.905,114.224 93.8571,113.994 94.0485,113.863 C94.2399,113.731 94.527,113.698 94.7184,113.83 C94.9577,113.961 95.2447,114.125 95.4361,114.289 C95.5318,114.355 95.5797,114.453 95.5797,114.519 Z M94.9098,123.119 C94.9098,123.217 94.862,123.316 94.7184,123.381 C94.4792,123.513 94.1921,123.677 93.905,123.775 C93.6658,123.874 93.3787,123.841 93.2351,123.677 C93.0916,123.513 93.1394,123.316 93.3787,123.217 C93.6179,123.086 93.8571,122.987 94.0964,122.856 C94.2878,122.725 94.6227,122.758 94.7663,122.889 C94.862,122.987 94.9098,123.053 94.9098,123.119 Z M92.4695,113.075 C92.4695,113.108 92.4695,113.173 92.4217,113.206 C92.326,113.37 92.0389,113.436 91.7997,113.37 C91.5126,113.272 91.2255,113.206 90.9384,113.14 C90.6991,113.075 90.5556,112.911 90.6513,112.714 C90.747,112.55 90.9862,112.451 91.2733,112.517 C91.6083,112.582 91.8954,112.681 92.1824,112.747 C92.3738,112.845 92.4695,112.944 92.4695,113.075 Z M91.6083,124.399 C91.6083,124.53 91.4647,124.661 91.2733,124.694 C90.9862,124.76 90.6513,124.826 90.3164,124.891 C90.0771,124.924 89.79,124.826 89.7422,124.661 C89.6943,124.497 89.8379,124.3 90.0771,124.268 C90.3642,124.202 90.6513,124.169 90.9384,124.103 C91.1776,124.038 91.4647,124.136 91.5604,124.3 C91.6083,124.3 91.6083,124.333 91.6083,124.399 Z M88.7852,112.451 C88.7852,112.484 88.7852,112.484 88.7852,112.451 C88.7852,112.648 88.546,112.779 88.2589,112.779 C87.9718,112.779 87.6847,112.747 87.3976,112.747 C87.1105,112.747 86.9191,112.615 86.9191,112.418 C86.9191,112.221 87.1105,112.09 87.3976,112.09 C87.7325,112.09 88.0196,112.09 88.3546,112.123 C88.5938,112.156 88.7852,112.287 88.7852,112.451 Z M87.8761,124.793 C87.8761,124.99 87.6847,125.121 87.3976,125.121 C87.0627,125.121 86.7277,125.121 86.4406,125.088 C86.2014,125.088 85.9622,124.924 86.01,124.727 C86.01,124.53 86.2492,124.399 86.5363,124.432 C86.8234,124.432 87.1584,124.465 87.4455,124.465 C87.6847,124.465 87.8761,124.629 87.8761,124.793 Z M85.0052,112.681 C85.0052,112.812 84.8616,112.976 84.6224,113.009 C84.3353,113.075 84.0482,113.108 83.7611,113.173 C83.5219,113.239 83.2348,113.14 83.1391,112.976 C83.0434,112.812 83.1869,112.615 83.4262,112.55 C83.7133,112.484 84.0482,112.418 84.3832,112.353 C84.6224,112.32 84.9095,112.418 84.9573,112.582 C85.0052,112.615 85.0052,112.648 85.0052,112.681 Z M84.1439,124.399 C84.1439,124.432 84.1439,124.465 84.0961,124.497 C84.0004,124.661 83.7611,124.76 83.474,124.694 C83.1869,124.629 82.852,124.53 82.5649,124.465 C82.3257,124.399 82.23,124.202 82.3257,124.038 C82.4214,123.874 82.7085,123.808 82.9477,123.874 C83.2348,123.972 83.5219,124.038 83.809,124.103 C84.0482,124.136 84.1439,124.268 84.1439,124.399 Z M81.5601,113.731 C81.5601,113.83 81.4644,113.928 81.3687,113.994 C81.1295,114.125 80.8902,114.224 80.651,114.355 C80.4596,114.486 80.1246,114.453 79.9811,114.322 C79.7897,114.191 79.8376,113.961 80.029,113.863 C80.2682,113.731 80.5553,113.567 80.8424,113.469 C81.0816,113.37 81.3687,113.403 81.5123,113.567 C81.5601,113.6 81.5601,113.666 81.5601,113.731 Z M80.8424,123.152 C80.8424,123.217 80.7945,123.283 80.7467,123.349 C80.6031,123.48 80.2682,123.513 80.0768,123.381 C79.8376,123.25 79.5505,123.086 79.3591,122.922 C79.1677,122.791 79.1677,122.594 79.3591,122.462 C79.5505,122.331 79.8376,122.331 80.029,122.462 C80.2203,122.594 80.4596,122.758 80.6988,122.889 C80.7945,122.955 80.8424,123.053 80.8424,123.152 Z M78.9284,115.569 C78.9284,115.635 78.8806,115.701 78.8327,115.734 C78.6892,115.898 78.4978,116.095 78.4021,116.259 C78.3064,116.423 77.9715,116.488 77.7801,116.39 C77.5408,116.324 77.4451,116.127 77.5887,115.963 C77.7322,115.766 77.9236,115.569 78.0672,115.372 C78.2107,115.208 78.4978,115.176 78.737,115.274 C78.8327,115.34 78.9284,115.471 78.9284,115.569 Z M78.45,121.149 C78.45,121.281 78.3543,121.379 78.2107,121.445 C77.9715,121.543 77.6844,121.478 77.5887,121.313 C77.4451,121.117 77.3016,120.887 77.2059,120.69 C77.1102,120.526 77.2537,120.329 77.493,120.263 C77.7322,120.197 78.0193,120.296 78.115,120.46 C78.2107,120.657 78.3543,120.854 78.4978,121.018 C78.45,121.051 78.45,121.084 78.45,121.149 Z M77.6365,117.998 L77.6365,118.031 C77.5887,118.228 77.5887,118.425 77.5887,118.622 C77.5887,118.819 77.3973,118.95 77.1102,118.95 C76.8231,118.95 76.6317,118.819 76.6317,118.622 C76.6317,118.392 76.6317,118.162 76.6796,117.966 C76.7274,117.801 76.9667,117.67 77.2059,117.67 C77.4451,117.67 77.6365,117.834 77.6365,117.998 Z" id="Shape" fill="#FFBFCD"></path>
            <path d="M87.8761,126.664 L87.8761,128.633 C88.211,128.633 88.4981,128.6 88.8331,128.6 L88.8331,126.631 C88.4981,126.631 88.211,126.664 87.8761,126.664 Z" id="Path" fill="#F48BA2"></path>
            <path d="M85.4836,126.598 L85.4836,128.567 C85.8186,128.6 86.1057,128.6 86.4406,128.633 L86.4406,126.664 C86.1057,126.631 85.8186,126.631 85.4836,126.598 Z" id="Path" fill="#F48BA2"></path>
            <path d="M90.2686,126.5 L90.2686,128.469 C90.6035,128.436 90.8906,128.371 91.2255,128.305 L91.2255,126.335 C90.8906,126.401 90.6035,126.434 90.2686,126.5 Z" id="Path" fill="#F48BA2"></path>
            <path d="M92.6609,126.04 L92.6609,128.01 C92.9958,127.911 93.2829,127.845 93.6179,127.747 L93.6179,125.778 C93.2829,125.843 92.9958,125.942 92.6609,126.04 Z" id="Path" fill="#F48BA2"></path>
            <path d="M83.0913,126.237 L83.0913,128.207 C83.4262,128.272 83.7133,128.338 84.0483,128.371 L84.0483,126.401 C83.7133,126.368 83.4262,126.303 83.0913,126.237 Z" id="Path" fill="#F48BA2"></path>
            <path d="M80.6989,125.581 L80.6989,127.55 C81.0338,127.648 81.3209,127.747 81.6558,127.845 L81.6558,125.876 C81.3209,125.81 81.0338,125.712 80.6989,125.581 Z" id="Path" fill="#F48BA2"></path>
            <path d="M77.8279,124.268 L77.8279,126.237 C78.115,126.434 78.4499,126.598 78.7848,126.762 L78.7848,124.793 C78.4499,124.629 78.115,124.432 77.8279,124.268 Z" id="Path" fill="#F48BA2"></path>
            <path d="M75.4355,122.233 L75.4355,124.202 C75.7226,124.53 76.0576,124.858 76.3925,125.154 L76.3925,123.184 C76.0576,122.889 75.7226,122.594 75.4355,122.233 Z" id="Path" fill="#F48BA2"></path>
            <path d="M95.5319,125.023 L95.5319,126.992 C95.8668,126.828 96.2017,126.664 96.4888,126.5 L96.4888,124.53 C96.2017,124.694 95.8668,124.859 95.5319,125.023 Z" id="Path" fill="#F48BA2"></path>
            <path d="M97.9243,125.58 C98.2593,125.318 98.5942,125.055 98.8813,124.76 L98.8813,122.791 C98.5942,123.086 98.2593,123.349 97.9243,123.611 L97.9243,125.58 Z" id="Path" fill="#F48BA2"></path>
            <path d="M89.8763,118.13 L89.8763,119.421 L91.2255,119.421 L91.2255,120.43 L89.8763,120.43 L89.8763,121.252 L88.6906,121.252 L88.6906,120.43 L88.0656,120.43 L88.0656,121.252 L86.8799,121.252 L86.8799,120.43 L82.7212,120.43 L82.7212,118.199 C82.7212,117.555 82.9665,117.041 83.4571,116.656 C83.9439,116.271 84.5922,116.079 85.4022,116.079 C86.2277,116.079 86.876,116.262 87.3472,116.628 C87.8144,116.994 88.0539,117.503 88.0656,118.154 L88.0656,119.421 L88.6906,119.421 L88.6906,118.13 L89.8763,118.13 Z M86.8799,119.421 L86.8799,118.215 C86.8799,117.851 86.7572,117.574 86.5119,117.381 C86.2666,117.189 85.9006,117.093 85.4138,117.093 C84.9777,117.093 84.6214,117.188 84.345,117.377 C84.0685,117.564 83.9244,117.823 83.9127,118.154 L83.9127,119.421 L86.8799,119.421 Z" id="Shape" fill="#F48BA2"></path>
            <path d="M100.795,116.492 C100.795,120.923 94.8141,124.534 87.3976,124.534 C79.9811,124.534 74,120.923 74,116.492 C74,112.061 79.9811,108.45 87.3976,108.45 C94.8141,108.45 100.795,112.061 100.795,116.492 Z" id="Path" fill="#FFFFFF"></path>
            <path d="M87.3976,124.533 C80.5552,124.533 74.9091,121.448 74.0957,117.476 C74.0478,117.805 74,118.133 74,118.461 C74,122.892 79.9811,126.503 87.3976,126.503 C94.8141,126.503 100.795,122.892 100.795,118.461 C100.795,118.133 100.747,117.805 100.699,117.476 C99.886,121.448 94.2399,124.533 87.3976,124.533 Z" id="Path" fill="#FFBFCD"></path>
            <path d="M98.1635,116.459 C98.1635,116.722 98.1635,116.951 98.1157,117.181 C98.0678,117.345 97.8286,117.477 97.5893,117.477 C97.3501,117.444 97.1587,117.28 97.1587,117.115 C97.2065,116.919 97.2065,116.722 97.2065,116.492 C97.2065,116.295 97.3979,116.164 97.685,116.164 C97.9721,116.164 98.1635,116.295 98.1635,116.459 Z M97.6372,114.555 C97.6372,114.687 97.5415,114.818 97.3501,114.851 C97.1108,114.916 96.8237,114.818 96.728,114.654 C96.6324,114.457 96.4888,114.26 96.3453,114.096 C96.2017,113.932 96.2974,113.735 96.5367,113.669 C96.7759,113.571 97.063,113.636 97.1587,113.8 C97.3022,113.997 97.4458,114.227 97.5415,114.424 C97.6372,114.49 97.6372,114.522 97.6372,114.555 Z M97.3022,118.986 C97.3022,119.052 97.3022,119.085 97.2544,119.151 C97.1108,119.347 96.9194,119.544 96.7759,119.741 C96.6324,119.905 96.3453,119.938 96.106,119.84 C95.8668,119.741 95.8189,119.544 95.9625,119.38 C96.106,119.216 96.2974,119.019 96.3931,118.855 C96.5367,118.691 96.8237,118.625 97.0151,118.724 C97.2065,118.757 97.3022,118.888 97.3022,118.986 Z M95.5797,112.389 C95.5797,112.487 95.5318,112.553 95.4361,112.619 C95.2447,112.75 94.9577,112.75 94.7663,112.619 C94.5749,112.487 94.3356,112.323 94.0964,112.192 C93.905,112.094 93.8571,111.864 94.0485,111.732 C94.2399,111.601 94.527,111.568 94.7184,111.7 C94.9577,111.831 95.2447,111.995 95.4361,112.159 C95.5318,112.225 95.5797,112.323 95.5797,112.389 Z M94.9098,120.989 C94.9098,121.087 94.862,121.186 94.7184,121.251 C94.4792,121.383 94.1921,121.547 93.905,121.645 C93.6658,121.744 93.3787,121.711 93.2351,121.547 C93.0916,121.383 93.1394,121.186 93.3787,121.087 C93.6179,120.956 93.8571,120.857 94.0964,120.726 C94.2878,120.595 94.6227,120.628 94.7663,120.759 C94.862,120.857 94.9098,120.923 94.9098,120.989 Z M92.4695,110.945 C92.4695,110.978 92.4695,111.043 92.4217,111.076 C92.326,111.24 92.0389,111.306 91.7997,111.24 C91.5126,111.142 91.2255,111.076 90.9384,111.01 C90.6991,110.945 90.5556,110.781 90.6513,110.584 C90.747,110.42 90.9862,110.321 91.2733,110.387 C91.6083,110.452 91.8954,110.551 92.1824,110.616 C92.3738,110.715 92.4695,110.813 92.4695,110.945 Z M91.6083,122.269 C91.6083,122.4 91.4647,122.531 91.2733,122.564 C90.9862,122.63 90.6513,122.695 90.3164,122.761 C90.0771,122.794 89.79,122.695 89.7422,122.531 C89.6943,122.367 89.8379,122.17 90.0771,122.137 C90.3642,122.072 90.6513,122.039 90.9384,121.973 C91.1776,121.908 91.4647,122.006 91.5604,122.17 C91.6083,122.17 91.6083,122.203 91.6083,122.269 Z M88.7852,110.321 C88.7852,110.354 88.7852,110.354 88.7852,110.321 C88.7852,110.518 88.546,110.649 88.2589,110.649 C87.9718,110.649 87.6847,110.616 87.3976,110.616 C87.1105,110.616 86.9191,110.485 86.9191,110.288 C86.9191,110.091 87.1105,109.96 87.3976,109.96 C87.7325,109.96 88.0196,109.96 88.3546,109.993 C88.5938,110.026 88.7852,110.157 88.7852,110.321 Z M87.8761,122.663 C87.8761,122.86 87.6847,122.991 87.3976,122.991 C87.0627,122.991 86.7277,122.991 86.4406,122.958 C86.2014,122.958 85.9622,122.794 86.01,122.597 C86.01,122.4 86.2492,122.269 86.5363,122.302 C86.8234,122.302 87.1584,122.334 87.4455,122.334 C87.6847,122.334 87.8761,122.499 87.8761,122.663 Z M85.0052,110.551 C85.0052,110.682 84.8616,110.846 84.6224,110.879 C84.3353,110.945 84.0482,110.978 83.7611,111.043 C83.5219,111.109 83.2348,111.01 83.1391,110.846 C83.0434,110.682 83.1869,110.485 83.4262,110.42 C83.7133,110.354 84.0482,110.288 84.3832,110.223 C84.6224,110.19 84.9095,110.288 84.9573,110.452 C85.0052,110.485 85.0052,110.518 85.0052,110.551 Z M84.1439,122.269 C84.1439,122.302 84.1439,122.334 84.0961,122.367 C84.0004,122.531 83.7611,122.63 83.474,122.564 C83.1869,122.499 82.852,122.4 82.5649,122.334 C82.3257,122.269 82.23,122.072 82.3257,121.908 C82.4214,121.744 82.7085,121.678 82.9477,121.744 C83.2348,121.842 83.5219,121.908 83.809,121.973 C84.0482,122.006 84.1439,122.137 84.1439,122.269 Z M81.5601,111.601 C81.5601,111.7 81.4644,111.798 81.3687,111.864 C81.1295,111.995 80.8902,112.094 80.651,112.225 C80.4596,112.356 80.1246,112.323 79.9811,112.192 C79.7897,112.061 79.8376,111.831 80.029,111.732 C80.2682,111.601 80.5553,111.437 80.8424,111.339 C81.0816,111.24 81.3687,111.273 81.5123,111.437 C81.5601,111.47 81.5601,111.536 81.5601,111.601 Z M80.8424,121.021 C80.8424,121.087 80.7945,121.153 80.7467,121.218 C80.6031,121.35 80.2682,121.383 80.0768,121.251 C79.8376,121.12 79.5505,120.956 79.3591,120.792 C79.1677,120.66 79.1677,120.463 79.3591,120.332 C79.5505,120.201 79.8376,120.201 80.029,120.332 C80.2203,120.463 80.4596,120.628 80.6988,120.759 C80.7945,120.825 80.8424,120.923 80.8424,121.021 Z M78.9284,113.439 C78.9284,113.505 78.8806,113.571 78.8327,113.603 C78.6892,113.768 78.4978,113.964 78.4021,114.129 C78.3064,114.293 77.9715,114.358 77.7801,114.26 C77.5408,114.194 77.4451,113.997 77.5887,113.833 C77.7322,113.636 77.9236,113.439 78.0672,113.242 C78.2107,113.078 78.4978,113.045 78.737,113.144 C78.8327,113.21 78.9284,113.341 78.9284,113.439 Z M78.45,119.019 C78.45,119.151 78.3543,119.249 78.2107,119.315 C77.9715,119.413 77.6844,119.347 77.5887,119.183 C77.4451,118.986 77.3016,118.757 77.2059,118.56 C77.1102,118.396 77.2537,118.199 77.493,118.133 C77.7322,118.067 78.0193,118.166 78.115,118.33 C78.2107,118.527 78.3543,118.724 78.4978,118.888 C78.45,118.921 78.45,118.954 78.45,119.019 Z M77.6365,115.868 L77.6365,115.901 C77.5887,116.098 77.5887,116.295 77.5887,116.492 C77.5887,116.689 77.3973,116.82 77.1102,116.82 C76.8231,116.82 76.6317,116.689 76.6317,116.492 C76.6317,116.262 76.6317,116.032 76.6796,115.835 C76.7274,115.671 76.9667,115.54 77.2059,115.54 C77.4451,115.54 77.6365,115.704 77.6365,115.868 Z" id="Shape" fill="#FFBFCD"></path>
            <path d="M87.8761,124.534 L87.8761,126.503 C88.211,126.503 88.4981,126.47 88.8331,126.47 L88.8331,124.501 C88.4981,124.501 88.211,124.534 87.8761,124.534 Z" id="Path" fill="#F48BA2"></path>
            <path d="M85.4836,124.468 L85.4836,126.437 C85.8186,126.47 86.1057,126.47 86.4406,126.503 L86.4406,124.534 C86.1057,124.501 85.8186,124.501 85.4836,124.468 Z" id="Path" fill="#F48BA2"></path>
            <path d="M90.2686,124.37 L90.2686,126.339 C90.6035,126.306 90.8906,126.241 91.2255,126.175 L91.2255,124.205 C90.8906,124.271 90.6035,124.304 90.2686,124.37 Z" id="Path" fill="#F48BA2"></path>
            <path d="M92.6609,123.91 L92.6609,125.879 C92.9958,125.781 93.2829,125.715 93.6179,125.617 L93.6179,123.647 C93.2829,123.713 92.9958,123.811 92.6609,123.91 Z" id="Path" fill="#F48BA2"></path>
            <path d="M83.0913,124.107 L83.0913,126.076 C83.4262,126.142 83.7133,126.208 84.0483,126.24 L84.0483,124.271 C83.7133,124.238 83.4262,124.172 83.0913,124.107 Z" id="Path" fill="#F48BA2"></path>
            <path d="M80.6989,123.45 L80.6989,125.42 C81.0338,125.518 81.3209,125.617 81.6558,125.715 L81.6558,123.746 C81.3209,123.68 81.0338,123.582 80.6989,123.45 Z" id="Path" fill="#F48BA2"></path>
            <path d="M77.8279,122.137 L77.8279,124.107 C78.115,124.304 78.4499,124.468 78.7848,124.632 L78.7848,122.663 C78.4499,122.499 78.115,122.302 77.8279,122.137 Z" id="Path" fill="#F48BA2"></path>
            <path d="M75.4355,120.102 L75.4355,122.072 C75.7226,122.4 76.0576,122.728 76.3925,123.024 L76.3925,121.054 C76.0576,120.759 75.7226,120.463 75.4355,120.102 Z" id="Path" fill="#F48BA2"></path>
            <path d="M95.5319,122.892 L95.5319,124.862 C95.8668,124.698 96.2017,124.534 96.4888,124.369 L96.4888,122.4 C96.2017,122.564 95.8668,122.728 95.5319,122.892 Z" id="Path" fill="#F48BA2"></path>
            <path d="M97.9243,123.45 C98.2593,123.188 98.5942,122.925 98.8813,122.63 L98.8813,120.66 C98.5942,120.956 98.2593,121.218 97.9243,121.481 L97.9243,123.45 Z" id="Path" fill="#F48BA2"></path>
            <path d="M89.8763,116 L89.8763,117.291 L91.2255,117.291 L91.2255,118.3 L89.8763,118.3 L89.8763,119.122 L88.6906,119.122 L88.6906,118.3 L88.0656,118.3 L88.0656,119.122 L86.8799,119.122 L86.8799,118.3 L82.7212,118.3 L82.7212,116.068 C82.7212,115.425 82.9665,114.91 83.4571,114.526 C83.9439,114.141 84.5922,113.949 85.4022,113.949 C86.2277,113.949 86.876,114.132 87.3472,114.498 C87.8144,114.864 88.0539,115.373 88.0656,116.024 L88.0656,117.291 L88.6906,117.291 L88.6906,116 L89.8763,116 Z M86.8799,117.291 L86.8799,116.084 C86.8799,115.721 86.7572,115.443 86.5119,115.251 C86.2666,115.059 85.9006,114.963 85.4138,114.963 C84.9777,114.963 84.6214,115.057 84.345,115.247 C84.0685,115.434 83.9244,115.693 83.9127,116.024 L83.9127,117.291 L86.8799,117.291 Z" id="Shape" fill="#F48BA2"></path>
            <path d="M100.795,114.37 C100.795,118.801 94.8141,122.412 87.3976,122.412 C79.9811,122.412 74,118.801 74,114.37 C74,109.939 79.9811,106.329 87.3976,106.329 C94.8141,106.329 100.795,109.939 100.795,114.37 Z" id="Path" fill="#FFFFFF"></path>
            <path d="M87.3976,122.412 C80.5552,122.412 74.9091,119.327 74.0957,115.355 C74.0478,115.683 74,116.011 74,116.34 C74,120.771 79.9811,124.381 87.3976,124.381 C94.8141,124.381 100.795,120.771 100.795,116.34 C100.795,116.011 100.747,115.683 100.699,115.355 C99.886,119.327 94.2399,122.412 87.3976,122.412 Z" id="Path" fill="#FFBFCD"></path>
            <path d="M98.1635,114.337 C98.1635,114.6 98.1635,114.83 98.1157,115.06 C98.0678,115.224 97.8286,115.355 97.5893,115.355 C97.3501,115.322 97.1587,115.158 97.1587,114.994 C97.2065,114.797 97.2065,114.6 97.2065,114.37 C97.2065,114.173 97.3979,114.042 97.685,114.042 C97.9721,114.042 98.1635,114.173 98.1635,114.337 Z M97.6372,112.434 C97.6372,112.565 97.5415,112.696 97.3501,112.729 C97.1108,112.795 96.8237,112.696 96.728,112.532 C96.6324,112.335 96.4888,112.138 96.3453,111.974 C96.2017,111.81 96.2974,111.613 96.5367,111.547 C96.7759,111.449 97.063,111.515 97.1587,111.679 C97.3022,111.876 97.4458,112.105 97.5415,112.302 C97.6372,112.368 97.6372,112.401 97.6372,112.434 Z M97.3022,116.865 C97.3022,116.931 97.3022,116.963 97.2544,117.029 C97.1108,117.226 96.9194,117.423 96.7759,117.62 C96.6324,117.784 96.3453,117.817 96.106,117.718 C95.8668,117.62 95.8189,117.423 95.9625,117.259 C96.106,117.095 96.2974,116.898 96.3931,116.734 C96.5367,116.569 96.8237,116.504 97.0151,116.602 C97.2065,116.635 97.3022,116.766 97.3022,116.865 Z M95.5797,110.267 C95.5797,110.366 95.5318,110.431 95.4361,110.497 C95.2447,110.628 94.9577,110.628 94.7663,110.497 C94.5749,110.366 94.3356,110.202 94.0964,110.07 C93.905,109.972 93.8571,109.742 94.0485,109.611 C94.2399,109.48 94.527,109.447 94.7184,109.578 C94.9577,109.709 95.2447,109.873 95.4361,110.038 C95.5318,110.103 95.5797,110.202 95.5797,110.267 Z M94.9098,118.867 C94.9098,118.966 94.862,119.064 94.7184,119.13 C94.4792,119.261 94.1921,119.425 93.905,119.524 C93.6658,119.622 93.3787,119.589 93.2351,119.425 C93.0916,119.261 93.1394,119.064 93.3787,118.966 C93.6179,118.834 93.8571,118.736 94.0964,118.604 C94.2878,118.473 94.6227,118.506 94.7663,118.637 C94.862,118.736 94.9098,118.801 94.9098,118.867 Z M92.4695,108.823 C92.4695,108.856 92.4695,108.922 92.4217,108.954 C92.326,109.119 92.0389,109.184 91.7997,109.119 C91.5126,109.02 91.2255,108.954 90.9384,108.889 C90.6991,108.823 90.5556,108.659 90.6513,108.462 C90.747,108.298 90.9862,108.199 91.2733,108.265 C91.6083,108.331 91.8954,108.429 92.1824,108.495 C92.3738,108.593 92.4695,108.692 92.4695,108.823 Z M91.6083,120.147 C91.6083,120.278 91.4647,120.41 91.2733,120.443 C90.9862,120.508 90.6513,120.574 90.3164,120.64 C90.0771,120.672 89.79,120.574 89.7422,120.41 C89.6943,120.246 89.8379,120.049 90.0771,120.016 C90.3642,119.95 90.6513,119.917 90.9384,119.852 C91.1776,119.786 91.4647,119.885 91.5604,120.049 C91.6083,120.049 91.6083,120.082 91.6083,120.147 Z M88.7852,108.199 C88.7852,108.232 88.7852,108.232 88.7852,108.199 C88.7852,108.396 88.546,108.528 88.2589,108.528 C87.9718,108.528 87.6847,108.495 87.3976,108.495 C87.1105,108.495 86.9191,108.364 86.9191,108.167 C86.9191,107.97 87.1105,107.838 87.3976,107.838 C87.7325,107.838 88.0196,107.838 88.3546,107.871 C88.5938,107.904 88.7852,108.035 88.7852,108.199 Z M87.8761,120.541 C87.8761,120.738 87.6847,120.869 87.3976,120.869 C87.0627,120.869 86.7277,120.869 86.4406,120.836 C86.2014,120.836 85.9622,120.672 86.01,120.475 C86.01,120.278 86.2492,120.147 86.5363,120.18 C86.8234,120.18 87.1584,120.213 87.4455,120.213 C87.6847,120.213 87.8761,120.377 87.8761,120.541 Z M85.0052,108.429 C85.0052,108.561 84.8616,108.725 84.6224,108.757 C84.3353,108.823 84.0482,108.856 83.7611,108.922 C83.5219,108.987 83.2348,108.889 83.1391,108.725 C83.0434,108.561 83.1869,108.364 83.4262,108.298 C83.7133,108.232 84.0482,108.167 84.3832,108.101 C84.6224,108.068 84.9095,108.167 84.9573,108.331 C85.0052,108.364 85.0052,108.396 85.0052,108.429 Z M84.1439,120.147 C84.1439,120.18 84.1439,120.213 84.0961,120.246 C84.0004,120.41 83.7611,120.508 83.474,120.443 C83.1869,120.377 82.852,120.278 82.5649,120.213 C82.3257,120.147 82.23,119.95 82.3257,119.786 C82.4214,119.622 82.7085,119.556 82.9477,119.622 C83.2348,119.72 83.5219,119.786 83.809,119.852 C84.0482,119.885 84.1439,120.016 84.1439,120.147 Z M81.5601,109.48 C81.5601,109.578 81.4644,109.677 81.3687,109.742 C81.1295,109.873 80.8902,109.972 80.651,110.103 C80.4596,110.235 80.1246,110.202 79.9811,110.07 C79.7897,109.939 79.8376,109.709 80.029,109.611 C80.2682,109.48 80.5553,109.315 80.8424,109.217 C81.0816,109.119 81.3687,109.151 81.5123,109.315 C81.5601,109.348 81.5601,109.414 81.5601,109.48 Z M80.8424,118.9 C80.8424,118.966 80.7945,119.031 80.7467,119.097 C80.6031,119.228 80.2682,119.261 80.0768,119.13 C79.8376,118.998 79.5505,118.834 79.3591,118.67 C79.1677,118.539 79.1677,118.342 79.3591,118.211 C79.5505,118.079 79.8376,118.079 80.029,118.211 C80.2203,118.342 80.4596,118.506 80.6988,118.637 C80.7945,118.703 80.8424,118.801 80.8424,118.9 Z M78.9284,111.318 C78.9284,111.383 78.8806,111.449 78.8327,111.482 C78.6892,111.646 78.4978,111.843 78.4021,112.007 C78.3064,112.171 77.9715,112.237 77.7801,112.138 C77.5408,112.073 77.4451,111.876 77.5887,111.712 C77.7322,111.515 77.9236,111.318 78.0672,111.121 C78.2107,110.957 78.4978,110.924 78.737,111.022 C78.8327,111.088 78.9284,111.219 78.9284,111.318 Z M78.45,116.898 C78.45,117.029 78.3543,117.127 78.2107,117.193 C77.9715,117.292 77.6844,117.226 77.5887,117.062 C77.4451,116.865 77.3016,116.635 77.2059,116.438 C77.1102,116.274 77.2537,116.077 77.493,116.011 C77.7322,115.946 78.0193,116.044 78.115,116.208 C78.2107,116.405 78.3543,116.602 78.4978,116.766 C78.45,116.799 78.45,116.832 78.45,116.898 Z M77.6365,113.747 L77.6365,113.779 C77.5887,113.976 77.5887,114.173 77.5887,114.37 C77.5887,114.567 77.3973,114.699 77.1102,114.699 C76.8231,114.699 76.6317,114.567 76.6317,114.37 C76.6317,114.141 76.6317,113.911 76.6796,113.714 C76.7274,113.55 76.9667,113.418 77.2059,113.418 C77.4451,113.418 77.6365,113.583 77.6365,113.747 Z" id="Shape" fill="#FFBFCD"></path>
            <path d="M87.8761,122.412 L87.8761,124.381 C88.211,124.381 88.4981,124.349 88.8331,124.349 L88.8331,122.379 C88.4981,122.379 88.211,122.412 87.8761,122.412 Z" id="Path" fill="#F48BA2"></path>
            <path d="M85.4836,122.346 L85.4836,124.316 C85.8186,124.349 86.1057,124.349 86.4406,124.381 L86.4406,122.412 C86.1057,122.379 85.8186,122.379 85.4836,122.346 Z" id="Path" fill="#F48BA2"></path>
            <path d="M90.2686,122.248 L90.2686,124.217 C90.6035,124.184 90.8906,124.119 91.2255,124.053 L91.2255,122.084 C90.8906,122.149 90.6035,122.182 90.2686,122.248 Z" id="Path" fill="#F48BA2"></path>
            <path d="M92.6609,121.788 L92.6609,123.758 C92.9958,123.659 93.2829,123.594 93.6179,123.495 L93.6179,121.526 C93.2829,121.591 92.9958,121.69 92.6609,121.788 Z" id="Path" fill="#F48BA2"></path>
            <path d="M83.0913,121.985 L83.0913,123.955 C83.4262,124.02 83.7133,124.086 84.0483,124.119 L84.0483,122.149 C83.7133,122.117 83.4262,122.051 83.0913,121.985 Z" id="Path" fill="#F48BA2"></path>
            <path d="M80.6989,121.329 L80.6989,123.298 C81.0338,123.397 81.3209,123.495 81.6558,123.594 L81.6558,121.624 C81.3209,121.559 81.0338,121.46 80.6989,121.329 Z" id="Path" fill="#F48BA2"></path>
            <path d="M77.8279,120.016 L77.8279,121.985 C78.115,122.182 78.4499,122.346 78.7848,122.51 L78.7848,120.541 C78.4499,120.377 78.115,120.18 77.8279,120.016 Z" id="Path" fill="#F48BA2"></path>
            <path d="M75.4355,117.981 L75.4355,119.95 C75.7226,120.279 76.0576,120.607 76.3925,120.902 L76.3925,118.933 C76.0576,118.637 75.7226,118.342 75.4355,117.981 Z" id="Path" fill="#F48BA2"></path>
            <path d="M95.5319,120.771 L95.5319,122.74 C95.8668,122.576 96.2017,122.412 96.4888,122.248 L96.4888,120.278 C96.2017,120.443 95.8668,120.607 95.5319,120.771 Z" id="Path" fill="#F48BA2"></path>
            <path d="M97.9243,121.329 C98.2593,121.066 98.5942,120.804 98.8813,120.508 L98.8813,118.539 C98.5942,118.834 98.2593,119.097 97.9243,119.359 L97.9243,121.329 Z" id="Path" fill="#F48BA2"></path>
            <path d="M89.8763,113.879 L89.8763,115.169 L91.2255,115.169 L91.2255,116.179 L89.8763,116.179 L89.8763,117 L88.6906,117 L88.6906,116.179 L88.0656,116.179 L88.0656,117 L86.8799,117 L86.8799,116.179 L82.7212,116.179 L82.7212,113.947 C82.7212,113.303 82.9665,112.789 83.4571,112.404 C83.9439,112.02 84.5922,111.827 85.4022,111.827 C86.2277,111.827 86.876,112.01 87.3472,112.376 C87.8144,112.742 88.0539,113.251 88.0656,113.903 L88.0656,115.169 L88.6906,115.169 L88.6906,113.879 L89.8763,113.879 Z M86.8799,115.169 L86.8799,113.963 C86.8799,113.6 86.7572,113.322 86.5119,113.13 C86.2666,112.937 85.9006,112.841 85.4138,112.841 C84.9777,112.841 84.6214,112.936 84.345,113.126 C84.0685,113.312 83.9244,113.572 83.9127,113.903 L83.9127,115.169 L86.8799,115.169 Z" id="Shape" fill="#F48BA2"></path>
            <path d="M100.795,112.163 C100.795,116.594 94.8141,120.205 87.3976,120.205 C79.9811,120.205 74,116.594 74,112.163 C74,107.732 79.9811,104.121 87.3976,104.121 C94.8141,104.121 100.795,107.732 100.795,112.163 Z" id="Path" fill="#FFFFFF"></path>
            <path d="M87.3976,120.205 C80.5552,120.205 74.9091,117.12 74.0957,113.148 C74.0478,113.476 74,113.804 74,114.133 C74,118.564 79.9811,122.174 87.3976,122.174 C94.8141,122.174 100.795,118.564 100.795,114.133 C100.795,113.804 100.747,113.476 100.699,113.148 C99.886,117.12 94.2399,120.205 87.3976,120.205 Z" id="Path" fill="#FFBFCD"></path>
            <path d="M98.1635,112.13 C98.1635,112.393 98.1635,112.623 98.1157,112.853 C98.0678,113.017 97.8286,113.148 97.5893,113.148 C97.3501,113.115 97.1587,112.951 97.1587,112.787 C97.2065,112.59 97.2065,112.393 97.2065,112.163 C97.2065,111.966 97.3979,111.835 97.685,111.835 C97.9721,111.835 98.1635,111.966 98.1635,112.13 Z M97.6372,110.227 C97.6372,110.358 97.5415,110.489 97.3501,110.522 C97.1108,110.588 96.8237,110.489 96.728,110.325 C96.6324,110.128 96.4888,109.931 96.3453,109.767 C96.2017,109.603 96.2974,109.406 96.5367,109.34 C96.7759,109.242 97.063,109.308 97.1587,109.472 C97.3022,109.669 97.4458,109.898 97.5415,110.095 C97.6372,110.161 97.6372,110.194 97.6372,110.227 Z M97.3022,114.658 C97.3022,114.723 97.3022,114.756 97.2544,114.822 C97.1108,115.019 96.9194,115.216 96.7759,115.413 C96.6324,115.577 96.3453,115.61 96.106,115.511 C95.8668,115.413 95.8189,115.216 95.9625,115.052 C96.106,114.888 96.2974,114.691 96.3931,114.527 C96.5367,114.362 96.8237,114.297 97.0151,114.395 C97.2065,114.428 97.3022,114.559 97.3022,114.658 Z M95.5797,108.06 C95.5797,108.159 95.5318,108.224 95.4361,108.29 C95.2447,108.421 94.9577,108.421 94.7663,108.29 C94.5749,108.159 94.3356,107.995 94.0964,107.863 C93.905,107.765 93.8571,107.535 94.0485,107.404 C94.2399,107.273 94.527,107.24 94.7184,107.371 C94.9577,107.502 95.2447,107.666 95.4361,107.831 C95.5318,107.896 95.5797,107.995 95.5797,108.06 Z M94.9098,116.66 C94.9098,116.759 94.862,116.857 94.7184,116.923 C94.4792,117.054 94.1921,117.218 93.905,117.317 C93.6658,117.415 93.3787,117.382 93.2351,117.218 C93.0916,117.054 93.1394,116.857 93.3787,116.759 C93.6179,116.627 93.8571,116.529 94.0964,116.397 C94.2878,116.266 94.6227,116.299 94.7663,116.43 C94.862,116.529 94.9098,116.594 94.9098,116.66 Z M92.4695,106.616 C92.4695,106.649 92.4695,106.715 92.4217,106.747 C92.326,106.912 92.0389,106.977 91.7997,106.912 C91.5126,106.813 91.2255,106.747 90.9384,106.682 C90.6991,106.616 90.5556,106.452 90.6513,106.255 C90.747,106.091 90.9862,105.992 91.2733,106.058 C91.6083,106.124 91.8954,106.222 92.1824,106.288 C92.3738,106.386 92.4695,106.485 92.4695,106.616 Z M91.6083,117.94 C91.6083,118.071 91.4647,118.203 91.2733,118.236 C90.9862,118.301 90.6513,118.367 90.3164,118.433 C90.0771,118.465 89.79,118.367 89.7422,118.203 C89.6943,118.039 89.8379,117.842 90.0771,117.809 C90.3642,117.743 90.6513,117.71 90.9384,117.645 C91.1776,117.579 91.4647,117.678 91.5604,117.842 C91.6083,117.842 91.6083,117.875 91.6083,117.94 Z M88.7852,105.992 C88.7852,106.025 88.7852,106.025 88.7852,105.992 C88.7852,106.189 88.546,106.321 88.2589,106.321 C87.9718,106.321 87.6847,106.288 87.3976,106.288 C87.1105,106.288 86.9191,106.157 86.9191,105.96 C86.9191,105.763 87.1105,105.631 87.3976,105.631 C87.7325,105.631 88.0196,105.631 88.3546,105.664 C88.5938,105.697 88.7852,105.828 88.7852,105.992 Z M87.8761,118.334 C87.8761,118.531 87.6847,118.662 87.3976,118.662 C87.0627,118.662 86.7277,118.662 86.4406,118.629 C86.2014,118.629 85.9622,118.465 86.01,118.268 C86.01,118.071 86.2492,117.94 86.5363,117.973 C86.8234,117.973 87.1584,118.006 87.4455,118.006 C87.6847,118.006 87.8761,118.17 87.8761,118.334 Z M85.0052,106.222 C85.0052,106.354 84.8616,106.518 84.6224,106.55 C84.3353,106.616 84.0482,106.649 83.7611,106.715 C83.5219,106.78 83.2348,106.682 83.1391,106.518 C83.0434,106.354 83.1869,106.157 83.4262,106.091 C83.7133,106.025 84.0482,105.96 84.3832,105.894 C84.6224,105.861 84.9095,105.96 84.9573,106.124 C85.0052,106.157 85.0052,106.189 85.0052,106.222 Z M84.1439,117.94 C84.1439,117.973 84.1439,118.006 84.0961,118.039 C84.0004,118.203 83.7611,118.301 83.474,118.236 C83.1869,118.17 82.852,118.071 82.5649,118.006 C82.3257,117.94 82.23,117.743 82.3257,117.579 C82.4214,117.415 82.7085,117.349 82.9477,117.415 C83.2348,117.513 83.5219,117.579 83.809,117.645 C84.0482,117.678 84.1439,117.809 84.1439,117.94 Z M81.5601,107.273 C81.5601,107.371 81.4644,107.47 81.3687,107.535 C81.1295,107.666 80.8902,107.765 80.651,107.896 C80.4596,108.028 80.1246,107.995 79.9811,107.863 C79.7897,107.732 79.8376,107.502 80.029,107.404 C80.2682,107.273 80.5553,107.108 80.8424,107.01 C81.0816,106.912 81.3687,106.944 81.5123,107.108 C81.5601,107.141 81.5601,107.207 81.5601,107.273 Z M80.8424,116.693 C80.8424,116.759 80.7945,116.824 80.7467,116.89 C80.6031,117.021 80.2682,117.054 80.0768,116.923 C79.8376,116.791 79.5505,116.627 79.3591,116.463 C79.1677,116.332 79.1677,116.135 79.3591,116.004 C79.5505,115.872 79.8376,115.872 80.029,116.004 C80.2203,116.135 80.4596,116.299 80.6988,116.43 C80.7945,116.496 80.8424,116.594 80.8424,116.693 Z M78.9284,109.111 C78.9284,109.176 78.8806,109.242 78.8327,109.275 C78.6892,109.439 78.4978,109.636 78.4021,109.8 C78.3064,109.964 77.9715,110.03 77.7801,109.931 C77.5408,109.866 77.4451,109.669 77.5887,109.505 C77.7322,109.308 77.9236,109.111 78.0672,108.914 C78.2107,108.75 78.4978,108.717 78.737,108.815 C78.8327,108.881 78.9284,109.012 78.9284,109.111 Z M78.45,114.691 C78.45,114.822 78.3543,114.92 78.2107,114.986 C77.9715,115.085 77.6844,115.019 77.5887,114.855 C77.4451,114.658 77.3016,114.428 77.2059,114.231 C77.1102,114.067 77.2537,113.87 77.493,113.804 C77.7322,113.739 78.0193,113.837 78.115,114.001 C78.2107,114.198 78.3543,114.395 78.4978,114.559 C78.45,114.592 78.45,114.625 78.45,114.691 Z M77.6365,111.54 L77.6365,111.572 C77.5887,111.769 77.5887,111.966 77.5887,112.163 C77.5887,112.36 77.3973,112.491 77.1102,112.491 C76.8231,112.491 76.6317,112.36 76.6317,112.163 C76.6317,111.933 76.6317,111.704 76.6796,111.507 C76.7274,111.343 76.9667,111.211 77.2059,111.211 C77.4451,111.211 77.6365,111.375 77.6365,111.54 Z" id="Shape" fill="#FFBFCD"></path>
            <path d="M87.8761,120.205 L87.8761,122.174 C88.211,122.174 88.4981,122.142 88.8331,122.142 L88.8331,120.172 C88.4981,120.172 88.211,120.205 87.8761,120.205 Z" id="Path" fill="#F48BA2"></path>
            <path d="M85.4836,120.139 L85.4836,122.109 C85.8186,122.142 86.1057,122.142 86.4406,122.174 L86.4406,120.205 C86.1057,120.172 85.8186,120.172 85.4836,120.139 Z" id="Path" fill="#F48BA2"></path>
            <path d="M90.2686,120.041 L90.2686,122.01 C90.6035,121.977 90.8906,121.912 91.2255,121.846 L91.2255,119.877 C90.8906,119.942 90.6035,119.975 90.2686,120.041 Z" id="Path" fill="#F48BA2"></path>
            <path d="M92.6609,119.581 L92.6609,121.551 C92.9958,121.452 93.2829,121.387 93.6179,121.288 L93.6179,119.319 C93.2829,119.384 92.9958,119.483 92.6609,119.581 Z" id="Path" fill="#F48BA2"></path>
            <path d="M83.0913,119.778 L83.0913,121.748 C83.4262,121.813 83.7133,121.879 84.0483,121.912 L84.0483,119.942 C83.7133,119.91 83.4262,119.844 83.0913,119.778 Z" id="Path" fill="#F48BA2"></path>
            <path d="M80.6989,119.122 L80.6989,121.091 C81.0338,121.19 81.3209,121.288 81.6558,121.387 L81.6558,119.417 C81.3209,119.352 81.0338,119.253 80.6989,119.122 Z" id="Path" fill="#F48BA2"></path>
            <path d="M77.8279,117.809 L77.8279,119.778 C78.115,119.975 78.4499,120.139 78.7848,120.303 L78.7848,118.334 C78.4499,118.17 78.115,117.973 77.8279,117.809 Z" id="Path" fill="#F48BA2"></path>
            <path d="M75.4355,115.774 L75.4355,117.743 C75.7226,118.071 76.0576,118.4 76.3925,118.695 L76.3925,116.726 C76.0576,116.43 75.7226,116.135 75.4355,115.774 Z" id="Path" fill="#F48BA2"></path>
            <path d="M95.5319,118.564 L95.5319,120.533 C95.8668,120.369 96.2017,120.205 96.4888,120.041 L96.4888,118.071 C96.2017,118.236 95.8668,118.4 95.5319,118.564 Z" id="Path" fill="#F48BA2"></path>
            <path d="M97.9243,119.122 C98.2593,118.859 98.5942,118.597 98.8813,118.301 L98.8813,116.332 C98.5942,116.627 98.2593,116.89 97.9243,117.152 L97.9243,119.122 Z" id="Path" fill="#F48BA2"></path>
            <path d="M89.8763,111.672 L89.8763,112.962 L91.2255,112.962 L91.2255,113.972 L89.8763,113.972 L89.8763,114.793 L88.6906,114.793 L88.6906,113.972 L88.0656,113.972 L88.0656,114.793 L86.8799,114.793 L86.8799,113.972 L82.7212,113.972 L82.7212,111.74 C82.7212,111.096 82.9665,110.582 83.4571,110.197 C83.9439,109.812 84.5922,109.62 85.4022,109.62 C86.2277,109.62 86.876,109.803 87.3472,110.169 C87.8144,110.535 88.0539,111.044 88.0656,111.696 L88.0656,112.962 L88.6906,112.962 L88.6906,111.672 L89.8763,111.672 Z M86.8799,112.962 L86.8799,111.756 C86.8799,111.392 86.7572,111.115 86.5119,110.922 C86.2666,110.73 85.9006,110.634 85.4138,110.634 C84.9777,110.634 84.6214,110.729 84.345,110.918 C84.0685,111.105 83.9244,111.364 83.9127,111.696 L83.9127,112.962 L86.8799,112.962 Z" id="Shape" fill="#F48BA2"></path>
            <path d="M100.795,110.042 C100.795,114.473 94.8141,118.083 87.3976,118.083 C79.9811,118.083 74,114.473 74,110.042 C74,105.611 79.9811,102 87.3976,102 C94.8141,102 100.795,105.611 100.795,110.042 Z" id="Path" fill="#FFDCE4"></path>
            <path d="M87.3976,118.083 C80.5552,118.083 74.9091,114.998 74.0957,111.026 C74.0478,111.355 74,111.683 74,112.011 C74,116.442 79.9811,120.053 87.3976,120.053 C94.8141,120.053 100.795,116.442 100.795,112.011 C100.795,111.683 100.747,111.355 100.699,111.026 C99.886,114.998 94.2399,118.083 87.3976,118.083 Z" id="Path" fill="#FFBFCD"></path>
            <path d="M98.1635,110.009 C98.1635,110.271 98.1635,110.501 98.1157,110.731 C98.0678,110.895 97.8286,111.026 97.5893,111.026 C97.3501,110.994 97.1587,110.829 97.1587,110.665 C97.2065,110.468 97.2065,110.271 97.2065,110.042 C97.2065,109.845 97.3979,109.713 97.685,109.713 C97.9721,109.713 98.1635,109.845 98.1635,110.009 Z M97.6372,108.105 C97.6372,108.236 97.5415,108.368 97.3501,108.401 C97.1108,108.466 96.8237,108.368 96.728,108.204 C96.6324,108.007 96.4888,107.81 96.3453,107.646 C96.2017,107.481 96.2974,107.285 96.5367,107.219 C96.7759,107.12 97.063,107.186 97.1587,107.35 C97.3022,107.547 97.4458,107.777 97.5415,107.974 C97.6372,108.039 97.6372,108.072 97.6372,108.105 Z M97.3022,112.536 C97.3022,112.602 97.3022,112.635 97.2544,112.7 C97.1108,112.897 96.9194,113.094 96.7759,113.291 C96.6324,113.455 96.3453,113.488 96.106,113.39 C95.8668,113.291 95.8189,113.094 95.9625,112.93 C96.106,112.766 96.2974,112.569 96.3931,112.405 C96.5367,112.241 96.8237,112.175 97.0151,112.274 C97.2065,112.307 97.3022,112.438 97.3022,112.536 Z M95.5797,105.939 C95.5797,106.037 95.5318,106.103 95.4361,106.169 C95.2447,106.3 94.9577,106.3 94.7663,106.169 C94.5749,106.037 94.3356,105.873 94.0964,105.742 C93.905,105.643 93.8571,105.414 94.0485,105.282 C94.2399,105.151 94.527,105.118 94.7184,105.25 C94.9577,105.381 95.2447,105.545 95.4361,105.709 C95.5318,105.775 95.5797,105.873 95.5797,105.939 Z M94.9098,114.539 C94.9098,114.637 94.862,114.735 94.7184,114.801 C94.4792,114.932 94.1921,115.097 93.905,115.195 C93.6658,115.293 93.3787,115.261 93.2351,115.097 C93.0916,114.932 93.1394,114.735 93.3787,114.637 C93.6179,114.506 93.8571,114.407 94.0964,114.276 C94.2878,114.145 94.6227,114.177 94.7663,114.309 C94.862,114.407 94.9098,114.473 94.9098,114.539 Z M92.4695,104.495 C92.4695,104.527 92.4695,104.593 92.4217,104.626 C92.326,104.79 92.0389,104.856 91.7997,104.79 C91.5126,104.692 91.2255,104.626 90.9384,104.56 C90.6991,104.495 90.5556,104.33 90.6513,104.134 C90.747,103.969 90.9862,103.871 91.2733,103.937 C91.6083,104.002 91.8954,104.101 92.1824,104.166 C92.3738,104.265 92.4695,104.363 92.4695,104.495 Z M91.6083,115.819 C91.6083,115.95 91.4647,116.081 91.2733,116.114 C90.9862,116.18 90.6513,116.245 90.3164,116.311 C90.0771,116.344 89.79,116.245 89.7422,116.081 C89.6943,115.917 89.8379,115.72 90.0771,115.687 C90.3642,115.622 90.6513,115.589 90.9384,115.523 C91.1776,115.458 91.4647,115.556 91.5604,115.72 C91.6083,115.72 91.6083,115.753 91.6083,115.819 Z M88.7852,103.871 C88.7852,103.904 88.7852,103.904 88.7852,103.871 C88.7852,104.068 88.546,104.199 88.2589,104.199 C87.9718,104.199 87.6847,104.166 87.3976,104.166 C87.1105,104.166 86.9191,104.035 86.9191,103.838 C86.9191,103.641 87.1105,103.51 87.3976,103.51 C87.7325,103.51 88.0196,103.51 88.3546,103.543 C88.5938,103.576 88.7852,103.707 88.7852,103.871 Z M87.8761,116.213 C87.8761,116.409 87.6847,116.541 87.3976,116.541 C87.0627,116.541 86.7277,116.541 86.4406,116.508 C86.2014,116.508 85.9622,116.344 86.01,116.147 C86.01,115.95 86.2492,115.819 86.5363,115.851 C86.8234,115.851 87.1584,115.884 87.4455,115.884 C87.6847,115.884 87.8761,116.048 87.8761,116.213 Z M85.0052,104.101 C85.0052,104.232 84.8616,104.396 84.6224,104.429 C84.3353,104.495 84.0482,104.527 83.7611,104.593 C83.5219,104.659 83.2348,104.56 83.1391,104.396 C83.0434,104.232 83.1869,104.035 83.4262,103.969 C83.7133,103.904 84.0482,103.838 84.3832,103.772 C84.6224,103.74 84.9095,103.838 84.9573,104.002 C85.0052,104.035 85.0052,104.068 85.0052,104.101 Z M84.1439,115.819 C84.1439,115.851 84.1439,115.884 84.0961,115.917 C84.0004,116.081 83.7611,116.18 83.474,116.114 C83.1869,116.048 82.852,115.95 82.5649,115.884 C82.3257,115.819 82.23,115.622 82.3257,115.458 C82.4214,115.293 82.7085,115.228 82.9477,115.293 C83.2348,115.392 83.5219,115.458 83.809,115.523 C84.0482,115.556 84.1439,115.687 84.1439,115.819 Z M81.5601,105.151 C81.5601,105.25 81.4644,105.348 81.3687,105.414 C81.1295,105.545 80.8902,105.643 80.651,105.775 C80.4596,105.906 80.1246,105.873 79.9811,105.742 C79.7897,105.611 79.8376,105.381 80.029,105.282 C80.2682,105.151 80.5553,104.987 80.8424,104.888 C81.0816,104.79 81.3687,104.823 81.5123,104.987 C81.5601,105.02 81.5601,105.085 81.5601,105.151 Z M80.8424,114.571 C80.8424,114.637 80.7945,114.703 80.7467,114.768 C80.6031,114.9 80.2682,114.932 80.0768,114.801 C79.8376,114.67 79.5505,114.506 79.3591,114.342 C79.1677,114.21 79.1677,114.013 79.3591,113.882 C79.5505,113.751 79.8376,113.751 80.029,113.882 C80.2203,114.013 80.4596,114.177 80.6988,114.309 C80.7945,114.374 80.8424,114.473 80.8424,114.571 Z M78.9284,106.989 C78.9284,107.055 78.8806,107.12 78.8327,107.153 C78.6892,107.317 78.4978,107.514 78.4021,107.678 C78.3064,107.843 77.9715,107.908 77.7801,107.81 C77.5408,107.744 77.4451,107.547 77.5887,107.383 C77.7322,107.186 77.9236,106.989 78.0672,106.792 C78.2107,106.628 78.4978,106.595 78.737,106.694 C78.8327,106.759 78.9284,106.891 78.9284,106.989 Z M78.45,112.569 C78.45,112.7 78.3543,112.799 78.2107,112.865 C77.9715,112.963 77.6844,112.897 77.5887,112.733 C77.4451,112.536 77.3016,112.307 77.2059,112.11 C77.1102,111.945 77.2537,111.749 77.493,111.683 C77.7322,111.617 78.0193,111.716 78.115,111.88 C78.2107,112.077 78.3543,112.274 78.4978,112.438 C78.45,112.471 78.45,112.503 78.45,112.569 Z M77.6365,109.418 L77.6365,109.451 C77.5887,109.648 77.5887,109.845 77.5887,110.042 C77.5887,110.239 77.3973,110.37 77.1102,110.37 C76.8231,110.37 76.6317,110.239 76.6317,110.042 C76.6317,109.812 76.6317,109.582 76.6796,109.385 C76.7274,109.221 76.9667,109.09 77.2059,109.09 C77.4451,109.09 77.6365,109.254 77.6365,109.418 Z" id="Shape" fill="#FFBFCD"></path>
            <path d="M87.8761,118.083 L87.8761,120.053 C88.211,120.053 88.4981,120.02 88.8331,120.02 L88.8331,118.051 C88.4981,118.051 88.211,118.083 87.8761,118.083 Z" id="Path" fill="#F48BA2"></path>
            <path d="M85.4836,118.018 L85.4836,119.987 C85.8186,120.02 86.1057,120.02 86.4406,120.053 L86.4406,118.083 C86.1057,118.051 85.8186,118.051 85.4836,118.018 Z" id="Path" fill="#F48BA2"></path>
            <path d="M90.2686,117.919 L90.2686,119.889 C90.6035,119.856 90.8906,119.79 91.2255,119.725 L91.2255,117.755 C90.8906,117.821 90.6035,117.854 90.2686,117.919 Z" id="Path" fill="#F48BA2"></path>
            <path d="M92.6609,117.46 L92.6609,119.429 C92.9958,119.331 93.2829,119.265 93.6179,119.167 L93.6179,117.197 C93.2829,117.263 92.9958,117.361 92.6609,117.46 Z" id="Path" fill="#F48BA2"></path>
            <path d="M83.0913,117.657 L83.0913,119.626 C83.4262,119.692 83.7133,119.757 84.0483,119.79 L84.0483,117.821 C83.7133,117.788 83.4262,117.722 83.0913,117.657 Z" id="Path" fill="#F48BA2"></path>
            <path d="M80.6989,117 L80.6989,118.97 C81.0338,119.068 81.3209,119.167 81.6558,119.265 L81.6558,117.296 C81.3209,117.23 81.0338,117.132 80.6989,117 Z" id="Path" fill="#F48BA2"></path>
            <path d="M77.8279,115.687 L77.8279,117.657 C78.115,117.854 78.4499,118.018 78.7848,118.182 L78.7848,116.212 C78.4499,116.048 78.115,115.851 77.8279,115.687 Z" id="Path" fill="#F48BA2"></path>
            <path d="M75.4355,113.652 L75.4355,115.622 C75.7226,115.95 76.0576,116.278 76.3925,116.574 L76.3925,114.604 C76.0576,114.309 75.7226,114.013 75.4355,113.652 Z" id="Path" fill="#F48BA2"></path>
            <path d="M95.5319,116.442 L95.5319,118.412 C95.8668,118.248 96.2017,118.084 96.4888,117.919 L96.4888,115.95 C96.2017,116.114 95.8668,116.278 95.5319,116.442 Z" id="Path" fill="#F48BA2"></path>
            <path d="M97.9243,117 C98.2593,116.738 98.5942,116.475 98.8813,116.18 L98.8813,114.21 C98.5942,114.506 98.2593,114.768 97.9243,115.031 L97.9243,117 Z" id="Path" fill="#F48BA2"></path>
            <path d="M89.8763,109.55 L89.8763,110.84 L91.2255,110.84 L91.2255,111.85 L89.8763,111.85 L89.8763,112.671 L88.6906,112.671 L88.6906,111.85 L88.0656,111.85 L88.0656,112.671 L86.8799,112.671 L86.8799,111.85 L82.7212,111.85 L82.7212,109.618 C82.7212,108.974 82.9665,108.46 83.4571,108.076 C83.9439,107.691 84.5922,107.499 85.4022,107.499 C86.2277,107.499 86.876,107.682 87.3472,108.048 C87.8144,108.414 88.0539,108.922 88.0656,109.574 L88.0656,110.84 L88.6906,110.84 L88.6906,109.55 L89.8763,109.55 Z M86.8799,110.84 L86.8799,109.634 C86.8799,109.271 86.7572,108.993 86.5119,108.801 C86.2666,108.609 85.9006,108.512 85.4138,108.512 C84.9777,108.512 84.6214,108.607 84.345,108.797 C84.0685,108.984 83.9244,109.243 83.9127,109.574 L83.9127,110.84 L86.8799,110.84 Z" id="Shape" fill="#F48BA2"></path>
            <path d="M129.02,114.23 C129.02,118.661 123.039,122.271 115.622,122.271 C108.206,122.271 102.225,118.661 102.225,114.23 C102.225,109.798 108.206,106.188 115.622,106.188 C123.039,106.188 129.02,109.798 129.02,114.23 Z" id="Path" fill="#FFFFFF"></path>
            <path d="M115.622,122.271 C108.78,122.271 103.134,119.186 102.321,115.214 C102.273,115.543 102.225,115.871 102.225,116.199 C102.225,120.63 108.206,124.241 115.622,124.241 C123.039,124.241 129.02,120.63 129.02,116.199 C129.02,115.871 128.972,115.543 128.924,115.214 C128.111,119.186 122.465,122.271 115.622,122.271 Z" id="Path" fill="#FFBFCD"></path>
            <path d="M126.388,114.197 C126.388,114.459 126.388,114.689 126.341,114.919 C126.293,115.083 126.053,115.214 125.814,115.214 C125.575,115.181 125.384,115.017 125.384,114.853 C125.431,114.656 125.431,114.459 125.431,114.23 C125.431,114.033 125.623,113.901 125.91,113.901 C126.197,113.901 126.388,114.033 126.388,114.197 Z M125.862,112.293 C125.862,112.424 125.766,112.556 125.575,112.588 C125.336,112.654 125.049,112.556 124.953,112.392 C124.857,112.195 124.714,111.998 124.57,111.834 C124.427,111.669 124.522,111.472 124.762,111.407 C125.001,111.308 125.288,111.374 125.384,111.538 C125.527,111.735 125.671,111.965 125.766,112.162 C125.862,112.227 125.862,112.26 125.862,112.293 Z M125.527,116.724 C125.527,116.79 125.527,116.823 125.479,116.888 C125.336,117.085 125.144,117.282 125.001,117.479 C124.857,117.643 124.57,117.676 124.331,117.578 C124.092,117.479 124.044,117.282 124.187,117.118 C124.331,116.954 124.522,116.757 124.618,116.593 C124.762,116.429 125.049,116.363 125.24,116.462 C125.431,116.494 125.527,116.626 125.527,116.724 Z M123.805,110.127 C123.805,110.225 123.757,110.291 123.661,110.356 C123.47,110.488 123.183,110.488 122.991,110.356 C122.8,110.225 122.56,110.061 122.321,109.93 C122.13,109.831 122.082,109.602 122.273,109.47 C122.465,109.339 122.752,109.306 122.943,109.437 C123.183,109.569 123.47,109.733 123.661,109.897 C123.757,109.963 123.805,110.061 123.805,110.127 Z M123.135,118.726 C123.135,118.825 123.087,118.923 122.943,118.989 C122.704,119.12 122.417,119.284 122.13,119.383 C121.891,119.481 121.604,119.449 121.46,119.284 C121.316,119.12 121.364,118.923 121.604,118.825 C121.843,118.694 122.082,118.595 122.321,118.464 C122.513,118.333 122.848,118.365 122.991,118.497 C123.087,118.595 123.135,118.661 123.135,118.726 Z M120.694,108.682 C120.694,108.715 120.694,108.781 120.647,108.814 C120.551,108.978 120.264,109.044 120.025,108.978 C119.737,108.879 119.45,108.814 119.163,108.748 C118.924,108.682 118.78,108.518 118.876,108.321 C118.972,108.157 119.211,108.059 119.498,108.124 C119.833,108.19 120.12,108.289 120.407,108.354 C120.599,108.453 120.694,108.551 120.694,108.682 Z M119.833,120.007 C119.833,120.138 119.69,120.269 119.498,120.302 C119.211,120.368 118.876,120.433 118.541,120.499 C118.302,120.532 118.015,120.433 117.967,120.269 C117.919,120.105 118.063,119.908 118.302,119.875 C118.589,119.81 118.876,119.777 119.163,119.711 C119.402,119.645 119.69,119.744 119.785,119.908 C119.833,119.908 119.833,119.941 119.833,120.007 Z M117.01,108.059 C117.01,108.092 117.01,108.092 117.01,108.059 C117.01,108.256 116.771,108.387 116.484,108.387 C116.197,108.387 115.91,108.354 115.622,108.354 C115.335,108.354 115.144,108.223 115.144,108.026 C115.144,107.829 115.335,107.698 115.622,107.698 C115.957,107.698 116.244,107.698 116.579,107.731 C116.819,107.763 117.01,107.895 117.01,108.059 Z M116.101,120.4 C116.101,120.597 115.91,120.729 115.622,120.729 C115.288,120.729 114.953,120.729 114.665,120.696 C114.426,120.696 114.187,120.532 114.235,120.335 C114.235,120.138 114.474,120.007 114.761,120.039 C115.048,120.039 115.383,120.072 115.67,120.072 C115.91,120.072 116.101,120.236 116.101,120.4 Z M113.23,108.289 C113.23,108.42 113.086,108.584 112.847,108.617 C112.56,108.682 112.273,108.715 111.986,108.781 C111.747,108.847 111.46,108.748 111.364,108.584 C111.268,108.42 111.412,108.223 111.651,108.157 C111.938,108.092 112.273,108.026 112.608,107.96 C112.847,107.928 113.134,108.026 113.182,108.19 C113.23,108.223 113.23,108.256 113.23,108.289 Z M112.369,120.007 C112.369,120.039 112.369,120.072 112.321,120.105 C112.225,120.269 111.986,120.368 111.699,120.302 C111.412,120.236 111.077,120.138 110.79,120.072 C110.551,120.007 110.455,119.81 110.551,119.645 C110.646,119.481 110.933,119.416 111.173,119.481 C111.46,119.58 111.747,119.645 112.034,119.711 C112.273,119.744 112.369,119.875 112.369,120.007 Z M109.785,109.339 C109.785,109.437 109.689,109.536 109.594,109.602 C109.354,109.733 109.115,109.831 108.876,109.963 C108.684,110.094 108.35,110.061 108.206,109.93 C108.015,109.798 108.062,109.569 108.254,109.47 C108.493,109.339 108.78,109.175 109.067,109.076 C109.306,108.978 109.594,109.011 109.737,109.175 C109.785,109.208 109.785,109.273 109.785,109.339 Z M109.067,118.759 C109.067,118.825 109.019,118.891 108.972,118.956 C108.828,119.087 108.493,119.12 108.302,118.989 C108.062,118.858 107.775,118.694 107.584,118.529 C107.393,118.398 107.393,118.201 107.584,118.07 C107.775,117.939 108.062,117.939 108.254,118.07 C108.445,118.201 108.684,118.365 108.924,118.497 C109.019,118.562 109.067,118.661 109.067,118.759 Z M107.153,111.177 C107.153,111.243 107.105,111.308 107.058,111.341 C106.914,111.505 106.723,111.702 106.627,111.866 C106.531,112.03 106.196,112.096 106.005,111.998 C105.766,111.932 105.67,111.735 105.814,111.571 C105.957,111.374 106.148,111.177 106.292,110.98 C106.436,110.816 106.723,110.783 106.962,110.882 C107.058,110.947 107.153,111.079 107.153,111.177 Z M106.675,116.757 C106.675,116.888 106.579,116.987 106.436,117.052 C106.196,117.151 105.909,117.085 105.814,116.921 C105.67,116.724 105.526,116.494 105.431,116.297 C105.335,116.133 105.479,115.936 105.718,115.871 C105.957,115.805 106.244,115.904 106.34,116.068 C106.436,116.265 106.579,116.462 106.723,116.626 C106.675,116.659 106.675,116.691 106.675,116.757 Z M105.861,113.606 L105.861,113.639 C105.814,113.836 105.814,114.033 105.814,114.23 C105.814,114.427 105.622,114.558 105.335,114.558 C105.048,114.558 104.857,114.427 104.857,114.23 C104.857,114 104.857,113.77 104.904,113.573 C104.952,113.409 105.192,113.278 105.431,113.278 C105.67,113.278 105.861,113.442 105.861,113.606 Z" id="Shape" fill="#FFBFCD"></path>
            <path d="M116.101,122.271 L116.101,124.241 C116.436,124.241 116.723,124.208 117.058,124.208 L117.058,122.238 C116.723,122.238 116.436,122.271 116.101,122.271 Z" id="Path" fill="#F48BA2"></path>
            <path d="M113.708,122.206 L113.708,124.175 C114.043,124.208 114.331,124.208 114.665,124.241 L114.665,122.271 C114.331,122.238 114.043,122.238 113.708,122.206 Z" id="Path" fill="#F48BA2"></path>
            <path d="M118.493,122.107 L118.493,124.077 C118.828,124.044 119.115,123.978 119.45,123.913 L119.45,121.943 C119.115,122.009 118.828,122.042 118.493,122.107 Z" id="Path" fill="#F48BA2"></path>
            <path d="M120.886,121.648 L120.886,123.617 C121.221,123.519 121.508,123.453 121.843,123.354 L121.843,121.385 C121.508,121.451 121.221,121.549 120.886,121.648 Z" id="Path" fill="#F48BA2"></path>
            <path d="M111.316,121.845 L111.316,123.814 C111.651,123.88 111.938,123.945 112.273,123.978 L112.273,122.009 C111.938,121.976 111.651,121.91 111.316,121.845 Z" id="Path" fill="#F48BA2"></path>
            <path d="M108.924,121.188 L108.924,123.158 C109.259,123.256 109.546,123.355 109.881,123.453 L109.881,121.484 C109.546,121.418 109.259,121.319 108.924,121.188 Z" id="Path" fill="#F48BA2"></path>
            <path d="M106.053,119.875 L106.053,121.845 C106.34,122.041 106.675,122.206 107.01,122.37 L107.01,120.4 C106.675,120.236 106.34,120.039 106.053,119.875 Z" id="Path" fill="#F48BA2"></path>
            <path d="M103.66,117.84 L103.66,119.809 C103.947,120.138 104.282,120.466 104.617,120.761 L104.617,118.792 C104.282,118.497 103.947,118.201 103.66,117.84 Z" id="Path" fill="#F48BA2"></path>
            <path d="M123.757,120.63 L123.757,122.6 C124.092,122.435 124.427,122.271 124.714,122.107 L124.714,120.138 C124.427,120.302 124.092,120.466 123.757,120.63 Z" id="Path" fill="#F48BA2"></path>
            <path d="M126.149,121.188 C126.484,120.926 126.819,120.663 127.106,120.368 L127.106,118.398 C126.819,118.694 126.484,118.956 126.149,119.219 L126.149,121.188 Z" id="Path" fill="#F48BA2"></path>
            <path d="M118.101,113.738 L118.101,115.028 L119.45,115.028 L119.45,116.038 L118.101,116.038 L118.101,116.859 L116.915,116.859 L116.915,116.038 L116.29,116.038 L116.29,116.859 L115.105,116.859 L115.105,116.038 L110.946,116.038 L110.946,113.806 C110.946,113.162 111.191,112.648 111.682,112.263 C112.169,111.879 112.817,111.687 113.627,111.687 C114.453,111.687 115.101,111.87 115.572,112.235 C116.039,112.601 116.279,113.11 116.29,113.762 L116.29,115.028 L116.915,115.028 L116.915,113.738 L118.101,113.738 Z M115.105,115.028 L115.105,113.822 C115.105,113.459 114.982,113.181 114.737,112.989 C114.491,112.796 114.125,112.7 113.639,112.7 C113.203,112.7 112.846,112.795 112.57,112.985 C112.293,113.172 112.149,113.431 112.138,113.762 L112.138,115.028 L115.105,115.028 Z" id="Shape" fill="#F48BA2"></path>
            <path d="M129.02,112.108 C129.02,116.539 123.039,120.15 115.622,120.15 C108.206,120.15 102.225,116.539 102.225,112.108 C102.225,107.677 108.206,104.066 115.622,104.066 C123.039,104.066 129.02,107.677 129.02,112.108 Z" id="Path" fill="#FFDCE4"></path>
            <path d="M115.622,120.15 C108.78,120.15 103.134,117.064 102.321,113.093 C102.273,113.421 102.225,113.749 102.225,114.077 C102.225,118.509 108.206,122.119 115.622,122.119 C123.039,122.119 129.02,118.509 129.02,114.077 C129.02,113.749 128.972,113.421 128.924,113.093 C128.111,117.064 122.465,120.15 115.622,120.15 Z" id="Path" fill="#FFBFCD"></path>
            <path d="M126.388,112.075 C126.388,112.338 126.388,112.568 126.341,112.797 C126.293,112.962 126.053,113.093 125.814,113.093 C125.575,113.06 125.384,112.896 125.384,112.732 C125.431,112.535 125.431,112.338 125.431,112.108 C125.431,111.911 125.623,111.78 125.91,111.78 C126.197,111.78 126.388,111.911 126.388,112.075 Z M125.862,110.172 C125.862,110.303 125.766,110.434 125.575,110.467 C125.336,110.533 125.049,110.434 124.953,110.27 C124.857,110.073 124.714,109.876 124.57,109.712 C124.427,109.548 124.522,109.351 124.762,109.285 C125.001,109.187 125.288,109.252 125.384,109.417 C125.527,109.614 125.671,109.843 125.766,110.04 C125.862,110.106 125.862,110.139 125.862,110.172 Z M125.527,114.603 C125.527,114.668 125.527,114.701 125.479,114.767 C125.336,114.964 125.144,115.161 125.001,115.358 C124.857,115.522 124.57,115.555 124.331,115.456 C124.092,115.358 124.044,115.161 124.187,114.997 C124.331,114.832 124.522,114.636 124.618,114.471 C124.762,114.307 125.049,114.242 125.24,114.34 C125.431,114.373 125.527,114.504 125.527,114.603 Z M123.805,108.005 C123.805,108.104 123.757,108.169 123.661,108.235 C123.47,108.366 123.183,108.366 122.991,108.235 C122.8,108.104 122.56,107.94 122.321,107.808 C122.13,107.71 122.082,107.48 122.273,107.349 C122.465,107.217 122.752,107.185 122.943,107.316 C123.183,107.447 123.47,107.611 123.661,107.775 C123.757,107.841 123.805,107.94 123.805,108.005 Z M123.135,116.605 C123.135,116.703 123.087,116.802 122.943,116.867 C122.704,116.999 122.417,117.163 122.13,117.261 C121.891,117.36 121.604,117.327 121.46,117.163 C121.316,116.999 121.364,116.802 121.604,116.703 C121.843,116.572 122.082,116.474 122.321,116.342 C122.513,116.211 122.848,116.244 122.991,116.375 C123.087,116.474 123.135,116.539 123.135,116.605 Z M120.694,106.561 C120.694,106.594 120.694,106.659 120.647,106.692 C120.551,106.856 120.264,106.922 120.025,106.856 C119.737,106.758 119.45,106.692 119.163,106.627 C118.924,106.561 118.78,106.397 118.876,106.2 C118.972,106.036 119.211,105.937 119.498,106.003 C119.833,106.069 120.12,106.167 120.407,106.233 C120.599,106.331 120.694,106.43 120.694,106.561 Z M119.833,117.885 C119.833,118.016 119.69,118.148 119.498,118.18 C119.211,118.246 118.876,118.312 118.541,118.377 C118.302,118.41 118.015,118.312 117.967,118.148 C117.919,117.983 118.063,117.787 118.302,117.754 C118.589,117.688 118.876,117.655 119.163,117.59 C119.402,117.524 119.69,117.622 119.785,117.787 C119.833,117.787 119.833,117.819 119.833,117.885 Z M117.01,105.937 C117.01,105.97 117.01,105.97 117.01,105.937 C117.01,106.134 116.771,106.266 116.484,106.266 C116.197,106.266 115.91,106.233 115.622,106.233 C115.335,106.233 115.144,106.101 115.144,105.904 C115.144,105.708 115.335,105.576 115.622,105.576 C115.957,105.576 116.244,105.576 116.579,105.609 C116.819,105.642 117.01,105.773 117.01,105.937 Z M116.101,118.279 C116.101,118.476 115.91,118.607 115.622,118.607 C115.288,118.607 114.953,118.607 114.665,118.574 C114.426,118.574 114.187,118.41 114.235,118.213 C114.235,118.016 114.474,117.885 114.761,117.918 C115.048,117.918 115.383,117.951 115.67,117.951 C115.91,117.951 116.101,118.115 116.101,118.279 Z M113.23,106.167 C113.23,106.298 113.086,106.462 112.847,106.495 C112.56,106.561 112.273,106.594 111.986,106.659 C111.747,106.725 111.46,106.627 111.364,106.462 C111.268,106.298 111.412,106.101 111.651,106.036 C111.938,105.97 112.273,105.904 112.608,105.839 C112.847,105.806 113.134,105.904 113.182,106.069 C113.23,106.101 113.23,106.134 113.23,106.167 Z M112.369,117.885 C112.369,117.918 112.369,117.951 112.321,117.983 C112.225,118.148 111.986,118.246 111.699,118.18 C111.412,118.115 111.077,118.016 110.79,117.951 C110.551,117.885 110.455,117.688 110.551,117.524 C110.646,117.36 110.933,117.294 111.173,117.36 C111.46,117.458 111.747,117.524 112.034,117.59 C112.273,117.622 112.369,117.754 112.369,117.885 Z M109.785,107.217 C109.785,107.316 109.689,107.414 109.594,107.48 C109.354,107.611 109.115,107.71 108.876,107.841 C108.684,107.972 108.35,107.94 108.206,107.808 C108.015,107.677 108.062,107.447 108.254,107.349 C108.493,107.217 108.78,107.053 109.067,106.955 C109.306,106.856 109.594,106.889 109.737,107.053 C109.785,107.086 109.785,107.152 109.785,107.217 Z M109.067,116.638 C109.067,116.703 109.019,116.769 108.972,116.835 C108.828,116.966 108.493,116.999 108.302,116.867 C108.062,116.736 107.775,116.572 107.584,116.408 C107.393,116.277 107.393,116.08 107.584,115.948 C107.775,115.817 108.062,115.817 108.254,115.948 C108.445,116.08 108.684,116.244 108.924,116.375 C109.019,116.441 109.067,116.539 109.067,116.638 Z M107.153,109.056 C107.153,109.121 107.105,109.187 107.058,109.22 C106.914,109.384 106.723,109.581 106.627,109.745 C106.531,109.909 106.196,109.975 106.005,109.876 C105.766,109.81 105.67,109.614 105.814,109.449 C105.957,109.252 106.148,109.056 106.292,108.859 C106.436,108.694 106.723,108.662 106.962,108.76 C107.058,108.826 107.153,108.957 107.153,109.056 Z M106.675,114.636 C106.675,114.767 106.579,114.865 106.436,114.931 C106.196,115.029 105.909,114.964 105.814,114.8 C105.67,114.603 105.526,114.373 105.431,114.176 C105.335,114.012 105.479,113.815 105.718,113.749 C105.957,113.684 106.244,113.782 106.34,113.946 C106.436,114.143 106.579,114.34 106.723,114.504 C106.675,114.537 106.675,114.57 106.675,114.636 Z M105.861,111.484 L105.861,111.517 C105.814,111.714 105.814,111.911 105.814,112.108 C105.814,112.305 105.622,112.436 105.335,112.436 C105.048,112.436 104.857,112.305 104.857,112.108 C104.857,111.878 104.857,111.649 104.904,111.452 C104.952,111.288 105.192,111.156 105.431,111.156 C105.67,111.156 105.861,111.32 105.861,111.484 Z" id="Shape" fill="#FFBFCD"></path>
            <path d="M116.101,120.15 L116.101,122.119 C116.436,122.119 116.723,122.086 117.058,122.086 L117.058,120.117 C116.723,120.117 116.436,120.15 116.101,120.15 Z" id="Path" fill="#F48BA2"></path>
            <path d="M113.708,120.084 L113.708,122.054 C114.043,122.086 114.331,122.086 114.665,122.119 L114.665,120.15 C114.331,120.117 114.043,120.117 113.708,120.084 Z" id="Path" fill="#F48BA2"></path>
            <path d="M118.493,119.986 L118.493,121.955 C118.828,121.922 119.115,121.857 119.45,121.791 L119.45,119.822 C119.115,119.887 118.828,119.92 118.493,119.986 Z" id="Path" fill="#F48BA2"></path>
            <path d="M120.886,119.526 L120.886,121.496 C121.221,121.397 121.508,121.332 121.843,121.233 L121.843,119.264 C121.508,119.329 121.221,119.428 120.886,119.526 Z" id="Path" fill="#F48BA2"></path>
            <path d="M111.316,119.723 L111.316,121.693 C111.651,121.758 111.938,121.824 112.273,121.857 L112.273,119.887 C111.938,119.855 111.651,119.789 111.316,119.723 Z" id="Path" fill="#F48BA2"></path>
            <path d="M108.924,119.067 L108.924,121.036 C109.259,121.135 109.546,121.233 109.881,121.331 L109.881,119.362 C109.546,119.296 109.259,119.198 108.924,119.067 Z" id="Path" fill="#F48BA2"></path>
            <path d="M106.053,117.754 L106.053,119.723 C106.34,119.92 106.675,120.084 107.01,120.248 L107.01,118.279 C106.675,118.115 106.34,117.918 106.053,117.754 Z" id="Path" fill="#F48BA2"></path>
            <path d="M103.66,115.719 L103.66,117.688 C103.947,118.016 104.282,118.345 104.617,118.64 L104.617,116.671 C104.282,116.375 103.947,116.08 103.66,115.719 Z" id="Path" fill="#F48BA2"></path>
            <path d="M123.757,118.509 L123.757,120.478 C124.092,120.314 124.427,120.15 124.714,119.986 L124.714,118.016 C124.427,118.181 124.092,118.345 123.757,118.509 Z" id="Path" fill="#F48BA2"></path>
            <path d="M126.149,119.067 C126.484,118.804 126.819,118.541 127.106,118.246 L127.106,116.277 C126.819,116.572 126.484,116.835 126.149,117.097 L126.149,119.067 Z" id="Path" fill="#F48BA2"></path>
            <path d="M118.101,111.617 L118.101,112.907 L119.45,112.907 L119.45,113.916 L118.101,113.916 L118.101,114.738 L116.915,114.738 L116.915,113.916 L116.29,113.916 L116.29,114.738 L115.105,114.738 L115.105,113.916 L110.946,113.916 L110.946,111.685 C110.946,111.041 111.191,110.527 111.682,110.142 C112.169,109.757 112.817,109.565 113.627,109.565 C114.453,109.565 115.101,109.748 115.572,110.114 C116.039,110.48 116.279,110.989 116.29,111.641 L116.29,112.907 L116.915,112.907 L116.915,111.617 L118.101,111.617 Z M115.105,112.907 L115.105,111.701 C115.105,111.337 114.982,111.06 114.737,110.867 C114.491,110.675 114.125,110.579 113.639,110.579 C113.203,110.579 112.846,110.674 112.57,110.863 C112.293,111.05 112.149,111.309 112.138,111.641 L112.138,112.907 L115.105,112.907 Z" id="Shape" fill="#F48BA2"></path>
        </g>
    </g>
</svg>