<?xml version="1.0" encoding="UTF-8"?>
<svg width="200px" height="200px" viewBox="0 0 200 200" version="1.1" xmlns="http://www.w3.org/2000/svg" xmlns:xlink="http://www.w3.org/1999/xlink">
    <title>Group 7</title>
    <g id="Page-1" stroke="none" stroke-width="1" fill="none" fill-rule="evenodd">
        <g id="Group-7">
            <path d="M200,100 C200,155.228 155.228,200 100,200 C44.7715,200 0,155.228 0,100 C0,44.7715 44.7715,0 100,0 C155.228,0 200,44.7715 200,100 Z" id="Path" fill="#FFF6F8" fill-rule="nonzero"></path>
            <polygon id="Path" fill="#FFBFCD" fill-rule="nonzero" points="128 109.259 70 130 70 68.7414 128 48"></polygon>
            <path d="M76,85 L102.5,75.5 M90,105 L116.5,95.5" id="Shape" stroke="#F1AABA"></path>
            <polygon id="Path" fill="#FFDCE4" fill-rule="nonzero" points="53 52.5176 69.7206 69 128 48.4824 111.279 32"></polygon>
            <polygon id="Path" fill="#E492A4" fill-rule="nonzero" points="70 130 70 69.4654 53 53 53 113.535"></polygon>
            <polygon id="Path" fill="#DC8094" fill-rule="nonzero" points="63.5 99 69.5 103 69.5 101.5"></polygon>
            <polygon id="Path" fill="#DC8094" fill-rule="nonzero" points="60.5 73.5 53 67 53 69.5"></polygon>
            <polygon id="Path" fill="#DC8094" fill-rule="nonzero" points="63.5 115 53 104.5 53 106.5"></polygon>
            <ellipse id="Oval" fill="#FFBFCD" fill-rule="nonzero" cx="91" cy="50" rx="10" ry="6"></ellipse>
            <ellipse id="Oval" fill="#FFBFCD" fill-rule="nonzero" cx="109.5" cy="43.5" rx="2.5" ry="1.5"></ellipse>
            <ellipse id="Oval" fill="#FFBFCD" fill-rule="nonzero" cx="72.5" cy="56.5" rx="2.5" ry="1.5"></ellipse>
            <polygon id="Path" fill="#F1AABA" fill-rule="nonzero" points="89 68 70 73.5 70 75"></polygon>
            <polygon id="Path" fill="#F1AABA" fill-rule="nonzero" points="89 117 70 122.5 70 124"></polygon>
            <polygon id="Path" fill="#F1AABA" fill-rule="nonzero" points="78.5 99 70 101.5 70 103"></polygon>
            <polygon id="Path" fill="#F1AABA" fill-rule="nonzero" points="105 81.5 70 93.6429 70 95"></polygon>
            <polygon id="Path" fill="#F1AABA" fill-rule="nonzero" points="111 73 127.5 68.3571 127.5 66.9999"></polygon>
            <path d="M137.795,122.225 C137.795,126.656 131.814,130.266 124.398,130.266 C116.981,130.266 111,126.656 111,122.225 C111,117.793 116.981,114.183 124.398,114.183 C131.814,114.183 137.795,117.793 137.795,122.225 Z" id="Path" fill="#FFFFFF" fill-rule="nonzero"></path>
            <path d="M124.398,130.266 C117.555,130.266 111.909,127.181 111.096,123.209 C111.048,123.538 111,123.866 111,124.194 C111,128.625 116.981,132.236 124.398,132.236 C131.814,132.236 137.795,128.625 137.795,124.194 C137.795,123.866 137.747,123.538 137.699,123.209 C136.886,127.181 131.24,130.266 124.398,130.266 Z" id="Path" fill="#FFBFCD" fill-rule="nonzero"></path>
            <path d="M135.164,122.192 C135.164,122.454 135.164,122.684 135.116,122.914 C135.068,123.078 134.829,123.209 134.589,123.209 C134.35,123.176 134.159,123.012 134.159,122.848 C134.207,122.651 134.207,122.454 134.207,122.225 C134.207,122.028 134.398,121.896 134.685,121.896 C134.972,121.896 135.164,122.028 135.164,122.192 Z M134.637,120.288 C134.637,120.419 134.541,120.551 134.35,120.583 C134.111,120.649 133.824,120.551 133.728,120.387 C133.632,120.19 133.489,119.993 133.345,119.829 C133.202,119.664 133.297,119.467 133.537,119.402 C133.776,119.303 134.063,119.369 134.159,119.533 C134.302,119.73 134.446,119.96 134.541,120.157 C134.637,120.222 134.637,120.255 134.637,120.288 Z M134.302,124.719 C134.302,124.785 134.302,124.818 134.254,124.883 C134.111,125.08 133.919,125.277 133.776,125.474 C133.632,125.638 133.345,125.671 133.106,125.573 C132.867,125.474 132.819,125.277 132.962,125.113 C133.106,124.949 133.297,124.752 133.393,124.588 C133.537,124.424 133.824,124.358 134.015,124.457 C134.207,124.489 134.302,124.621 134.302,124.719 Z M132.58,118.122 C132.58,118.22 132.532,118.286 132.436,118.351 C132.245,118.483 131.958,118.483 131.766,118.351 C131.575,118.22 131.336,118.056 131.096,117.925 C130.905,117.826 130.857,117.597 131.049,117.465 C131.24,117.334 131.527,117.301 131.718,117.432 C131.958,117.564 132.245,117.728 132.436,117.892 C132.532,117.958 132.58,118.056 132.58,118.122 Z M131.91,126.721 C131.91,126.82 131.862,126.918 131.718,126.984 C131.479,127.115 131.192,127.279 130.905,127.378 C130.666,127.476 130.379,127.444 130.235,127.279 C130.092,127.115 130.139,126.918 130.379,126.82 C130.618,126.689 130.857,126.59 131.096,126.459 C131.288,126.328 131.623,126.36 131.766,126.492 C131.862,126.59 131.91,126.656 131.91,126.721 Z M129.47,116.677 C129.47,116.71 129.47,116.776 129.422,116.809 C129.326,116.973 129.039,117.039 128.8,116.973 C128.513,116.874 128.225,116.809 127.938,116.743 C127.699,116.677 127.556,116.513 127.651,116.316 C127.747,116.152 127.986,116.054 128.273,116.119 C128.608,116.185 128.895,116.284 129.182,116.349 C129.374,116.448 129.47,116.546 129.47,116.677 Z M128.608,128.002 C128.608,128.133 128.465,128.264 128.273,128.297 C127.986,128.363 127.651,128.428 127.316,128.494 C127.077,128.527 126.79,128.428 126.742,128.264 C126.694,128.1 126.838,127.903 127.077,127.87 C127.364,127.805 127.651,127.772 127.938,127.706 C128.178,127.64 128.465,127.739 128.56,127.903 C128.608,127.903 128.608,127.936 128.608,128.002 Z M125.785,116.054 C125.785,116.087 125.785,116.087 125.785,116.054 C125.785,116.251 125.546,116.382 125.259,116.382 C124.972,116.382 124.685,116.349 124.398,116.349 C124.111,116.349 123.919,116.218 123.919,116.021 C123.919,115.824 124.111,115.693 124.398,115.693 C124.733,115.693 125.02,115.693 125.355,115.726 C125.594,115.758 125.785,115.89 125.785,116.054 Z M124.876,128.395 C124.876,128.592 124.685,128.724 124.398,128.724 C124.063,128.724 123.728,128.724 123.441,128.691 C123.201,128.691 122.962,128.527 123.01,128.33 C123.01,128.133 123.249,128.002 123.536,128.034 C123.823,128.034 124.158,128.067 124.445,128.067 C124.685,128.067 124.876,128.231 124.876,128.395 Z M122.005,116.284 C122.005,116.415 121.862,116.579 121.622,116.612 C121.335,116.677 121.048,116.71 120.761,116.776 C120.522,116.842 120.235,116.743 120.139,116.579 C120.043,116.415 120.187,116.218 120.426,116.152 C120.713,116.087 121.048,116.021 121.383,115.955 C121.622,115.923 121.909,116.021 121.957,116.185 C122.005,116.218 122.005,116.251 122.005,116.284 Z M121.144,128.002 C121.144,128.034 121.144,128.067 121.096,128.1 C121,128.264 120.761,128.363 120.474,128.297 C120.187,128.231 119.852,128.133 119.565,128.067 C119.326,128.002 119.23,127.805 119.326,127.64 C119.421,127.476 119.708,127.411 119.948,127.476 C120.235,127.575 120.522,127.64 120.809,127.706 C121.048,127.739 121.144,127.87 121.144,128.002 Z M118.56,117.334 C118.56,117.432 118.464,117.531 118.369,117.597 C118.129,117.728 117.89,117.826 117.651,117.958 C117.46,118.089 117.125,118.056 116.981,117.925 C116.79,117.793 116.838,117.564 117.029,117.465 C117.268,117.334 117.555,117.17 117.842,117.071 C118.082,116.973 118.369,117.006 118.512,117.17 C118.56,117.203 118.56,117.268 118.56,117.334 Z M117.842,126.754 C117.842,126.82 117.795,126.886 117.747,126.951 C117.603,127.082 117.268,127.115 117.077,126.984 C116.838,126.853 116.55,126.689 116.359,126.524 C116.168,126.393 116.168,126.196 116.359,126.065 C116.55,125.934 116.838,125.934 117.029,126.065 C117.22,126.196 117.46,126.36 117.699,126.492 C117.795,126.557 117.842,126.656 117.842,126.754 Z M115.928,119.172 C115.928,119.238 115.881,119.303 115.833,119.336 C115.689,119.5 115.498,119.697 115.402,119.861 C115.306,120.025 114.971,120.091 114.78,119.993 C114.541,119.927 114.445,119.73 114.589,119.566 C114.732,119.369 114.924,119.172 115.067,118.975 C115.211,118.811 115.498,118.778 115.737,118.877 C115.833,118.942 115.928,119.074 115.928,119.172 Z M115.45,124.752 C115.45,124.883 115.354,124.982 115.211,125.047 C114.971,125.146 114.684,125.08 114.589,124.916 C114.445,124.719 114.302,124.489 114.206,124.292 C114.11,124.128 114.254,123.931 114.493,123.866 C114.732,123.8 115.019,123.899 115.115,124.063 C115.211,124.26 115.354,124.457 115.498,124.621 C115.45,124.654 115.45,124.686 115.45,124.752 Z M114.637,121.601 L114.637,121.634 C114.589,121.831 114.589,122.028 114.589,122.225 C114.589,122.422 114.397,122.553 114.11,122.553 C113.823,122.553 113.632,122.422 113.632,122.225 C113.632,121.995 113.632,121.765 113.68,121.568 C113.727,121.404 113.967,121.273 114.206,121.273 C114.445,121.273 114.637,121.437 114.637,121.601 Z" id="Shape" fill="#FFBFCD" fill-rule="nonzero"></path>
            <path d="M124.876,130.266 L124.876,132.236 C125.211,132.236 125.498,132.203 125.833,132.203 L125.833,130.233 C125.498,130.233 125.211,130.266 124.876,130.266 Z" id="Path" fill="#F48BA2" fill-rule="nonzero"></path>
            <path d="M122.484,130.201 L122.484,132.17 C122.819,132.203 123.106,132.203 123.441,132.236 L123.441,130.266 C123.106,130.233 122.819,130.233 122.484,130.201 Z" id="Path" fill="#F48BA2" fill-rule="nonzero"></path>
            <path d="M127.269,130.102 L127.269,132.072 C127.603,132.039 127.891,131.973 128.226,131.908 L128.226,129.938 C127.891,130.004 127.603,130.037 127.269,130.102 Z" id="Path" fill="#F48BA2" fill-rule="nonzero"></path>
            <path d="M129.661,129.643 L129.661,131.612 C129.996,131.514 130.283,131.448 130.618,131.349 L130.618,129.38 C130.283,129.446 129.996,129.544 129.661,129.643 Z" id="Path" fill="#F48BA2" fill-rule="nonzero"></path>
            <path d="M120.091,129.84 L120.091,131.809 C120.426,131.875 120.713,131.94 121.048,131.973 L121.048,130.004 C120.713,129.971 120.426,129.905 120.091,129.84 Z" id="Path" fill="#F48BA2" fill-rule="nonzero"></path>
            <path d="M117.699,129.183 L117.699,131.153 C118.034,131.251 118.321,131.35 118.656,131.448 L118.656,129.479 C118.321,129.413 118.034,129.314 117.699,129.183 Z" id="Path" fill="#F48BA2" fill-rule="nonzero"></path>
            <path d="M114.828,127.87 L114.828,129.84 C115.115,130.036 115.45,130.201 115.785,130.365 L115.785,128.395 C115.45,128.231 115.115,128.034 114.828,127.87 Z" id="Path" fill="#F48BA2" fill-rule="nonzero"></path>
            <path d="M112.436,125.835 L112.436,127.804 C112.723,128.133 113.058,128.461 113.393,128.756 L113.393,126.787 C113.058,126.492 112.723,126.196 112.436,125.835 Z" id="Path" fill="#F48BA2" fill-rule="nonzero"></path>
            <path d="M132.532,128.625 L132.532,130.595 C132.867,130.43 133.202,130.266 133.489,130.102 L133.489,128.133 C133.202,128.297 132.867,128.461 132.532,128.625 Z" id="Path" fill="#F48BA2" fill-rule="nonzero"></path>
            <path d="M134.924,129.183 C135.259,128.921 135.594,128.658 135.881,128.363 L135.881,126.393 C135.594,126.689 135.259,126.951 134.924,127.214 L134.924,129.183 Z" id="Path" fill="#F48BA2" fill-rule="nonzero"></path>
            <path d="M126.876,121.733 L126.876,123.023 L128.226,123.023 L128.226,124.033 L126.876,124.033 L126.876,124.854 L125.691,124.854 L125.691,124.033 L125.066,124.033 L125.066,124.854 L123.88,124.854 L123.88,124.033 L119.721,124.033 L119.721,121.801 C119.721,121.157 119.967,120.643 120.457,120.259 C120.944,119.874 121.592,119.682 122.402,119.682 C123.228,119.682 123.876,119.865 124.347,120.23 C124.814,120.596 125.054,121.105 125.066,121.757 L125.066,123.023 L125.691,123.023 L125.691,121.733 L126.876,121.733 Z M123.88,123.023 L123.88,121.817 C123.88,121.454 123.757,121.176 123.512,120.984 C123.267,120.791 122.901,120.695 122.414,120.695 C121.978,120.695 121.621,120.79 121.345,120.98 C121.068,121.167 120.924,121.426 120.913,121.757 L120.913,123.023 L123.88,123.023 Z" id="Shape" fill="#F48BA2" fill-rule="nonzero"></path>
            <path d="M137.795,120.103 C137.795,124.534 131.814,128.145 124.398,128.145 C116.981,128.145 111,124.534 111,120.103 C111,115.672 116.981,112.061 124.398,112.061 C131.814,112.061 137.795,115.672 137.795,120.103 Z" id="Path" fill="#FFFFFF" fill-rule="nonzero"></path>
            <path d="M124.398,128.145 C117.555,128.145 111.909,125.059 111.096,121.088 C111.048,121.416 111,121.744 111,122.072 C111,126.504 116.981,130.114 124.398,130.114 C131.814,130.114 137.795,126.504 137.795,122.072 C137.795,121.744 137.747,121.416 137.699,121.088 C136.886,125.059 131.24,128.145 124.398,128.145 Z" id="Path" fill="#FFBFCD" fill-rule="nonzero"></path>
            <path d="M135.164,120.07 C135.164,120.333 135.164,120.563 135.116,120.792 C135.068,120.957 134.829,121.088 134.589,121.088 C134.35,121.055 134.159,120.891 134.159,120.727 C134.207,120.53 134.207,120.333 134.207,120.103 C134.207,119.906 134.398,119.775 134.685,119.775 C134.972,119.775 135.164,119.906 135.164,120.07 Z M134.637,118.167 C134.637,118.298 134.541,118.429 134.35,118.462 C134.111,118.528 133.824,118.429 133.728,118.265 C133.632,118.068 133.489,117.871 133.345,117.707 C133.202,117.543 133.297,117.346 133.537,117.28 C133.776,117.182 134.063,117.248 134.159,117.412 C134.302,117.609 134.446,117.838 134.541,118.035 C134.637,118.101 134.637,118.134 134.637,118.167 Z M134.302,122.598 C134.302,122.663 134.302,122.696 134.254,122.762 C134.111,122.959 133.919,123.156 133.776,123.353 C133.632,123.517 133.345,123.55 133.106,123.451 C132.867,123.353 132.819,123.156 132.962,122.992 C133.106,122.827 133.297,122.631 133.393,122.466 C133.537,122.302 133.824,122.237 134.015,122.335 C134.207,122.368 134.302,122.499 134.302,122.598 Z M132.58,116 C132.58,116.099 132.532,116.164 132.436,116.23 C132.245,116.361 131.958,116.361 131.766,116.23 C131.575,116.099 131.336,115.935 131.096,115.803 C130.905,115.705 130.857,115.475 131.049,115.344 C131.24,115.212 131.527,115.18 131.718,115.311 C131.958,115.442 132.245,115.606 132.436,115.77 C132.532,115.836 132.58,115.935 132.58,116 Z M131.91,124.6 C131.91,124.698 131.862,124.797 131.718,124.863 C131.479,124.994 131.192,125.158 130.905,125.256 C130.666,125.355 130.379,125.322 130.235,125.158 C130.092,124.994 130.139,124.797 130.379,124.698 C130.618,124.567 130.857,124.469 131.096,124.337 C131.288,124.206 131.623,124.239 131.766,124.37 C131.862,124.469 131.91,124.534 131.91,124.6 Z M129.47,114.556 C129.47,114.589 129.47,114.654 129.422,114.687 C129.326,114.851 129.039,114.917 128.8,114.851 C128.513,114.753 128.225,114.687 127.938,114.622 C127.699,114.556 127.556,114.392 127.651,114.195 C127.747,114.031 127.986,113.932 128.273,113.998 C128.608,114.064 128.895,114.162 129.182,114.228 C129.374,114.326 129.47,114.425 129.47,114.556 Z M128.608,125.88 C128.608,126.011 128.465,126.143 128.273,126.175 C127.986,126.241 127.651,126.307 127.316,126.372 C127.077,126.405 126.79,126.307 126.742,126.143 C126.694,125.979 126.838,125.782 127.077,125.749 C127.364,125.683 127.651,125.65 127.938,125.585 C128.178,125.519 128.465,125.617 128.56,125.782 C128.608,125.782 128.608,125.814 128.608,125.88 Z M125.785,113.932 C125.785,113.965 125.785,113.965 125.785,113.932 C125.785,114.129 125.546,114.261 125.259,114.261 C124.972,114.261 124.685,114.228 124.398,114.228 C124.111,114.228 123.919,114.096 123.919,113.9 C123.919,113.703 124.111,113.571 124.398,113.571 C124.733,113.571 125.02,113.571 125.355,113.604 C125.594,113.637 125.785,113.768 125.785,113.932 Z M124.876,126.274 C124.876,126.471 124.685,126.602 124.398,126.602 C124.063,126.602 123.728,126.602 123.441,126.569 C123.201,126.569 122.962,126.405 123.01,126.208 C123.01,126.011 123.249,125.88 123.536,125.913 C123.823,125.913 124.158,125.946 124.445,125.946 C124.685,125.946 124.876,126.11 124.876,126.274 Z M122.005,114.162 C122.005,114.293 121.862,114.458 121.622,114.49 C121.335,114.556 121.048,114.589 120.761,114.654 C120.522,114.72 120.235,114.622 120.139,114.458 C120.043,114.293 120.187,114.096 120.426,114.031 C120.713,113.965 121.048,113.9 121.383,113.834 C121.622,113.801 121.909,113.9 121.957,114.064 C122.005,114.096 122.005,114.129 122.005,114.162 Z M121.144,125.88 C121.144,125.913 121.144,125.946 121.096,125.979 C121,126.143 120.761,126.241 120.474,126.175 C120.187,126.11 119.852,126.011 119.565,125.946 C119.326,125.88 119.23,125.683 119.326,125.519 C119.421,125.355 119.708,125.289 119.948,125.355 C120.235,125.453 120.522,125.519 120.809,125.585 C121.048,125.617 121.144,125.749 121.144,125.88 Z M118.56,115.212 C118.56,115.311 118.464,115.409 118.369,115.475 C118.129,115.606 117.89,115.705 117.651,115.836 C117.46,115.967 117.125,115.935 116.981,115.803 C116.79,115.672 116.838,115.442 117.029,115.344 C117.268,115.212 117.555,115.048 117.842,114.95 C118.082,114.851 118.369,114.884 118.512,115.048 C118.56,115.081 118.56,115.147 118.56,115.212 Z M117.842,124.633 C117.842,124.698 117.795,124.764 117.747,124.83 C117.603,124.961 117.268,124.994 117.077,124.863 C116.838,124.731 116.55,124.567 116.359,124.403 C116.168,124.272 116.168,124.075 116.359,123.943 C116.55,123.812 116.838,123.812 117.029,123.943 C117.22,124.075 117.46,124.239 117.699,124.37 C117.795,124.436 117.842,124.534 117.842,124.633 Z M115.928,117.051 C115.928,117.116 115.881,117.182 115.833,117.215 C115.689,117.379 115.498,117.576 115.402,117.74 C115.306,117.904 114.971,117.97 114.78,117.871 C114.541,117.806 114.445,117.609 114.589,117.444 C114.732,117.248 114.924,117.051 115.067,116.854 C115.211,116.69 115.498,116.657 115.737,116.755 C115.833,116.821 115.928,116.952 115.928,117.051 Z M115.45,122.631 C115.45,122.762 115.354,122.86 115.211,122.926 C114.971,123.024 114.684,122.959 114.589,122.795 C114.445,122.598 114.302,122.368 114.206,122.171 C114.11,122.007 114.254,121.81 114.493,121.744 C114.732,121.679 115.019,121.777 115.115,121.941 C115.211,122.138 115.354,122.335 115.498,122.499 C115.45,122.532 115.45,122.565 115.45,122.631 Z M114.637,119.48 L114.637,119.512 C114.589,119.709 114.589,119.906 114.589,120.103 C114.589,120.3 114.397,120.431 114.11,120.431 C113.823,120.431 113.632,120.3 113.632,120.103 C113.632,119.873 113.632,119.644 113.68,119.447 C113.727,119.283 113.967,119.151 114.206,119.151 C114.445,119.151 114.637,119.315 114.637,119.48 Z" id="Shape" fill="#FFBFCD" fill-rule="nonzero"></path>
            <path d="M124.876,128.145 L124.876,130.114 C125.211,130.114 125.498,130.081 125.833,130.081 L125.833,128.112 C125.498,128.112 125.211,128.145 124.876,128.145 Z" id="Path" fill="#F48BA2" fill-rule="nonzero"></path>
            <path d="M122.484,128.079 L122.484,130.049 C122.819,130.081 123.106,130.081 123.441,130.114 L123.441,128.145 C123.106,128.112 122.819,128.112 122.484,128.079 Z" id="Path" fill="#F48BA2" fill-rule="nonzero"></path>
            <path d="M127.269,127.981 L127.269,129.95 C127.603,129.917 127.891,129.852 128.226,129.786 L128.226,127.817 C127.891,127.882 127.603,127.915 127.269,127.981 Z" id="Path" fill="#F48BA2" fill-rule="nonzero"></path>
            <path d="M129.661,127.521 L129.661,129.491 C129.996,129.392 130.283,129.327 130.618,129.228 L130.618,127.259 C130.283,127.324 129.996,127.423 129.661,127.521 Z" id="Path" fill="#F48BA2" fill-rule="nonzero"></path>
            <path d="M120.091,127.718 L120.091,129.688 C120.426,129.753 120.713,129.819 121.048,129.852 L121.048,127.882 C120.713,127.85 120.426,127.784 120.091,127.718 Z" id="Path" fill="#F48BA2" fill-rule="nonzero"></path>
            <path d="M117.699,127.062 L117.699,129.031 C118.034,129.13 118.321,129.228 118.656,129.327 L118.656,127.357 C118.321,127.291 118.034,127.193 117.699,127.062 Z" id="Path" fill="#F48BA2" fill-rule="nonzero"></path>
            <path d="M114.828,125.749 L114.828,127.718 C115.115,127.915 115.45,128.079 115.785,128.243 L115.785,126.274 C115.45,126.11 115.115,125.913 114.828,125.749 Z" id="Path" fill="#F48BA2" fill-rule="nonzero"></path>
            <path d="M112.436,123.714 L112.436,125.683 C112.723,126.011 113.058,126.34 113.393,126.635 L113.393,124.666 C113.058,124.37 112.723,124.075 112.436,123.714 Z" id="Path" fill="#F48BA2" fill-rule="nonzero"></path>
            <path d="M132.532,126.504 L132.532,128.473 C132.867,128.309 133.202,128.145 133.489,127.981 L133.489,126.011 C133.202,126.176 132.867,126.34 132.532,126.504 Z" id="Path" fill="#F48BA2" fill-rule="nonzero"></path>
            <path d="M134.924,127.062 C135.259,126.799 135.594,126.536 135.881,126.241 L135.881,124.272 C135.594,124.567 135.259,124.83 134.924,125.092 L134.924,127.062 Z" id="Path" fill="#F48BA2" fill-rule="nonzero"></path>
            <path d="M126.876,119.612 L126.876,120.902 L128.226,120.902 L128.226,121.912 L126.876,121.912 L126.876,122.733 L125.691,122.733 L125.691,121.912 L125.066,121.912 L125.066,122.733 L123.88,122.733 L123.88,121.912 L119.721,121.912 L119.721,119.68 C119.721,119.036 119.967,118.522 120.457,118.137 C120.944,117.752 121.592,117.56 122.402,117.56 C123.228,117.56 123.876,117.743 124.347,118.109 C124.814,118.475 125.054,118.984 125.066,119.636 L125.066,120.902 L125.691,120.902 L125.691,119.612 L126.876,119.612 Z M123.88,120.902 L123.88,119.696 C123.88,119.332 123.757,119.055 123.512,118.862 C123.267,118.67 122.901,118.574 122.414,118.574 C121.978,118.574 121.621,118.669 121.345,118.858 C121.068,119.045 120.924,119.304 120.913,119.636 L120.913,120.902 L123.88,120.902 Z" id="Shape" fill="#F48BA2" fill-rule="nonzero"></path>
            <path d="M137.795,117.973 C137.795,122.404 131.814,126.015 124.398,126.015 C116.981,126.015 111,122.404 111,117.973 C111,113.542 116.981,109.931 124.398,109.931 C131.814,109.931 137.795,113.542 137.795,117.973 Z" id="Path" fill="#FFFFFF" fill-rule="nonzero"></path>
            <path d="M124.398,126.015 C117.555,126.015 111.909,122.929 111.096,118.958 C111.048,119.286 111,119.614 111,119.942 C111,124.373 116.981,127.984 124.398,127.984 C131.814,127.984 137.795,124.373 137.795,119.942 C137.795,119.614 137.747,119.286 137.699,118.958 C136.886,122.929 131.24,126.015 124.398,126.015 Z" id="Path" fill="#FFBFCD" fill-rule="nonzero"></path>
            <path d="M135.164,117.94 C135.164,118.203 135.164,118.433 135.116,118.662 C135.068,118.826 134.829,118.958 134.589,118.958 C134.35,118.925 134.159,118.761 134.159,118.597 C134.207,118.4 134.207,118.203 134.207,117.973 C134.207,117.776 134.398,117.645 134.685,117.645 C134.972,117.645 135.164,117.776 135.164,117.94 Z M134.637,116.036 C134.637,116.168 134.541,116.299 134.35,116.332 C134.111,116.397 133.824,116.299 133.728,116.135 C133.632,115.938 133.489,115.741 133.345,115.577 C133.202,115.413 133.297,115.216 133.537,115.15 C133.776,115.052 134.063,115.117 134.159,115.282 C134.302,115.478 134.446,115.708 134.541,115.905 C134.637,115.971 134.637,116.004 134.637,116.036 Z M134.302,120.468 C134.302,120.533 134.302,120.566 134.254,120.632 C134.111,120.829 133.919,121.026 133.776,121.223 C133.632,121.387 133.345,121.419 133.106,121.321 C132.867,121.223 132.819,121.026 132.962,120.861 C133.106,120.697 133.297,120.5 133.393,120.336 C133.537,120.172 133.824,120.107 134.015,120.205 C134.207,120.238 134.302,120.369 134.302,120.468 Z M132.58,113.87 C132.58,113.969 132.532,114.034 132.436,114.1 C132.245,114.231 131.958,114.231 131.766,114.1 C131.575,113.969 131.336,113.804 131.096,113.673 C130.905,113.575 130.857,113.345 131.049,113.214 C131.24,113.082 131.527,113.05 131.718,113.181 C131.958,113.312 132.245,113.476 132.436,113.64 C132.532,113.706 132.58,113.804 132.58,113.87 Z M131.91,122.47 C131.91,122.568 131.862,122.667 131.718,122.732 C131.479,122.864 131.192,123.028 130.905,123.126 C130.666,123.225 130.379,123.192 130.235,123.028 C130.092,122.864 130.139,122.667 130.379,122.568 C130.618,122.437 130.857,122.339 131.096,122.207 C131.288,122.076 131.623,122.109 131.766,122.24 C131.862,122.339 131.91,122.404 131.91,122.47 Z M129.47,112.426 C129.47,112.459 129.47,112.524 129.422,112.557 C129.326,112.721 129.039,112.787 128.8,112.721 C128.513,112.623 128.225,112.557 127.938,112.492 C127.699,112.426 127.556,112.262 127.651,112.065 C127.747,111.901 127.986,111.802 128.273,111.868 C128.608,111.934 128.895,112.032 129.182,112.098 C129.374,112.196 129.47,112.295 129.47,112.426 Z M128.608,123.75 C128.608,123.881 128.465,124.013 128.273,124.045 C127.986,124.111 127.651,124.177 127.316,124.242 C127.077,124.275 126.79,124.177 126.742,124.013 C126.694,123.848 126.838,123.651 127.077,123.619 C127.364,123.553 127.651,123.52 127.938,123.455 C128.178,123.389 128.465,123.487 128.56,123.651 C128.608,123.651 128.608,123.684 128.608,123.75 Z M125.785,111.802 C125.785,111.835 125.785,111.835 125.785,111.802 C125.785,111.999 125.546,112.13 125.259,112.13 C124.972,112.13 124.685,112.098 124.398,112.098 C124.111,112.098 123.919,111.966 123.919,111.769 C123.919,111.572 124.111,111.441 124.398,111.441 C124.733,111.441 125.02,111.441 125.355,111.474 C125.594,111.507 125.785,111.638 125.785,111.802 Z M124.876,124.144 C124.876,124.341 124.685,124.472 124.398,124.472 C124.063,124.472 123.728,124.472 123.441,124.439 C123.201,124.439 122.962,124.275 123.01,124.078 C123.01,123.881 123.249,123.75 123.536,123.783 C123.823,123.783 124.158,123.816 124.445,123.816 C124.685,123.816 124.876,123.98 124.876,124.144 Z M122.005,112.032 C122.005,112.163 121.862,112.327 121.622,112.36 C121.335,112.426 121.048,112.459 120.761,112.524 C120.522,112.59 120.235,112.492 120.139,112.327 C120.043,112.163 120.187,111.966 120.426,111.901 C120.713,111.835 121.048,111.769 121.383,111.704 C121.622,111.671 121.909,111.769 121.957,111.934 C122.005,111.966 122.005,111.999 122.005,112.032 Z M121.144,123.75 C121.144,123.783 121.144,123.816 121.096,123.848 C121,124.013 120.761,124.111 120.474,124.045 C120.187,123.98 119.852,123.881 119.565,123.816 C119.326,123.75 119.23,123.553 119.326,123.389 C119.421,123.225 119.708,123.159 119.948,123.225 C120.235,123.323 120.522,123.389 120.809,123.455 C121.048,123.487 121.144,123.619 121.144,123.75 Z M118.56,113.082 C118.56,113.181 118.464,113.279 118.369,113.345 C118.129,113.476 117.89,113.575 117.651,113.706 C117.46,113.837 117.125,113.804 116.981,113.673 C116.79,113.542 116.838,113.312 117.029,113.214 C117.268,113.082 117.555,112.918 117.842,112.82 C118.082,112.721 118.369,112.754 118.512,112.918 C118.56,112.951 118.56,113.017 118.56,113.082 Z M117.842,122.503 C117.842,122.568 117.795,122.634 117.747,122.7 C117.603,122.831 117.268,122.864 117.077,122.732 C116.838,122.601 116.55,122.437 116.359,122.273 C116.168,122.142 116.168,121.945 116.359,121.813 C116.55,121.682 116.838,121.682 117.029,121.813 C117.22,121.945 117.46,122.109 117.699,122.24 C117.795,122.306 117.842,122.404 117.842,122.503 Z M115.928,114.92 C115.928,114.986 115.881,115.052 115.833,115.085 C115.689,115.249 115.498,115.446 115.402,115.61 C115.306,115.774 114.971,115.84 114.78,115.741 C114.541,115.675 114.445,115.478 114.589,115.314 C114.732,115.117 114.924,114.92 115.067,114.724 C115.211,114.559 115.498,114.527 115.737,114.625 C115.833,114.691 115.928,114.822 115.928,114.92 Z M115.45,120.5 C115.45,120.632 115.354,120.73 115.211,120.796 C114.971,120.894 114.684,120.829 114.589,120.665 C114.445,120.468 114.302,120.238 114.206,120.041 C114.11,119.877 114.254,119.68 114.493,119.614 C114.732,119.549 115.019,119.647 115.115,119.811 C115.211,120.008 115.354,120.205 115.498,120.369 C115.45,120.402 115.45,120.435 115.45,120.5 Z M114.637,117.349 L114.637,117.382 C114.589,117.579 114.589,117.776 114.589,117.973 C114.589,118.17 114.397,118.301 114.11,118.301 C113.823,118.301 113.632,118.17 113.632,117.973 C113.632,117.743 113.632,117.513 113.68,117.317 C113.727,117.152 113.967,117.021 114.206,117.021 C114.445,117.021 114.637,117.185 114.637,117.349 Z" id="Shape" fill="#FFBFCD" fill-rule="nonzero"></path>
            <path d="M124.876,126.015 L124.876,127.984 C125.211,127.984 125.498,127.951 125.833,127.951 L125.833,125.982 C125.498,125.982 125.211,126.015 124.876,126.015 Z" id="Path" fill="#F48BA2" fill-rule="nonzero"></path>
            <path d="M122.484,125.949 L122.484,127.918 C122.819,127.951 123.106,127.951 123.441,127.984 L123.441,126.015 C123.106,125.982 122.819,125.982 122.484,125.949 Z" id="Path" fill="#F48BA2" fill-rule="nonzero"></path>
            <path d="M127.269,125.851 L127.269,127.82 C127.603,127.787 127.891,127.722 128.226,127.656 L128.226,125.687 C127.891,125.752 127.603,125.785 127.269,125.851 Z" id="Path" fill="#F48BA2" fill-rule="nonzero"></path>
            <path d="M129.661,125.391 L129.661,127.36 C129.996,127.262 130.283,127.196 130.618,127.098 L130.618,125.128 C130.283,125.194 129.996,125.293 129.661,125.391 Z" id="Path" fill="#F48BA2" fill-rule="nonzero"></path>
            <path d="M120.091,125.588 L120.091,127.557 C120.426,127.623 120.713,127.689 121.048,127.722 L121.048,125.752 C120.713,125.719 120.426,125.654 120.091,125.588 Z" id="Path" fill="#F48BA2" fill-rule="nonzero"></path>
            <path d="M117.699,124.932 L117.699,126.901 C118.034,126.999 118.321,127.098 118.656,127.196 L118.656,125.227 C118.321,125.161 118.034,125.063 117.699,124.932 Z" id="Path" fill="#F48BA2" fill-rule="nonzero"></path>
            <path d="M114.828,123.619 L114.828,125.588 C115.115,125.785 115.45,125.949 115.785,126.113 L115.785,124.144 C115.45,123.98 115.115,123.783 114.828,123.619 Z" id="Path" fill="#F48BA2" fill-rule="nonzero"></path>
            <path d="M112.436,121.584 L112.436,123.553 C112.723,123.881 113.058,124.209 113.393,124.505 L113.393,122.535 C113.058,122.24 112.723,121.945 112.436,121.584 Z" id="Path" fill="#F48BA2" fill-rule="nonzero"></path>
            <path d="M132.532,124.374 L132.532,126.343 C132.867,126.179 133.202,126.015 133.489,125.851 L133.489,123.881 C133.202,124.045 132.867,124.209 132.532,124.374 Z" id="Path" fill="#F48BA2" fill-rule="nonzero"></path>
            <path d="M134.924,124.932 C135.259,124.669 135.594,124.406 135.881,124.111 L135.881,122.142 C135.594,122.437 135.259,122.7 134.924,122.962 L134.924,124.932 Z" id="Path" fill="#F48BA2" fill-rule="nonzero"></path>
            <path d="M126.876,117.482 L126.876,118.772 L128.226,118.772 L128.226,119.781 L126.876,119.781 L126.876,120.603 L125.691,120.603 L125.691,119.781 L125.066,119.781 L125.066,120.603 L123.88,120.603 L123.88,119.781 L119.721,119.781 L119.721,117.55 C119.721,116.906 119.967,116.392 120.457,116.007 C120.944,115.622 121.592,115.43 122.402,115.43 C123.228,115.43 123.876,115.613 124.347,115.979 C124.814,116.345 125.054,116.854 125.066,117.506 L125.066,118.772 L125.691,118.772 L125.691,117.482 L126.876,117.482 Z M123.88,118.772 L123.88,117.566 C123.88,117.202 123.757,116.925 123.512,116.732 C123.267,116.54 122.901,116.444 122.414,116.444 C121.978,116.444 121.621,116.539 121.345,116.728 C121.068,116.915 120.924,117.174 120.913,117.506 L120.913,118.772 L123.88,118.772 Z" id="Shape" fill="#F48BA2" fill-rule="nonzero"></path>
            <path d="M137.795,115.851 C137.795,120.283 131.814,123.893 124.398,123.893 C116.981,123.893 111,120.283 111,115.851 C111,111.42 116.981,107.81 124.398,107.81 C131.814,107.81 137.795,111.42 137.795,115.851 Z" id="Path" fill="#FFFFFF" fill-rule="nonzero"></path>
            <path d="M124.398,123.893 C117.555,123.893 111.909,120.808 111.096,116.836 C111.048,117.164 111,117.493 111,117.821 C111,122.252 116.981,125.863 124.398,125.863 C131.814,125.863 137.795,122.252 137.795,117.821 C137.795,117.493 137.747,117.164 137.699,116.836 C136.886,120.808 131.24,123.893 124.398,123.893 Z" id="Path" fill="#FFBFCD" fill-rule="nonzero"></path>
            <path d="M135.164,115.819 C135.164,116.081 135.164,116.311 135.116,116.541 C135.068,116.705 134.829,116.836 134.589,116.836 C134.35,116.803 134.159,116.639 134.159,116.475 C134.207,116.278 134.207,116.081 134.207,115.851 C134.207,115.655 134.398,115.523 134.685,115.523 C134.972,115.523 135.164,115.655 135.164,115.819 Z M134.637,113.915 C134.637,114.046 134.541,114.177 134.35,114.21 C134.111,114.276 133.824,114.177 133.728,114.013 C133.632,113.816 133.489,113.619 133.345,113.455 C133.202,113.291 133.297,113.094 133.537,113.029 C133.776,112.93 134.063,112.996 134.159,113.16 C134.302,113.357 134.446,113.587 134.541,113.784 C134.637,113.849 134.637,113.882 134.637,113.915 Z M134.302,118.346 C134.302,118.412 134.302,118.444 134.254,118.51 C134.111,118.707 133.919,118.904 133.776,119.101 C133.632,119.265 133.345,119.298 133.106,119.199 C132.867,119.101 132.819,118.904 132.962,118.74 C133.106,118.576 133.297,118.379 133.393,118.215 C133.537,118.051 133.824,117.985 134.015,118.083 C134.207,118.116 134.302,118.248 134.302,118.346 Z M132.58,111.749 C132.58,111.847 132.532,111.913 132.436,111.978 C132.245,112.11 131.958,112.11 131.766,111.978 C131.575,111.847 131.336,111.683 131.096,111.552 C130.905,111.453 130.857,111.223 131.049,111.092 C131.24,110.961 131.527,110.928 131.718,111.059 C131.958,111.191 132.245,111.355 132.436,111.519 C132.532,111.584 132.58,111.683 132.58,111.749 Z M131.91,120.348 C131.91,120.447 131.862,120.545 131.718,120.611 C131.479,120.742 131.192,120.906 130.905,121.005 C130.666,121.103 130.379,121.07 130.235,120.906 C130.092,120.742 130.139,120.545 130.379,120.447 C130.618,120.315 130.857,120.217 131.096,120.086 C131.288,119.954 131.623,119.987 131.766,120.118 C131.862,120.217 131.91,120.283 131.91,120.348 Z M129.47,110.304 C129.47,110.337 129.47,110.403 129.422,110.436 C129.326,110.6 129.039,110.665 128.8,110.6 C128.513,110.501 128.225,110.436 127.938,110.37 C127.699,110.304 127.556,110.14 127.651,109.943 C127.747,109.779 127.986,109.681 128.273,109.746 C128.608,109.812 128.895,109.91 129.182,109.976 C129.374,110.075 129.47,110.173 129.47,110.304 Z M128.608,121.628 C128.608,121.76 128.465,121.891 128.273,121.924 C127.986,121.989 127.651,122.055 127.316,122.121 C127.077,122.154 126.79,122.055 126.742,121.891 C126.694,121.727 126.838,121.53 127.077,121.497 C127.364,121.431 127.651,121.399 127.938,121.333 C128.178,121.267 128.465,121.366 128.56,121.53 C128.608,121.53 128.608,121.563 128.608,121.628 Z M125.785,109.681 C125.785,109.713 125.785,109.713 125.785,109.681 C125.785,109.878 125.546,110.009 125.259,110.009 C124.972,110.009 124.685,109.976 124.398,109.976 C124.111,109.976 123.919,109.845 123.919,109.648 C123.919,109.451 124.111,109.32 124.398,109.32 C124.733,109.32 125.02,109.32 125.355,109.352 C125.594,109.385 125.785,109.517 125.785,109.681 Z M124.876,122.022 C124.876,122.219 124.685,122.35 124.398,122.35 C124.063,122.35 123.728,122.35 123.441,122.318 C123.201,122.318 122.962,122.154 123.01,121.957 C123.01,121.76 123.249,121.628 123.536,121.661 C123.823,121.661 124.158,121.694 124.445,121.694 C124.685,121.694 124.876,121.858 124.876,122.022 Z M122.005,109.91 C122.005,110.042 121.862,110.206 121.622,110.239 C121.335,110.304 121.048,110.337 120.761,110.403 C120.522,110.468 120.235,110.37 120.139,110.206 C120.043,110.042 120.187,109.845 120.426,109.779 C120.713,109.713 121.048,109.648 121.383,109.582 C121.622,109.549 121.909,109.648 121.957,109.812 C122.005,109.845 122.005,109.878 122.005,109.91 Z M121.144,121.628 C121.144,121.661 121.144,121.694 121.096,121.727 C121,121.891 120.761,121.989 120.474,121.924 C120.187,121.858 119.852,121.76 119.565,121.694 C119.326,121.628 119.23,121.431 119.326,121.267 C119.421,121.103 119.708,121.038 119.948,121.103 C120.235,121.202 120.522,121.267 120.809,121.333 C121.048,121.366 121.144,121.497 121.144,121.628 Z M118.56,110.961 C118.56,111.059 118.464,111.158 118.369,111.223 C118.129,111.355 117.89,111.453 117.651,111.584 C117.46,111.716 117.125,111.683 116.981,111.552 C116.79,111.42 116.838,111.191 117.029,111.092 C117.268,110.961 117.555,110.797 117.842,110.698 C118.082,110.6 118.369,110.633 118.512,110.797 C118.56,110.829 118.56,110.895 118.56,110.961 Z M117.842,120.381 C117.842,120.447 117.795,120.512 117.747,120.578 C117.603,120.709 117.268,120.742 117.077,120.611 C116.838,120.48 116.55,120.315 116.359,120.151 C116.168,120.02 116.168,119.823 116.359,119.692 C116.55,119.56 116.838,119.56 117.029,119.692 C117.22,119.823 117.46,119.987 117.699,120.118 C117.795,120.184 117.842,120.283 117.842,120.381 Z M115.928,112.799 C115.928,112.865 115.881,112.93 115.833,112.963 C115.689,113.127 115.498,113.324 115.402,113.488 C115.306,113.652 114.971,113.718 114.78,113.619 C114.541,113.554 114.445,113.357 114.589,113.193 C114.732,112.996 114.924,112.799 115.067,112.602 C115.211,112.438 115.498,112.405 115.737,112.503 C115.833,112.569 115.928,112.7 115.928,112.799 Z M115.45,118.379 C115.45,118.51 115.354,118.609 115.211,118.674 C114.971,118.773 114.684,118.707 114.589,118.543 C114.445,118.346 114.302,118.116 114.206,117.919 C114.11,117.755 114.254,117.558 114.493,117.493 C114.732,117.427 115.019,117.525 115.115,117.69 C115.211,117.887 115.354,118.083 115.498,118.248 C115.45,118.28 115.45,118.313 115.45,118.379 Z M114.637,115.228 L114.637,115.261 C114.589,115.458 114.589,115.655 114.589,115.851 C114.589,116.048 114.397,116.18 114.11,116.18 C113.823,116.18 113.632,116.048 113.632,115.851 C113.632,115.622 113.632,115.392 113.68,115.195 C113.727,115.031 113.967,114.9 114.206,114.9 C114.445,114.9 114.637,115.064 114.637,115.228 Z" id="Shape" fill="#FFBFCD" fill-rule="nonzero"></path>
            <path d="M124.876,123.893 L124.876,125.863 C125.211,125.863 125.498,125.83 125.833,125.83 L125.833,123.86 C125.498,123.86 125.211,123.893 124.876,123.893 Z" id="Path" fill="#F48BA2" fill-rule="nonzero"></path>
            <path d="M122.484,123.827 L122.484,125.797 C122.819,125.83 123.106,125.83 123.441,125.863 L123.441,123.893 C123.106,123.86 122.819,123.86 122.484,123.827 Z" id="Path" fill="#F48BA2" fill-rule="nonzero"></path>
            <path d="M127.269,123.729 L127.269,125.698 C127.603,125.666 127.891,125.6 128.226,125.534 L128.226,123.565 C127.891,123.63 127.603,123.663 127.269,123.729 Z" id="Path" fill="#F48BA2" fill-rule="nonzero"></path>
            <path d="M129.661,123.269 L129.661,125.239 C129.996,125.14 130.283,125.075 130.618,124.976 L130.618,123.007 C130.283,123.073 129.996,123.171 129.661,123.269 Z" id="Path" fill="#F48BA2" fill-rule="nonzero"></path>
            <path d="M120.091,123.466 L120.091,125.436 C120.426,125.502 120.713,125.567 121.048,125.6 L121.048,123.631 C120.713,123.598 120.426,123.532 120.091,123.466 Z" id="Path" fill="#F48BA2" fill-rule="nonzero"></path>
            <path d="M117.699,122.81 L117.699,124.779 C118.034,124.878 118.321,124.976 118.656,125.075 L118.656,123.105 C118.321,123.04 118.034,122.941 117.699,122.81 Z" id="Path" fill="#F48BA2" fill-rule="nonzero"></path>
            <path d="M114.828,121.497 L114.828,123.466 C115.115,123.663 115.45,123.827 115.785,123.992 L115.785,122.022 C115.45,121.858 115.115,121.661 114.828,121.497 Z" id="Path" fill="#F48BA2" fill-rule="nonzero"></path>
            <path d="M112.436,119.462 L112.436,121.431 C112.723,121.76 113.058,122.088 113.393,122.383 L113.393,120.414 C113.058,120.119 112.723,119.823 112.436,119.462 Z" id="Path" fill="#F48BA2" fill-rule="nonzero"></path>
            <path d="M132.532,122.252 L132.532,124.221 C132.867,124.057 133.202,123.893 133.489,123.729 L133.489,121.76 C133.202,121.924 132.867,122.088 132.532,122.252 Z" id="Path" fill="#F48BA2" fill-rule="nonzero"></path>
            <path d="M134.924,122.81 C135.259,122.547 135.594,122.285 135.881,121.989 L135.881,120.02 C135.594,120.315 135.259,120.578 134.924,120.84 L134.924,122.81 Z" id="Path" fill="#F48BA2" fill-rule="nonzero"></path>
            <path d="M126.876,115.36 L126.876,116.65 L128.226,116.65 L128.226,117.66 L126.876,117.66 L126.876,118.481 L125.691,118.481 L125.691,117.66 L125.066,117.66 L125.066,118.481 L123.88,118.481 L123.88,117.66 L119.721,117.66 L119.721,115.428 C119.721,114.784 119.967,114.27 120.457,113.885 C120.944,113.501 121.592,113.308 122.402,113.308 C123.228,113.308 123.876,113.491 124.347,113.857 C124.814,114.223 125.054,114.732 125.066,115.384 L125.066,116.65 L125.691,116.65 L125.691,115.36 L126.876,115.36 Z M123.88,116.65 L123.88,115.444 C123.88,115.081 123.757,114.803 123.512,114.611 C123.267,114.418 122.901,114.322 122.414,114.322 C121.978,114.322 121.621,114.417 121.345,114.607 C121.068,114.794 120.924,115.053 120.913,115.384 L120.913,116.65 L123.88,116.65 Z" id="Shape" fill="#F48BA2" fill-rule="nonzero"></path>
            <path d="M137.795,113.644 C137.795,118.076 131.814,121.686 124.398,121.686 C116.981,121.686 111,118.076 111,113.644 C111,109.213 116.981,105.603 124.398,105.603 C131.814,105.603 137.795,109.213 137.795,113.644 Z" id="Path" fill="#FFFFFF" fill-rule="nonzero"></path>
            <path d="M124.398,121.686 C117.555,121.686 111.909,118.601 111.096,114.629 C111.048,114.957 111,115.286 111,115.614 C111,120.045 116.981,123.656 124.398,123.656 C131.814,123.656 137.795,120.045 137.795,115.614 C137.795,115.286 137.747,114.957 137.699,114.629 C136.886,118.601 131.24,121.686 124.398,121.686 Z" id="Path" fill="#FFBFCD" fill-rule="nonzero"></path>
            <path d="M135.164,113.612 C135.164,113.874 135.164,114.104 135.116,114.334 C135.068,114.498 134.829,114.629 134.589,114.629 C134.35,114.596 134.159,114.432 134.159,114.268 C134.207,114.071 134.207,113.874 134.207,113.644 C134.207,113.447 134.398,113.316 134.685,113.316 C134.972,113.316 135.164,113.447 135.164,113.612 Z M134.637,111.708 C134.637,111.839 134.541,111.97 134.35,112.003 C134.111,112.069 133.824,111.97 133.728,111.806 C133.632,111.609 133.489,111.412 133.345,111.248 C133.202,111.084 133.297,110.887 133.537,110.822 C133.776,110.723 134.063,110.789 134.159,110.953 C134.302,111.15 134.446,111.38 134.541,111.577 C134.637,111.642 134.637,111.675 134.637,111.708 Z M134.302,116.139 C134.302,116.205 134.302,116.237 134.254,116.303 C134.111,116.5 133.919,116.697 133.776,116.894 C133.632,117.058 133.345,117.091 133.106,116.992 C132.867,116.894 132.819,116.697 132.962,116.533 C133.106,116.369 133.297,116.172 133.393,116.008 C133.537,115.844 133.824,115.778 134.015,115.876 C134.207,115.909 134.302,116.041 134.302,116.139 Z M132.58,109.541 C132.58,109.64 132.532,109.706 132.436,109.771 C132.245,109.903 131.958,109.903 131.766,109.771 C131.575,109.64 131.336,109.476 131.096,109.345 C130.905,109.246 130.857,109.016 131.049,108.885 C131.24,108.754 131.527,108.721 131.718,108.852 C131.958,108.984 132.245,109.148 132.436,109.312 C132.532,109.377 132.58,109.476 132.58,109.541 Z M131.91,118.141 C131.91,118.24 131.862,118.338 131.718,118.404 C131.479,118.535 131.192,118.699 130.905,118.798 C130.666,118.896 130.379,118.863 130.235,118.699 C130.092,118.535 130.139,118.338 130.379,118.24 C130.618,118.108 130.857,118.01 131.096,117.879 C131.288,117.747 131.623,117.78 131.766,117.911 C131.862,118.01 131.91,118.076 131.91,118.141 Z M129.47,108.097 C129.47,108.13 129.47,108.196 129.422,108.229 C129.326,108.393 129.039,108.458 128.8,108.393 C128.513,108.294 128.225,108.229 127.938,108.163 C127.699,108.097 127.556,107.933 127.651,107.736 C127.747,107.572 127.986,107.474 128.273,107.539 C128.608,107.605 128.895,107.703 129.182,107.769 C129.374,107.868 129.47,107.966 129.47,108.097 Z M128.608,119.421 C128.608,119.553 128.465,119.684 128.273,119.717 C127.986,119.782 127.651,119.848 127.316,119.914 C127.077,119.947 126.79,119.848 126.742,119.684 C126.694,119.52 126.838,119.323 127.077,119.29 C127.364,119.224 127.651,119.192 127.938,119.126 C128.178,119.06 128.465,119.159 128.56,119.323 C128.608,119.323 128.608,119.356 128.608,119.421 Z M125.785,107.474 C125.785,107.506 125.785,107.506 125.785,107.474 C125.785,107.671 125.546,107.802 125.259,107.802 C124.972,107.802 124.685,107.769 124.398,107.769 C124.111,107.769 123.919,107.638 123.919,107.441 C123.919,107.244 124.111,107.113 124.398,107.113 C124.733,107.113 125.02,107.113 125.355,107.145 C125.594,107.178 125.785,107.31 125.785,107.474 Z M124.876,119.815 C124.876,120.012 124.685,120.143 124.398,120.143 C124.063,120.143 123.728,120.143 123.441,120.111 C123.201,120.111 122.962,119.947 123.01,119.75 C123.01,119.553 123.249,119.421 123.536,119.454 C123.823,119.454 124.158,119.487 124.445,119.487 C124.685,119.487 124.876,119.651 124.876,119.815 Z M122.005,107.703 C122.005,107.835 121.862,107.999 121.622,108.032 C121.335,108.097 121.048,108.13 120.761,108.196 C120.522,108.261 120.235,108.163 120.139,107.999 C120.043,107.835 120.187,107.638 120.426,107.572 C120.713,107.506 121.048,107.441 121.383,107.375 C121.622,107.342 121.909,107.441 121.957,107.605 C122.005,107.638 122.005,107.671 122.005,107.703 Z M121.144,119.421 C121.144,119.454 121.144,119.487 121.096,119.52 C121,119.684 120.761,119.782 120.474,119.717 C120.187,119.651 119.852,119.553 119.565,119.487 C119.326,119.421 119.23,119.224 119.326,119.06 C119.421,118.896 119.708,118.831 119.948,118.896 C120.235,118.995 120.522,119.06 120.809,119.126 C121.048,119.159 121.144,119.29 121.144,119.421 Z M118.56,108.754 C118.56,108.852 118.464,108.951 118.369,109.016 C118.129,109.148 117.89,109.246 117.651,109.377 C117.46,109.509 117.125,109.476 116.981,109.345 C116.79,109.213 116.838,108.984 117.029,108.885 C117.268,108.754 117.555,108.59 117.842,108.491 C118.082,108.393 118.369,108.426 118.512,108.59 C118.56,108.622 118.56,108.688 118.56,108.754 Z M117.842,118.174 C117.842,118.24 117.795,118.305 117.747,118.371 C117.603,118.502 117.268,118.535 117.077,118.404 C116.838,118.273 116.55,118.108 116.359,117.944 C116.168,117.813 116.168,117.616 116.359,117.485 C116.55,117.353 116.838,117.353 117.029,117.485 C117.22,117.616 117.46,117.78 117.699,117.911 C117.795,117.977 117.842,118.076 117.842,118.174 Z M115.928,110.592 C115.928,110.657 115.881,110.723 115.833,110.756 C115.689,110.92 115.498,111.117 115.402,111.281 C115.306,111.445 114.971,111.511 114.78,111.412 C114.541,111.347 114.445,111.15 114.589,110.986 C114.732,110.789 114.924,110.592 115.067,110.395 C115.211,110.231 115.498,110.198 115.737,110.296 C115.833,110.362 115.928,110.493 115.928,110.592 Z M115.45,116.172 C115.45,116.303 115.354,116.402 115.211,116.467 C114.971,116.566 114.684,116.5 114.589,116.336 C114.445,116.139 114.302,115.909 114.206,115.712 C114.11,115.548 114.254,115.351 114.493,115.286 C114.732,115.22 115.019,115.318 115.115,115.483 C115.211,115.679 115.354,115.876 115.498,116.041 C115.45,116.073 115.45,116.106 115.45,116.172 Z M114.637,113.021 L114.637,113.054 C114.589,113.251 114.589,113.447 114.589,113.644 C114.589,113.841 114.397,113.973 114.11,113.973 C113.823,113.973 113.632,113.841 113.632,113.644 C113.632,113.415 113.632,113.185 113.68,112.988 C113.727,112.824 113.967,112.693 114.206,112.693 C114.445,112.693 114.637,112.857 114.637,113.021 Z" id="Shape" fill="#FFBFCD" fill-rule="nonzero"></path>
            <path d="M124.876,121.686 L124.876,123.656 C125.211,123.656 125.498,123.623 125.833,123.623 L125.833,121.653 C125.498,121.653 125.211,121.686 124.876,121.686 Z" id="Path" fill="#F48BA2" fill-rule="nonzero"></path>
            <path d="M122.484,121.62 L122.484,123.59 C122.819,123.623 123.106,123.623 123.441,123.656 L123.441,121.686 C123.106,121.653 122.819,121.653 122.484,121.62 Z" id="Path" fill="#F48BA2" fill-rule="nonzero"></path>
            <path d="M127.269,121.522 L127.269,123.491 C127.603,123.459 127.891,123.393 128.226,123.327 L128.226,121.358 C127.891,121.423 127.603,121.456 127.269,121.522 Z" id="Path" fill="#F48BA2" fill-rule="nonzero"></path>
            <path d="M129.661,121.062 L129.661,123.032 C129.996,122.933 130.283,122.868 130.618,122.769 L130.618,120.8 C130.283,120.866 129.996,120.964 129.661,121.062 Z" id="Path" fill="#F48BA2" fill-rule="nonzero"></path>
            <path d="M120.091,121.259 L120.091,123.229 C120.426,123.294 120.713,123.36 121.048,123.393 L121.048,121.424 C120.713,121.391 120.426,121.325 120.091,121.259 Z" id="Path" fill="#F48BA2" fill-rule="nonzero"></path>
            <path d="M117.699,120.603 L117.699,122.572 C118.034,122.671 118.321,122.769 118.656,122.868 L118.656,120.898 C118.321,120.833 118.034,120.734 117.699,120.603 Z" id="Path" fill="#F48BA2" fill-rule="nonzero"></path>
            <path d="M114.828,119.29 L114.828,121.259 C115.115,121.456 115.45,121.621 115.785,121.785 L115.785,119.815 C115.45,119.651 115.115,119.454 114.828,119.29 Z" id="Path" fill="#F48BA2" fill-rule="nonzero"></path>
            <path d="M112.436,117.255 L112.436,119.224 C112.723,119.553 113.058,119.881 113.393,120.176 L113.393,118.207 C113.058,117.911 112.723,117.616 112.436,117.255 Z" id="Path" fill="#F48BA2" fill-rule="nonzero"></path>
            <path d="M132.532,120.045 L132.532,122.014 C132.867,121.85 133.202,121.686 133.489,121.522 L133.489,119.553 C133.202,119.717 132.867,119.881 132.532,120.045 Z" id="Path" fill="#F48BA2" fill-rule="nonzero"></path>
            <path d="M134.924,120.603 C135.259,120.34 135.594,120.078 135.881,119.782 L135.881,117.813 C135.594,118.108 135.259,118.371 134.924,118.634 L134.924,120.603 Z" id="Path" fill="#F48BA2" fill-rule="nonzero"></path>
            <path d="M126.876,113.153 L126.876,114.443 L128.226,114.443 L128.226,115.453 L126.876,115.453 L126.876,116.274 L125.691,116.274 L125.691,115.453 L125.066,115.453 L125.066,116.274 L123.88,116.274 L123.88,115.453 L119.721,115.453 L119.721,113.221 C119.721,112.577 119.967,112.063 120.457,111.678 C120.944,111.294 121.592,111.101 122.402,111.101 C123.228,111.101 123.876,111.284 124.347,111.65 C124.814,112.016 125.054,112.525 125.066,113.177 L125.066,114.443 L125.691,114.443 L125.691,113.153 L126.876,113.153 Z M123.88,114.443 L123.88,113.237 C123.88,112.874 123.757,112.596 123.512,112.404 C123.267,112.211 122.901,112.115 122.414,112.115 C121.978,112.115 121.621,112.21 121.345,112.4 C121.068,112.587 120.924,112.846 120.913,113.177 L120.913,114.443 L123.88,114.443 Z" id="Shape" fill="#F48BA2" fill-rule="nonzero"></path>
            <path d="M137.795,111.523 C137.795,115.954 131.814,119.565 124.398,119.565 C116.981,119.565 111,115.954 111,111.523 C111,107.092 116.981,103.481 124.398,103.481 C131.814,103.481 137.795,107.092 137.795,111.523 Z" id="Path" fill="#FFDCE4" fill-rule="nonzero"></path>
            <path d="M124.398,119.565 C117.555,119.565 111.909,116.479 111.096,112.508 C111.048,112.836 111,113.164 111,113.492 C111,117.923 116.981,121.534 124.398,121.534 C131.814,121.534 137.795,117.923 137.795,113.492 C137.795,113.164 137.747,112.836 137.699,112.508 C136.886,116.479 131.24,119.565 124.398,119.565 Z" id="Path" fill="#FFBFCD" fill-rule="nonzero"></path>
            <path d="M135.164,111.49 C135.164,111.753 135.164,111.982 135.116,112.212 C135.068,112.376 134.829,112.508 134.589,112.508 C134.35,112.475 134.159,112.311 134.159,112.147 C134.207,111.95 134.207,111.753 134.207,111.523 C134.207,111.326 134.398,111.195 134.685,111.195 C134.972,111.195 135.164,111.326 135.164,111.49 Z M134.637,109.586 C134.637,109.718 134.541,109.849 134.35,109.882 C134.111,109.947 133.824,109.849 133.728,109.685 C133.632,109.488 133.489,109.291 133.345,109.127 C133.202,108.963 133.297,108.766 133.537,108.7 C133.776,108.602 134.063,108.667 134.159,108.831 C134.302,109.028 134.446,109.258 134.541,109.455 C134.637,109.521 134.637,109.553 134.637,109.586 Z M134.302,114.017 C134.302,114.083 134.302,114.116 134.254,114.182 C134.111,114.379 133.919,114.575 133.776,114.772 C133.632,114.937 133.345,114.969 133.106,114.871 C132.867,114.772 132.819,114.575 132.962,114.411 C133.106,114.247 133.297,114.05 133.393,113.886 C133.537,113.722 133.824,113.656 134.015,113.755 C134.207,113.788 134.302,113.919 134.302,114.017 Z M132.58,107.42 C132.58,107.518 132.532,107.584 132.436,107.65 C132.245,107.781 131.958,107.781 131.766,107.65 C131.575,107.518 131.336,107.354 131.096,107.223 C130.905,107.125 130.857,106.895 131.049,106.763 C131.24,106.632 131.527,106.599 131.718,106.731 C131.958,106.862 132.245,107.026 132.436,107.19 C132.532,107.256 132.58,107.354 132.58,107.42 Z M131.91,116.02 C131.91,116.118 131.862,116.217 131.718,116.282 C131.479,116.414 131.192,116.578 130.905,116.676 C130.666,116.775 130.379,116.742 130.235,116.578 C130.092,116.414 130.139,116.217 130.379,116.118 C130.618,115.987 130.857,115.888 131.096,115.757 C131.288,115.626 131.623,115.659 131.766,115.79 C131.862,115.888 131.91,115.954 131.91,116.02 Z M129.47,105.976 C129.47,106.009 129.47,106.074 129.422,106.107 C129.326,106.271 129.039,106.337 128.8,106.271 C128.513,106.173 128.225,106.107 127.938,106.041 C127.699,105.976 127.556,105.812 127.651,105.615 C127.747,105.451 127.986,105.352 128.273,105.418 C128.608,105.483 128.895,105.582 129.182,105.648 C129.374,105.746 129.47,105.844 129.47,105.976 Z M128.608,117.3 C128.608,117.431 128.465,117.562 128.273,117.595 C127.986,117.661 127.651,117.727 127.316,117.792 C127.077,117.825 126.79,117.727 126.742,117.562 C126.694,117.398 126.838,117.201 127.077,117.169 C127.364,117.103 127.651,117.07 127.938,117.004 C128.178,116.939 128.465,117.037 128.56,117.201 C128.608,117.201 128.608,117.234 128.608,117.3 Z M125.785,105.352 C125.785,105.385 125.785,105.385 125.785,105.352 C125.785,105.549 125.546,105.68 125.259,105.68 C124.972,105.68 124.685,105.648 124.398,105.648 C124.111,105.648 123.919,105.516 123.919,105.319 C123.919,105.122 124.111,104.991 124.398,104.991 C124.733,104.991 125.02,104.991 125.355,105.024 C125.594,105.057 125.785,105.188 125.785,105.352 Z M124.876,117.694 C124.876,117.891 124.685,118.022 124.398,118.022 C124.063,118.022 123.728,118.022 123.441,117.989 C123.201,117.989 122.962,117.825 123.01,117.628 C123.01,117.431 123.249,117.3 123.536,117.333 C123.823,117.333 124.158,117.365 124.445,117.365 C124.685,117.365 124.876,117.53 124.876,117.694 Z M122.005,105.582 C122.005,105.713 121.862,105.877 121.622,105.91 C121.335,105.976 121.048,106.009 120.761,106.074 C120.522,106.14 120.235,106.041 120.139,105.877 C120.043,105.713 120.187,105.516 120.426,105.451 C120.713,105.385 121.048,105.319 121.383,105.254 C121.622,105.221 121.909,105.319 121.957,105.483 C122.005,105.516 122.005,105.549 122.005,105.582 Z M121.144,117.3 C121.144,117.333 121.144,117.365 121.096,117.398 C121,117.562 120.761,117.661 120.474,117.595 C120.187,117.53 119.852,117.431 119.565,117.365 C119.326,117.3 119.23,117.103 119.326,116.939 C119.421,116.775 119.708,116.709 119.948,116.775 C120.235,116.873 120.522,116.939 120.809,117.004 C121.048,117.037 121.144,117.169 121.144,117.3 Z M118.56,106.632 C118.56,106.731 118.464,106.829 118.369,106.895 C118.129,107.026 117.89,107.125 117.651,107.256 C117.46,107.387 117.125,107.354 116.981,107.223 C116.79,107.092 116.838,106.862 117.029,106.763 C117.268,106.632 117.555,106.468 117.842,106.37 C118.082,106.271 118.369,106.304 118.512,106.468 C118.56,106.501 118.56,106.567 118.56,106.632 Z M117.842,116.053 C117.842,116.118 117.795,116.184 117.747,116.249 C117.603,116.381 117.268,116.414 117.077,116.282 C116.838,116.151 116.55,115.987 116.359,115.823 C116.168,115.691 116.168,115.495 116.359,115.363 C116.55,115.232 116.838,115.232 117.029,115.363 C117.22,115.495 117.46,115.659 117.699,115.79 C117.795,115.856 117.842,115.954 117.842,116.053 Z M115.928,108.47 C115.928,108.536 115.881,108.602 115.833,108.634 C115.689,108.799 115.498,108.995 115.402,109.16 C115.306,109.324 114.971,109.389 114.78,109.291 C114.541,109.225 114.445,109.028 114.589,108.864 C114.732,108.667 114.924,108.47 115.067,108.273 C115.211,108.109 115.498,108.076 115.737,108.175 C115.833,108.241 115.928,108.372 115.928,108.47 Z M115.45,114.05 C115.45,114.182 115.354,114.28 115.211,114.346 C114.971,114.444 114.684,114.379 114.589,114.214 C114.445,114.017 114.302,113.788 114.206,113.591 C114.11,113.427 114.254,113.23 114.493,113.164 C114.732,113.098 115.019,113.197 115.115,113.361 C115.211,113.558 115.354,113.755 115.498,113.919 C115.45,113.952 115.45,113.985 115.45,114.05 Z M114.637,110.899 L114.637,110.932 C114.589,111.129 114.589,111.326 114.589,111.523 C114.589,111.72 114.397,111.851 114.11,111.851 C113.823,111.851 113.632,111.72 113.632,111.523 C113.632,111.293 113.632,111.063 113.68,110.866 C113.727,110.702 113.967,110.571 114.206,110.571 C114.445,110.571 114.637,110.735 114.637,110.899 Z" id="Shape" fill="#FFBFCD" fill-rule="nonzero"></path>
            <path d="M124.876,119.565 L124.876,121.534 C125.211,121.534 125.498,121.501 125.833,121.501 L125.833,119.532 C125.498,119.532 125.211,119.565 124.876,119.565 Z" id="Path" fill="#F48BA2" fill-rule="nonzero"></path>
            <path d="M122.484,119.499 L122.484,121.468 C122.819,121.501 123.106,121.501 123.441,121.534 L123.441,119.565 C123.106,119.532 122.819,119.532 122.484,119.499 Z" id="Path" fill="#F48BA2" fill-rule="nonzero"></path>
            <path d="M127.269,119.4 L127.269,121.37 C127.603,121.337 127.891,121.271 128.226,121.206 L128.226,119.236 C127.891,119.302 127.603,119.335 127.269,119.4 Z" id="Path" fill="#F48BA2" fill-rule="nonzero"></path>
            <path d="M129.661,118.941 L129.661,120.91 C129.996,120.812 130.283,120.746 130.618,120.648 L130.618,118.678 C130.283,118.744 129.996,118.843 129.661,118.941 Z" id="Path" fill="#F48BA2" fill-rule="nonzero"></path>
            <path d="M120.091,119.138 L120.091,121.107 C120.426,121.173 120.713,121.239 121.048,121.271 L121.048,119.302 C120.713,119.269 120.426,119.204 120.091,119.138 Z" id="Path" fill="#F48BA2" fill-rule="nonzero"></path>
            <path d="M117.699,118.481 L117.699,120.451 C118.034,120.549 118.321,120.648 118.656,120.746 L118.656,118.777 C118.321,118.711 118.034,118.613 117.699,118.481 Z" id="Path" fill="#F48BA2" fill-rule="nonzero"></path>
            <path d="M114.828,117.168 L114.828,119.138 C115.115,119.335 115.45,119.499 115.785,119.663 L115.785,117.694 C115.45,117.529 115.115,117.333 114.828,117.168 Z" id="Path" fill="#F48BA2" fill-rule="nonzero"></path>
            <path d="M112.436,115.133 L112.436,117.103 C112.723,117.431 113.058,117.759 113.393,118.055 L113.393,116.085 C113.058,115.79 112.723,115.495 112.436,115.133 Z" id="Path" fill="#F48BA2" fill-rule="nonzero"></path>
            <path d="M132.532,117.924 L132.532,119.893 C132.867,119.729 133.202,119.565 133.489,119.401 L133.489,117.431 C133.202,117.595 132.867,117.759 132.532,117.924 Z" id="Path" fill="#F48BA2" fill-rule="nonzero"></path>
            <path d="M134.924,118.481 C135.259,118.219 135.594,117.956 135.881,117.661 L135.881,115.691 C135.594,115.987 135.259,116.249 134.924,116.512 L134.924,118.481 Z" id="Path" fill="#F48BA2" fill-rule="nonzero"></path>
            <path d="M126.876,111.031 L126.876,112.321 L128.226,112.321 L128.226,113.331 L126.876,113.331 L126.876,114.153 L125.691,114.153 L125.691,113.331 L125.066,113.331 L125.066,114.153 L123.88,114.153 L123.88,113.331 L119.721,113.331 L119.721,111.099 C119.721,110.456 119.967,109.941 120.457,109.557 C120.944,109.172 121.592,108.98 122.402,108.98 C123.228,108.98 123.876,109.163 124.347,109.529 C124.814,109.895 125.054,110.404 125.066,111.055 L125.066,112.321 L125.691,112.321 L125.691,111.031 L126.876,111.031 Z M123.88,112.321 L123.88,111.115 C123.88,110.752 123.757,110.474 123.512,110.282 C123.267,110.09 122.901,109.994 122.414,109.994 C121.978,109.994 121.621,110.088 121.345,110.278 C121.068,110.465 120.924,110.724 120.913,111.055 L120.913,112.321 L123.88,112.321 Z" id="Shape" fill="#F48BA2" fill-rule="nonzero"></path>
            <path d="M166.02,115.711 C166.02,120.142 160.039,123.752 152.622,123.752 C145.206,123.752 139.225,120.142 139.225,115.711 C139.225,111.28 145.206,107.669 152.622,107.669 C160.039,107.669 166.02,111.28 166.02,115.711 Z" id="Path" fill="#FFFFFF" fill-rule="nonzero"></path>
            <path d="M152.622,123.753 C145.78,123.753 140.134,120.667 139.321,116.695 C139.273,117.024 139.225,117.352 139.225,117.68 C139.225,122.111 145.206,125.722 152.622,125.722 C160.039,125.722 166.02,122.111 166.02,117.68 C166.02,117.352 165.972,117.024 165.924,116.695 C165.111,120.667 159.465,123.753 152.622,123.753 Z" id="Path" fill="#FFBFCD" fill-rule="nonzero"></path>
            <path d="M163.388,115.678 C163.388,115.941 163.388,116.17 163.341,116.4 C163.293,116.564 163.053,116.695 162.814,116.695 C162.575,116.663 162.384,116.499 162.384,116.334 C162.431,116.137 162.431,115.941 162.431,115.711 C162.431,115.514 162.623,115.383 162.91,115.383 C163.197,115.383 163.388,115.514 163.388,115.678 Z M162.862,113.774 C162.862,113.905 162.766,114.037 162.575,114.07 C162.336,114.135 162.049,114.037 161.953,113.873 C161.857,113.676 161.714,113.479 161.57,113.315 C161.427,113.151 161.522,112.954 161.762,112.888 C162.001,112.79 162.288,112.855 162.384,113.019 C162.527,113.216 162.671,113.446 162.766,113.643 C162.862,113.709 162.862,113.741 162.862,113.774 Z M162.527,118.205 C162.527,118.271 162.527,118.304 162.479,118.369 C162.336,118.566 162.144,118.763 162.001,118.96 C161.857,119.124 161.57,119.157 161.331,119.059 C161.092,118.96 161.044,118.763 161.187,118.599 C161.331,118.435 161.522,118.238 161.618,118.074 C161.762,117.91 162.049,117.844 162.24,117.943 C162.431,117.976 162.527,118.107 162.527,118.205 Z M160.805,111.608 C160.805,111.706 160.757,111.772 160.661,111.838 C160.47,111.969 160.183,111.969 159.991,111.838 C159.8,111.706 159.56,111.542 159.321,111.411 C159.13,111.312 159.082,111.083 159.273,110.951 C159.465,110.82 159.752,110.787 159.943,110.919 C160.183,111.05 160.47,111.214 160.661,111.378 C160.757,111.444 160.805,111.542 160.805,111.608 Z M160.135,120.208 C160.135,120.306 160.087,120.405 159.943,120.47 C159.704,120.601 159.417,120.766 159.13,120.864 C158.891,120.963 158.604,120.93 158.46,120.766 C158.316,120.601 158.364,120.405 158.604,120.306 C158.843,120.175 159.082,120.076 159.321,119.945 C159.513,119.814 159.848,119.847 159.991,119.978 C160.087,120.076 160.135,120.142 160.135,120.208 Z M157.694,110.164 C157.694,110.196 157.694,110.262 157.647,110.295 C157.551,110.459 157.264,110.525 157.025,110.459 C156.737,110.361 156.45,110.295 156.163,110.229 C155.924,110.164 155.78,110 155.876,109.803 C155.972,109.638 156.211,109.54 156.498,109.606 C156.833,109.671 157.12,109.77 157.407,109.835 C157.599,109.934 157.694,110.032 157.694,110.164 Z M156.833,121.488 C156.833,121.619 156.69,121.75 156.498,121.783 C156.211,121.849 155.876,121.914 155.541,121.98 C155.302,122.013 155.015,121.914 154.967,121.75 C154.919,121.586 155.063,121.389 155.302,121.356 C155.589,121.291 155.876,121.258 156.163,121.192 C156.402,121.127 156.69,121.225 156.785,121.389 C156.833,121.389 156.833,121.422 156.833,121.488 Z M154.01,109.54 C154.01,109.573 154.01,109.573 154.01,109.54 C154.01,109.737 153.771,109.868 153.484,109.868 C153.197,109.868 152.91,109.835 152.622,109.835 C152.335,109.835 152.144,109.704 152.144,109.507 C152.144,109.31 152.335,109.179 152.622,109.179 C152.957,109.179 153.244,109.179 153.579,109.212 C153.819,109.245 154.01,109.376 154.01,109.54 Z M153.101,121.882 C153.101,122.079 152.91,122.21 152.622,122.21 C152.288,122.21 151.953,122.21 151.665,122.177 C151.426,122.177 151.187,122.013 151.235,121.816 C151.235,121.619 151.474,121.488 151.761,121.521 C152.048,121.521 152.383,121.553 152.67,121.553 C152.91,121.553 153.101,121.717 153.101,121.882 Z M150.23,109.77 C150.23,109.901 150.086,110.065 149.847,110.098 C149.56,110.164 149.273,110.196 148.986,110.262 C148.747,110.328 148.46,110.229 148.364,110.065 C148.268,109.901 148.412,109.704 148.651,109.638 C148.938,109.573 149.273,109.507 149.608,109.442 C149.847,109.409 150.134,109.507 150.182,109.671 C150.23,109.704 150.23,109.737 150.23,109.77 Z M149.369,121.488 C149.369,121.521 149.369,121.553 149.321,121.586 C149.225,121.75 148.986,121.849 148.699,121.783 C148.412,121.717 148.077,121.619 147.79,121.553 C147.551,121.488 147.455,121.291 147.551,121.127 C147.646,120.963 147.933,120.897 148.173,120.963 C148.46,121.061 148.747,121.127 149.034,121.192 C149.273,121.225 149.369,121.356 149.369,121.488 Z M146.785,110.82 C146.785,110.919 146.689,111.017 146.594,111.083 C146.354,111.214 146.115,111.312 145.876,111.444 C145.684,111.575 145.35,111.542 145.206,111.411 C145.015,111.28 145.062,111.05 145.254,110.951 C145.493,110.82 145.78,110.656 146.067,110.558 C146.306,110.459 146.594,110.492 146.737,110.656 C146.785,110.689 146.785,110.754 146.785,110.82 Z M146.067,120.24 C146.067,120.306 146.019,120.372 145.972,120.437 C145.828,120.569 145.493,120.601 145.302,120.47 C145.062,120.339 144.775,120.175 144.584,120.011 C144.393,119.879 144.393,119.682 144.584,119.551 C144.775,119.42 145.062,119.42 145.254,119.551 C145.445,119.682 145.684,119.847 145.924,119.978 C146.019,120.043 146.067,120.142 146.067,120.24 Z M144.153,112.658 C144.153,112.724 144.105,112.79 144.058,112.822 C143.914,112.986 143.723,113.183 143.627,113.347 C143.531,113.512 143.196,113.577 143.005,113.479 C142.766,113.413 142.67,113.216 142.814,113.052 C142.957,112.855 143.148,112.658 143.292,112.461 C143.436,112.297 143.723,112.264 143.962,112.363 C144.058,112.428 144.153,112.56 144.153,112.658 Z M143.675,118.238 C143.675,118.369 143.579,118.468 143.436,118.534 C143.196,118.632 142.909,118.566 142.814,118.402 C142.67,118.205 142.526,117.976 142.431,117.779 C142.335,117.615 142.479,117.418 142.718,117.352 C142.957,117.286 143.244,117.385 143.34,117.549 C143.436,117.746 143.579,117.943 143.723,118.107 C143.675,118.14 143.675,118.173 143.675,118.238 Z M142.861,115.087 L142.861,115.12 C142.814,115.317 142.814,115.514 142.814,115.711 C142.814,115.908 142.622,116.039 142.335,116.039 C142.048,116.039 141.857,115.908 141.857,115.711 C141.857,115.481 141.857,115.251 141.904,115.054 C141.952,114.89 142.192,114.759 142.431,114.759 C142.67,114.759 142.861,114.923 142.861,115.087 Z" id="Shape" fill="#FFBFCD" fill-rule="nonzero"></path>
            <path d="M153.101,123.752 L153.101,125.722 C153.436,125.722 153.723,125.689 154.058,125.689 L154.058,123.72 C153.723,123.72 153.436,123.752 153.101,123.752 Z" id="Path" fill="#F48BA2" fill-rule="nonzero"></path>
            <path d="M150.708,123.687 L150.708,125.656 C151.043,125.689 151.331,125.689 151.665,125.722 L151.665,123.752 C151.331,123.72 151.043,123.72 150.708,123.687 Z" id="Path" fill="#F48BA2" fill-rule="nonzero"></path>
            <path d="M155.493,123.588 L155.493,125.558 C155.828,125.525 156.115,125.459 156.45,125.394 L156.45,123.424 C156.115,123.49 155.828,123.523 155.493,123.588 Z" id="Path" fill="#F48BA2" fill-rule="nonzero"></path>
            <path d="M157.886,123.129 L157.886,125.098 C158.221,125 158.508,124.934 158.843,124.836 L158.843,122.866 C158.508,122.932 158.221,123.03 157.886,123.129 Z" id="Path" fill="#F48BA2" fill-rule="nonzero"></path>
            <path d="M148.316,123.326 L148.316,125.295 C148.651,125.361 148.938,125.426 149.273,125.459 L149.273,123.49 C148.938,123.457 148.651,123.391 148.316,123.326 Z" id="Path" fill="#F48BA2" fill-rule="nonzero"></path>
            <path d="M145.924,122.669 L145.924,124.639 C146.259,124.737 146.546,124.836 146.881,124.934 L146.881,122.965 C146.546,122.899 146.259,122.801 145.924,122.669 Z" id="Path" fill="#F48BA2" fill-rule="nonzero"></path>
            <path d="M143.053,121.356 L143.053,123.326 C143.34,123.523 143.675,123.687 144.01,123.851 L144.01,121.881 C143.675,121.717 143.34,121.52 143.053,121.356 Z" id="Path" fill="#F48BA2" fill-rule="nonzero"></path>
            <path d="M140.66,119.321 L140.66,121.291 C140.947,121.619 141.282,121.947 141.617,122.243 L141.617,120.273 C141.282,119.978 140.947,119.682 140.66,119.321 Z" id="Path" fill="#F48BA2" fill-rule="nonzero"></path>
            <path d="M160.757,122.111 L160.757,124.081 C161.092,123.917 161.427,123.752 161.714,123.588 L161.714,121.619 C161.427,121.783 161.092,121.947 160.757,122.111 Z" id="Path" fill="#F48BA2" fill-rule="nonzero"></path>
            <path d="M163.149,122.669 C163.484,122.407 163.819,122.144 164.106,121.849 L164.106,119.879 C163.819,120.175 163.484,120.437 163.149,120.7 L163.149,122.669 Z" id="Path" fill="#F48BA2" fill-rule="nonzero"></path>
            <path d="M155.101,115.219 L155.101,116.509 L156.45,116.509 L156.45,117.519 L155.101,117.519 L155.101,118.34 L153.915,118.34 L153.915,117.519 L153.29,117.519 L153.29,118.34 L152.105,118.34 L152.105,117.519 L147.946,117.519 L147.946,115.287 C147.946,114.644 148.191,114.129 148.682,113.745 C149.169,113.36 149.817,113.168 150.627,113.168 C151.453,113.168 152.101,113.351 152.572,113.717 C153.039,114.083 153.279,114.591 153.29,115.243 L153.29,116.509 L153.915,116.509 L153.915,115.219 L155.101,115.219 Z M152.105,116.509 L152.105,115.303 C152.105,114.94 151.982,114.662 151.737,114.47 C151.491,114.278 151.125,114.181 150.639,114.181 C150.203,114.181 149.846,114.276 149.57,114.466 C149.293,114.653 149.149,114.912 149.138,115.243 L149.138,116.509 L152.105,116.509 Z" id="Shape" fill="#F48BA2" fill-rule="nonzero"></path>
            <path d="M166.02,113.589 C166.02,118.02 160.039,121.631 152.622,121.631 C145.206,121.631 139.225,118.02 139.225,113.589 C139.225,109.158 145.206,105.547 152.622,105.547 C160.039,105.547 166.02,109.158 166.02,113.589 Z" id="Path" fill="#FFFFFF" fill-rule="nonzero"></path>
            <path d="M152.622,121.631 C145.78,121.631 140.134,118.546 139.321,114.574 C139.273,114.902 139.225,115.23 139.225,115.559 C139.225,119.99 145.206,123.6 152.622,123.6 C160.039,123.6 166.02,119.99 166.02,115.559 C166.02,115.23 165.972,114.902 165.924,114.574 C165.111,118.546 159.465,121.631 152.622,121.631 Z" id="Path" fill="#FFBFCD" fill-rule="nonzero"></path>
            <path d="M163.388,113.556 C163.388,113.819 163.388,114.049 163.341,114.279 C163.293,114.443 163.053,114.574 162.814,114.574 C162.575,114.541 162.384,114.377 162.384,114.213 C162.431,114.016 162.431,113.819 162.431,113.589 C162.431,113.392 162.623,113.261 162.91,113.261 C163.197,113.261 163.388,113.392 163.388,113.556 Z M162.862,111.653 C162.862,111.784 162.766,111.915 162.575,111.948 C162.336,112.014 162.049,111.915 161.953,111.751 C161.857,111.554 161.714,111.357 161.57,111.193 C161.427,111.029 161.522,110.832 161.762,110.766 C162.001,110.668 162.288,110.734 162.384,110.898 C162.527,111.095 162.671,111.324 162.766,111.521 C162.862,111.587 162.862,111.62 162.862,111.653 Z M162.527,116.084 C162.527,116.149 162.527,116.182 162.479,116.248 C162.336,116.445 162.144,116.642 162.001,116.839 C161.857,117.003 161.57,117.036 161.331,116.937 C161.092,116.839 161.044,116.642 161.187,116.478 C161.331,116.314 161.522,116.117 161.618,115.953 C161.762,115.788 162.049,115.723 162.24,115.821 C162.431,115.854 162.527,115.985 162.527,116.084 Z M160.805,109.486 C160.805,109.585 160.757,109.65 160.661,109.716 C160.47,109.847 160.183,109.847 159.991,109.716 C159.8,109.585 159.56,109.421 159.321,109.289 C159.13,109.191 159.082,108.961 159.273,108.83 C159.465,108.699 159.752,108.666 159.943,108.797 C160.183,108.928 160.47,109.092 160.661,109.257 C160.757,109.322 160.805,109.421 160.805,109.486 Z M160.135,118.086 C160.135,118.185 160.087,118.283 159.943,118.349 C159.704,118.48 159.417,118.644 159.13,118.743 C158.891,118.841 158.604,118.808 158.46,118.644 C158.316,118.48 158.364,118.283 158.604,118.185 C158.843,118.053 159.082,117.955 159.321,117.823 C159.513,117.692 159.848,117.725 159.991,117.856 C160.087,117.955 160.135,118.02 160.135,118.086 Z M157.694,108.042 C157.694,108.075 157.694,108.141 157.647,108.173 C157.551,108.338 157.264,108.403 157.025,108.338 C156.737,108.239 156.45,108.173 156.163,108.108 C155.924,108.042 155.78,107.878 155.876,107.681 C155.972,107.517 156.211,107.418 156.498,107.484 C156.833,107.55 157.12,107.648 157.407,107.714 C157.599,107.812 157.694,107.911 157.694,108.042 Z M156.833,119.366 C156.833,119.497 156.69,119.629 156.498,119.662 C156.211,119.727 155.876,119.793 155.541,119.859 C155.302,119.891 155.015,119.793 154.967,119.629 C154.919,119.465 155.063,119.268 155.302,119.235 C155.589,119.169 155.876,119.136 156.163,119.071 C156.402,119.005 156.69,119.104 156.785,119.268 C156.833,119.268 156.833,119.301 156.833,119.366 Z M154.01,107.418 C154.01,107.451 154.01,107.451 154.01,107.418 C154.01,107.615 153.771,107.747 153.484,107.747 C153.197,107.747 152.91,107.714 152.622,107.714 C152.335,107.714 152.144,107.583 152.144,107.386 C152.144,107.189 152.335,107.057 152.622,107.057 C152.957,107.057 153.244,107.057 153.579,107.09 C153.819,107.123 154.01,107.254 154.01,107.418 Z M153.101,119.76 C153.101,119.957 152.91,120.088 152.622,120.088 C152.288,120.088 151.953,120.088 151.665,120.055 C151.426,120.055 151.187,119.891 151.235,119.694 C151.235,119.497 151.474,119.366 151.761,119.399 C152.048,119.399 152.383,119.432 152.67,119.432 C152.91,119.432 153.101,119.596 153.101,119.76 Z M150.23,107.648 C150.23,107.78 150.086,107.944 149.847,107.976 C149.56,108.042 149.273,108.075 148.986,108.141 C148.747,108.206 148.46,108.108 148.364,107.944 C148.268,107.78 148.412,107.583 148.651,107.517 C148.938,107.451 149.273,107.386 149.608,107.32 C149.847,107.287 150.134,107.386 150.182,107.55 C150.23,107.583 150.23,107.615 150.23,107.648 Z M149.369,119.366 C149.369,119.399 149.369,119.432 149.321,119.465 C149.225,119.629 148.986,119.727 148.699,119.662 C148.412,119.596 148.077,119.497 147.79,119.432 C147.551,119.366 147.455,119.169 147.551,119.005 C147.646,118.841 147.933,118.775 148.173,118.841 C148.46,118.939 148.747,119.005 149.034,119.071 C149.273,119.104 149.369,119.235 149.369,119.366 Z M146.785,108.699 C146.785,108.797 146.689,108.896 146.594,108.961 C146.354,109.092 146.115,109.191 145.876,109.322 C145.684,109.454 145.35,109.421 145.206,109.289 C145.015,109.158 145.062,108.928 145.254,108.83 C145.493,108.699 145.78,108.534 146.067,108.436 C146.306,108.338 146.594,108.37 146.737,108.534 C146.785,108.567 146.785,108.633 146.785,108.699 Z M146.067,118.119 C146.067,118.185 146.019,118.25 145.972,118.316 C145.828,118.447 145.493,118.48 145.302,118.349 C145.062,118.217 144.775,118.053 144.584,117.889 C144.393,117.758 144.393,117.561 144.584,117.43 C144.775,117.298 145.062,117.298 145.254,117.43 C145.445,117.561 145.684,117.725 145.924,117.856 C146.019,117.922 146.067,118.02 146.067,118.119 Z M144.153,110.537 C144.153,110.602 144.105,110.668 144.058,110.701 C143.914,110.865 143.723,111.062 143.627,111.226 C143.531,111.39 143.196,111.456 143.005,111.357 C142.766,111.292 142.67,111.095 142.814,110.931 C142.957,110.734 143.148,110.537 143.292,110.34 C143.436,110.176 143.723,110.143 143.962,110.241 C144.058,110.307 144.153,110.438 144.153,110.537 Z M143.675,116.117 C143.675,116.248 143.579,116.346 143.436,116.412 C143.196,116.511 142.909,116.445 142.814,116.281 C142.67,116.084 142.526,115.854 142.431,115.657 C142.335,115.493 142.479,115.296 142.718,115.23 C142.957,115.165 143.244,115.263 143.34,115.427 C143.436,115.624 143.579,115.821 143.723,115.985 C143.675,116.018 143.675,116.051 143.675,116.117 Z M142.861,112.966 L142.861,112.998 C142.814,113.195 142.814,113.392 142.814,113.589 C142.814,113.786 142.622,113.918 142.335,113.918 C142.048,113.918 141.857,113.786 141.857,113.589 C141.857,113.36 141.857,113.13 141.904,112.933 C141.952,112.769 142.192,112.637 142.431,112.637 C142.67,112.637 142.861,112.802 142.861,112.966 Z" id="Shape" fill="#FFBFCD" fill-rule="nonzero"></path>
            <path d="M153.101,121.631 L153.101,123.6 C153.436,123.6 153.723,123.568 154.058,123.568 L154.058,121.598 C153.723,121.598 153.436,121.631 153.101,121.631 Z" id="Path" fill="#F48BA2" fill-rule="nonzero"></path>
            <path d="M150.708,121.565 L150.708,123.535 C151.043,123.568 151.331,123.568 151.665,123.6 L151.665,121.631 C151.331,121.598 151.043,121.598 150.708,121.565 Z" id="Path" fill="#F48BA2" fill-rule="nonzero"></path>
            <path d="M155.493,121.467 L155.493,123.436 C155.828,123.403 156.115,123.338 156.45,123.272 L156.45,121.303 C156.115,121.368 155.828,121.401 155.493,121.467 Z" id="Path" fill="#F48BA2" fill-rule="nonzero"></path>
            <path d="M157.886,121.007 L157.886,122.977 C158.221,122.878 158.508,122.813 158.843,122.714 L158.843,120.745 C158.508,120.81 158.221,120.909 157.886,121.007 Z" id="Path" fill="#F48BA2" fill-rule="nonzero"></path>
            <path d="M148.316,121.204 L148.316,123.174 C148.651,123.239 148.938,123.305 149.273,123.338 L149.273,121.369 C148.938,121.336 148.651,121.27 148.316,121.204 Z" id="Path" fill="#F48BA2" fill-rule="nonzero"></path>
            <path d="M145.924,120.548 L145.924,122.517 C146.259,122.616 146.546,122.714 146.881,122.813 L146.881,120.843 C146.546,120.778 146.259,120.679 145.924,120.548 Z" id="Path" fill="#F48BA2" fill-rule="nonzero"></path>
            <path d="M143.053,119.235 L143.053,121.204 C143.34,121.401 143.675,121.565 144.01,121.729 L144.01,119.76 C143.675,119.596 143.34,119.399 143.053,119.235 Z" id="Path" fill="#F48BA2" fill-rule="nonzero"></path>
            <path d="M140.66,117.2 L140.66,119.169 C140.947,119.497 141.282,119.826 141.617,120.121 L141.617,118.152 C141.282,117.856 140.947,117.561 140.66,117.2 Z" id="Path" fill="#F48BA2" fill-rule="nonzero"></path>
            <path d="M160.757,119.99 L160.757,121.959 C161.092,121.795 161.427,121.631 161.714,121.467 L161.714,119.498 C161.427,119.662 161.092,119.826 160.757,119.99 Z" id="Path" fill="#F48BA2" fill-rule="nonzero"></path>
            <path d="M163.149,120.548 C163.484,120.285 163.819,120.023 164.106,119.727 L164.106,117.758 C163.819,118.053 163.484,118.316 163.149,118.578 L163.149,120.548 Z" id="Path" fill="#F48BA2" fill-rule="nonzero"></path>
            <path d="M155.101,113.098 L155.101,114.388 L156.45,114.388 L156.45,115.398 L155.101,115.398 L155.101,116.219 L153.915,116.219 L153.915,115.398 L153.29,115.398 L153.29,116.219 L152.105,116.219 L152.105,115.398 L147.946,115.398 L147.946,113.166 C147.946,112.522 148.191,112.008 148.682,111.623 C149.169,111.239 149.817,111.046 150.627,111.046 C151.453,111.046 152.101,111.229 152.572,111.595 C153.039,111.961 153.279,112.47 153.29,113.122 L153.29,114.388 L153.915,114.388 L153.915,113.098 L155.101,113.098 Z M152.105,114.388 L152.105,113.182 C152.105,112.819 151.982,112.541 151.737,112.348 C151.491,112.156 151.125,112.06 150.639,112.06 C150.203,112.06 149.846,112.155 149.57,112.344 C149.293,112.531 149.149,112.791 149.138,113.122 L149.138,114.388 L152.105,114.388 Z" id="Shape" fill="#F48BA2" fill-rule="nonzero"></path>
            <path d="M166.02,111.459 C166.02,115.89 160.039,119.501 152.622,119.501 C145.206,119.501 139.225,115.89 139.225,111.459 C139.225,107.028 145.206,103.417 152.622,103.417 C160.039,103.417 166.02,107.028 166.02,111.459 Z" id="Path" fill="#FFFFFF" fill-rule="nonzero"></path>
            <path d="M152.622,119.501 C145.78,119.501 140.134,116.416 139.321,112.444 C139.273,112.772 139.225,113.1 139.225,113.429 C139.225,117.86 145.206,121.47 152.622,121.47 C160.039,121.47 166.02,117.86 166.02,113.429 C166.02,113.1 165.972,112.772 165.924,112.444 C165.111,116.416 159.465,119.501 152.622,119.501 Z" id="Path" fill="#FFBFCD" fill-rule="nonzero"></path>
            <path d="M163.388,111.426 C163.388,111.689 163.388,111.919 163.341,112.149 C163.293,112.313 163.053,112.444 162.814,112.444 C162.575,112.411 162.384,112.247 162.384,112.083 C162.431,111.886 162.431,111.689 162.431,111.459 C162.431,111.262 162.623,111.131 162.91,111.131 C163.197,111.131 163.388,111.262 163.388,111.426 Z M162.862,109.523 C162.862,109.654 162.766,109.785 162.575,109.818 C162.336,109.884 162.049,109.785 161.953,109.621 C161.857,109.424 161.714,109.227 161.57,109.063 C161.427,108.899 161.522,108.702 161.762,108.636 C162.001,108.538 162.288,108.604 162.384,108.768 C162.527,108.965 162.671,109.194 162.766,109.391 C162.862,109.457 162.862,109.49 162.862,109.523 Z M162.527,113.954 C162.527,114.019 162.527,114.052 162.479,114.118 C162.336,114.315 162.144,114.512 162.001,114.709 C161.857,114.873 161.57,114.906 161.331,114.807 C161.092,114.709 161.044,114.512 161.187,114.348 C161.331,114.184 161.522,113.987 161.618,113.823 C161.762,113.658 162.049,113.593 162.24,113.691 C162.431,113.724 162.527,113.855 162.527,113.954 Z M160.805,107.356 C160.805,107.455 160.757,107.52 160.661,107.586 C160.47,107.717 160.183,107.717 159.991,107.586 C159.8,107.455 159.56,107.291 159.321,107.159 C159.13,107.061 159.082,106.831 159.273,106.7 C159.465,106.569 159.752,106.536 159.943,106.667 C160.183,106.798 160.47,106.962 160.661,107.127 C160.757,107.192 160.805,107.291 160.805,107.356 Z M160.135,115.956 C160.135,116.055 160.087,116.153 159.943,116.219 C159.704,116.35 159.417,116.514 159.13,116.613 C158.891,116.711 158.604,116.678 158.46,116.514 C158.316,116.35 158.364,116.153 158.604,116.055 C158.843,115.923 159.082,115.825 159.321,115.693 C159.513,115.562 159.848,115.595 159.991,115.726 C160.087,115.825 160.135,115.89 160.135,115.956 Z M157.694,105.912 C157.694,105.945 157.694,106.011 157.647,106.043 C157.551,106.208 157.264,106.273 157.025,106.208 C156.737,106.109 156.45,106.043 156.163,105.978 C155.924,105.912 155.78,105.748 155.876,105.551 C155.972,105.387 156.211,105.288 156.498,105.354 C156.833,105.42 157.12,105.518 157.407,105.584 C157.599,105.682 157.694,105.781 157.694,105.912 Z M156.833,117.236 C156.833,117.367 156.69,117.499 156.498,117.532 C156.211,117.597 155.876,117.663 155.541,117.729 C155.302,117.761 155.015,117.663 154.967,117.499 C154.919,117.335 155.063,117.138 155.302,117.105 C155.589,117.039 155.876,117.006 156.163,116.941 C156.402,116.875 156.69,116.974 156.785,117.138 C156.833,117.138 156.833,117.171 156.833,117.236 Z M154.01,105.288 C154.01,105.321 154.01,105.321 154.01,105.288 C154.01,105.485 153.771,105.617 153.484,105.617 C153.197,105.617 152.91,105.584 152.622,105.584 C152.335,105.584 152.144,105.453 152.144,105.256 C152.144,105.059 152.335,104.927 152.622,104.927 C152.957,104.927 153.244,104.927 153.579,104.96 C153.819,104.993 154.01,105.124 154.01,105.288 Z M153.101,117.63 C153.101,117.827 152.91,117.958 152.622,117.958 C152.288,117.958 151.953,117.958 151.665,117.925 C151.426,117.925 151.187,117.761 151.235,117.564 C151.235,117.367 151.474,117.236 151.761,117.269 C152.048,117.269 152.383,117.302 152.67,117.302 C152.91,117.302 153.101,117.466 153.101,117.63 Z M150.23,105.518 C150.23,105.65 150.086,105.814 149.847,105.846 C149.56,105.912 149.273,105.945 148.986,106.011 C148.747,106.076 148.46,105.978 148.364,105.814 C148.268,105.65 148.412,105.453 148.651,105.387 C148.938,105.321 149.273,105.256 149.608,105.19 C149.847,105.157 150.134,105.256 150.182,105.42 C150.23,105.453 150.23,105.485 150.23,105.518 Z M149.369,117.236 C149.369,117.269 149.369,117.302 149.321,117.335 C149.225,117.499 148.986,117.597 148.699,117.532 C148.412,117.466 148.077,117.367 147.79,117.302 C147.551,117.236 147.455,117.039 147.551,116.875 C147.646,116.711 147.933,116.645 148.173,116.711 C148.46,116.809 148.747,116.875 149.034,116.941 C149.273,116.974 149.369,117.105 149.369,117.236 Z M146.785,106.569 C146.785,106.667 146.689,106.766 146.594,106.831 C146.354,106.962 146.115,107.061 145.876,107.192 C145.684,107.324 145.35,107.291 145.206,107.159 C145.015,107.028 145.062,106.798 145.254,106.7 C145.493,106.569 145.78,106.404 146.067,106.306 C146.306,106.208 146.594,106.24 146.737,106.404 C146.785,106.437 146.785,106.503 146.785,106.569 Z M146.067,115.989 C146.067,116.055 146.019,116.12 145.972,116.186 C145.828,116.317 145.493,116.35 145.302,116.219 C145.062,116.087 144.775,115.923 144.584,115.759 C144.393,115.628 144.393,115.431 144.584,115.3 C144.775,115.168 145.062,115.168 145.254,115.3 C145.445,115.431 145.684,115.595 145.924,115.726 C146.019,115.792 146.067,115.89 146.067,115.989 Z M144.153,108.407 C144.153,108.472 144.105,108.538 144.058,108.571 C143.914,108.735 143.723,108.932 143.627,109.096 C143.531,109.26 143.196,109.326 143.005,109.227 C142.766,109.162 142.67,108.965 142.814,108.801 C142.957,108.604 143.148,108.407 143.292,108.21 C143.436,108.046 143.723,108.013 143.962,108.111 C144.058,108.177 144.153,108.308 144.153,108.407 Z M143.675,113.987 C143.675,114.118 143.579,114.216 143.436,114.282 C143.196,114.381 142.909,114.315 142.814,114.151 C142.67,113.954 142.526,113.724 142.431,113.527 C142.335,113.363 142.479,113.166 142.718,113.1 C142.957,113.035 143.244,113.133 143.34,113.297 C143.436,113.494 143.579,113.691 143.723,113.855 C143.675,113.888 143.675,113.921 143.675,113.987 Z M142.861,110.836 L142.861,110.868 C142.814,111.065 142.814,111.262 142.814,111.459 C142.814,111.656 142.622,111.787 142.335,111.787 C142.048,111.787 141.857,111.656 141.857,111.459 C141.857,111.229 141.857,111 141.904,110.803 C141.952,110.639 142.192,110.507 142.431,110.507 C142.67,110.507 142.861,110.671 142.861,110.836 Z" id="Shape" fill="#FFBFCD" fill-rule="nonzero"></path>
            <path d="M153.101,119.501 L153.101,121.47 C153.436,121.47 153.723,121.438 154.058,121.438 L154.058,119.468 C153.723,119.468 153.436,119.501 153.101,119.501 Z" id="Path" fill="#F48BA2" fill-rule="nonzero"></path>
            <path d="M150.708,119.435 L150.708,121.405 C151.043,121.438 151.331,121.438 151.665,121.47 L151.665,119.501 C151.331,119.468 151.043,119.468 150.708,119.435 Z" id="Path" fill="#F48BA2" fill-rule="nonzero"></path>
            <path d="M155.493,119.337 L155.493,121.306 C155.828,121.274 156.115,121.208 156.45,121.142 L156.45,119.173 C156.115,119.239 155.828,119.271 155.493,119.337 Z" id="Path" fill="#F48BA2" fill-rule="nonzero"></path>
            <path d="M157.886,118.877 L157.886,120.847 C158.221,120.748 158.508,120.683 158.843,120.584 L158.843,118.615 C158.508,118.68 158.221,118.779 157.886,118.877 Z" id="Path" fill="#F48BA2" fill-rule="nonzero"></path>
            <path d="M148.316,119.074 L148.316,121.044 C148.651,121.109 148.938,121.175 149.273,121.208 L149.273,119.238 C148.938,119.206 148.651,119.14 148.316,119.074 Z" id="Path" fill="#F48BA2" fill-rule="nonzero"></path>
            <path d="M145.924,118.418 L145.924,120.387 C146.259,120.486 146.546,120.584 146.881,120.683 L146.881,118.713 C146.546,118.648 146.259,118.549 145.924,118.418 Z" id="Path" fill="#F48BA2" fill-rule="nonzero"></path>
            <path d="M143.053,117.105 L143.053,119.074 C143.34,119.271 143.675,119.435 144.01,119.599 L144.01,117.63 C143.675,117.466 143.34,117.269 143.053,117.105 Z" id="Path" fill="#F48BA2" fill-rule="nonzero"></path>
            <path d="M140.66,115.07 L140.66,117.039 C140.947,117.367 141.282,117.696 141.617,117.991 L141.617,116.022 C141.282,115.726 140.947,115.431 140.66,115.07 Z" id="Path" fill="#F48BA2" fill-rule="nonzero"></path>
            <path d="M160.757,117.86 L160.757,119.829 C161.092,119.665 161.427,119.501 161.714,119.337 L161.714,117.367 C161.427,117.532 161.092,117.696 160.757,117.86 Z" id="Path" fill="#F48BA2" fill-rule="nonzero"></path>
            <path d="M163.149,118.418 C163.484,118.155 163.819,117.893 164.106,117.597 L164.106,115.628 C163.819,115.923 163.484,116.186 163.149,116.448 L163.149,118.418 Z" id="Path" fill="#F48BA2" fill-rule="nonzero"></path>
            <path d="M155.101,110.968 L155.101,112.258 L156.45,112.258 L156.45,113.268 L155.101,113.268 L155.101,114.089 L153.915,114.089 L153.915,113.268 L153.29,113.268 L153.29,114.089 L152.105,114.089 L152.105,113.268 L147.946,113.268 L147.946,111.036 C147.946,110.392 148.191,109.878 148.682,109.493 C149.169,109.109 149.817,108.916 150.627,108.916 C151.453,108.916 152.101,109.099 152.572,109.465 C153.039,109.831 153.279,110.34 153.29,110.992 L153.29,112.258 L153.915,112.258 L153.915,110.968 L155.101,110.968 Z M152.105,112.258 L152.105,111.052 C152.105,110.689 151.982,110.411 151.737,110.218 C151.491,110.026 151.125,109.93 150.639,109.93 C150.203,109.93 149.846,110.025 149.57,110.214 C149.293,110.401 149.149,110.661 149.138,110.992 L149.138,112.258 L152.105,112.258 Z" id="Shape" fill="#F48BA2" fill-rule="nonzero"></path>
            <path d="M166.02,109.338 C166.02,113.769 160.039,117.379 152.622,117.379 C145.206,117.379 139.225,113.769 139.225,109.338 C139.225,104.906 145.206,101.296 152.622,101.296 C160.039,101.296 166.02,104.906 166.02,109.338 Z" id="Path" fill="#FFDCE4" fill-rule="nonzero"></path>
            <path d="M152.622,117.379 C145.78,117.379 140.134,114.294 139.321,110.322 C139.273,110.651 139.225,110.979 139.225,111.307 C139.225,115.738 145.206,119.349 152.622,119.349 C160.039,119.349 166.02,115.738 166.02,111.307 C166.02,110.979 165.972,110.651 165.924,110.322 C165.111,114.294 159.465,117.379 152.622,117.379 Z" id="Path" fill="#FFBFCD" fill-rule="nonzero"></path>
            <path d="M163.388,109.305 C163.388,109.567 163.388,109.797 163.341,110.027 C163.293,110.191 163.053,110.322 162.814,110.322 C162.575,110.29 162.384,110.125 162.384,109.961 C162.431,109.764 162.431,109.567 162.431,109.338 C162.431,109.141 162.623,109.009 162.91,109.009 C163.197,109.009 163.388,109.141 163.388,109.305 Z M162.862,107.401 C162.862,107.532 162.766,107.664 162.575,107.697 C162.336,107.762 162.049,107.664 161.953,107.5 C161.857,107.303 161.714,107.106 161.57,106.942 C161.427,106.777 161.522,106.581 161.762,106.515 C162.001,106.416 162.288,106.482 162.384,106.646 C162.527,106.843 162.671,107.073 162.766,107.27 C162.862,107.335 162.862,107.368 162.862,107.401 Z M162.527,111.832 C162.527,111.898 162.527,111.931 162.479,111.996 C162.336,112.193 162.144,112.39 162.001,112.587 C161.857,112.751 161.57,112.784 161.331,112.686 C161.092,112.587 161.044,112.39 161.187,112.226 C161.331,112.062 161.522,111.865 161.618,111.701 C161.762,111.537 162.049,111.471 162.24,111.57 C162.431,111.602 162.527,111.734 162.527,111.832 Z M160.805,105.235 C160.805,105.333 160.757,105.399 160.661,105.465 C160.47,105.596 160.183,105.596 159.991,105.465 C159.8,105.333 159.56,105.169 159.321,105.038 C159.13,104.939 159.082,104.71 159.273,104.578 C159.465,104.447 159.752,104.414 159.943,104.545 C160.183,104.677 160.47,104.841 160.661,105.005 C160.757,105.071 160.805,105.169 160.805,105.235 Z M160.135,113.834 C160.135,113.933 160.087,114.031 159.943,114.097 C159.704,114.228 159.417,114.392 159.13,114.491 C158.891,114.589 158.604,114.557 158.46,114.392 C158.316,114.228 158.364,114.031 158.604,113.933 C158.843,113.802 159.082,113.703 159.321,113.572 C159.513,113.441 159.848,113.473 159.991,113.605 C160.087,113.703 160.135,113.769 160.135,113.834 Z M157.694,103.791 C157.694,103.823 157.694,103.889 157.647,103.922 C157.551,104.086 157.264,104.152 157.025,104.086 C156.737,103.987 156.45,103.922 156.163,103.856 C155.924,103.791 155.78,103.626 155.876,103.429 C155.972,103.265 156.211,103.167 156.498,103.233 C156.833,103.298 157.12,103.397 157.407,103.462 C157.599,103.561 157.694,103.659 157.694,103.791 Z M156.833,115.115 C156.833,115.246 156.69,115.377 156.498,115.41 C156.211,115.476 155.876,115.541 155.541,115.607 C155.302,115.64 155.015,115.541 154.967,115.377 C154.919,115.213 155.063,115.016 155.302,114.983 C155.589,114.918 155.876,114.885 156.163,114.819 C156.402,114.754 156.69,114.852 156.785,115.016 C156.833,115.016 156.833,115.049 156.833,115.115 Z M154.01,103.167 C154.01,103.2 154.01,103.2 154.01,103.167 C154.01,103.364 153.771,103.495 153.484,103.495 C153.197,103.495 152.91,103.462 152.622,103.462 C152.335,103.462 152.144,103.331 152.144,103.134 C152.144,102.937 152.335,102.806 152.622,102.806 C152.957,102.806 153.244,102.806 153.579,102.839 C153.819,102.871 154.01,103.003 154.01,103.167 Z M153.101,115.508 C153.101,115.705 152.91,115.837 152.622,115.837 C152.288,115.837 151.953,115.837 151.665,115.804 C151.426,115.804 151.187,115.64 151.235,115.443 C151.235,115.246 151.474,115.115 151.761,115.147 C152.048,115.147 152.383,115.18 152.67,115.18 C152.91,115.18 153.101,115.344 153.101,115.508 Z M150.23,103.397 C150.23,103.528 150.086,103.692 149.847,103.725 C149.56,103.791 149.273,103.823 148.986,103.889 C148.747,103.955 148.46,103.856 148.364,103.692 C148.268,103.528 148.412,103.331 148.651,103.265 C148.938,103.2 149.273,103.134 149.608,103.068 C149.847,103.036 150.134,103.134 150.182,103.298 C150.23,103.331 150.23,103.364 150.23,103.397 Z M149.369,115.115 C149.369,115.147 149.369,115.18 149.321,115.213 C149.225,115.377 148.986,115.476 148.699,115.41 C148.412,115.344 148.077,115.246 147.79,115.18 C147.551,115.115 147.455,114.918 147.551,114.754 C147.646,114.589 147.933,114.524 148.173,114.589 C148.46,114.688 148.747,114.754 149.034,114.819 C149.273,114.852 149.369,114.983 149.369,115.115 Z M146.785,104.447 C146.785,104.545 146.689,104.644 146.594,104.71 C146.354,104.841 146.115,104.939 145.876,105.071 C145.684,105.202 145.35,105.169 145.206,105.038 C145.015,104.907 145.062,104.677 145.254,104.578 C145.493,104.447 145.78,104.283 146.067,104.184 C146.306,104.086 146.594,104.119 146.737,104.283 C146.785,104.316 146.785,104.381 146.785,104.447 Z M146.067,113.867 C146.067,113.933 146.019,113.999 145.972,114.064 C145.828,114.196 145.493,114.228 145.302,114.097 C145.062,113.966 144.775,113.802 144.584,113.638 C144.393,113.506 144.393,113.309 144.584,113.178 C144.775,113.047 145.062,113.047 145.254,113.178 C145.445,113.309 145.684,113.473 145.924,113.605 C146.019,113.67 146.067,113.769 146.067,113.867 Z M144.153,106.285 C144.153,106.351 144.105,106.416 144.058,106.449 C143.914,106.613 143.723,106.81 143.627,106.974 C143.531,107.139 143.196,107.204 143.005,107.106 C142.766,107.04 142.67,106.843 142.814,106.679 C142.957,106.482 143.148,106.285 143.292,106.088 C143.436,105.924 143.723,105.891 143.962,105.99 C144.058,106.055 144.153,106.187 144.153,106.285 Z M143.675,111.865 C143.675,111.996 143.579,112.095 143.436,112.16 C143.196,112.259 142.909,112.193 142.814,112.029 C142.67,111.832 142.526,111.602 142.431,111.406 C142.335,111.241 142.479,111.044 142.718,110.979 C142.957,110.913 143.244,111.012 143.34,111.176 C143.436,111.373 143.579,111.57 143.723,111.734 C143.675,111.767 143.675,111.799 143.675,111.865 Z M142.861,108.714 L142.861,108.747 C142.814,108.944 142.814,109.141 142.814,109.338 C142.814,109.535 142.622,109.666 142.335,109.666 C142.048,109.666 141.857,109.535 141.857,109.338 C141.857,109.108 141.857,108.878 141.904,108.681 C141.952,108.517 142.192,108.386 142.431,108.386 C142.67,108.386 142.861,108.55 142.861,108.714 Z" id="Shape" fill="#FFBFCD" fill-rule="nonzero"></path>
            <path d="M153.101,117.379 L153.101,119.349 C153.436,119.349 153.723,119.316 154.058,119.316 L154.058,117.347 C153.723,117.347 153.436,117.379 153.101,117.379 Z" id="Path" fill="#F48BA2" fill-rule="nonzero"></path>
            <path d="M150.708,117.314 L150.708,119.283 C151.043,119.316 151.331,119.316 151.665,119.349 L151.665,117.379 C151.331,117.347 151.043,117.347 150.708,117.314 Z" id="Path" fill="#F48BA2" fill-rule="nonzero"></path>
            <path d="M155.493,117.215 L155.493,119.185 C155.828,119.152 156.115,119.086 156.45,119.02 L156.45,117.051 C156.115,117.117 155.828,117.15 155.493,117.215 Z" id="Path" fill="#F48BA2" fill-rule="nonzero"></path>
            <path d="M157.886,116.756 L157.886,118.725 C158.221,118.627 158.508,118.561 158.843,118.463 L158.843,116.493 C158.508,116.559 158.221,116.657 157.886,116.756 Z" id="Path" fill="#F48BA2" fill-rule="nonzero"></path>
            <path d="M148.316,116.953 L148.316,118.922 C148.651,118.988 148.938,119.053 149.273,119.086 L149.273,117.117 C148.938,117.084 148.651,117.018 148.316,116.953 Z" id="Path" fill="#F48BA2" fill-rule="nonzero"></path>
            <path d="M145.924,116.296 L145.924,118.266 C146.259,118.364 146.546,118.463 146.881,118.561 L146.881,116.592 C146.546,116.526 146.259,116.428 145.924,116.296 Z" id="Path" fill="#F48BA2" fill-rule="nonzero"></path>
            <path d="M143.053,114.983 L143.053,116.953 C143.34,117.15 143.675,117.314 144.01,117.478 L144.01,115.508 C143.675,115.344 143.34,115.147 143.053,114.983 Z" id="Path" fill="#F48BA2" fill-rule="nonzero"></path>
            <path d="M140.66,112.948 L140.66,114.918 C140.947,115.246 141.282,115.574 141.617,115.87 L141.617,113.9 C141.282,113.605 140.947,113.309 140.66,112.948 Z" id="Path" fill="#F48BA2" fill-rule="nonzero"></path>
            <path d="M160.757,115.738 L160.757,117.708 C161.092,117.544 161.427,117.379 161.714,117.215 L161.714,115.246 C161.427,115.41 161.092,115.574 160.757,115.738 Z" id="Path" fill="#F48BA2" fill-rule="nonzero"></path>
            <path d="M163.149,116.296 C163.484,116.033 163.819,115.771 164.106,115.475 L164.106,113.506 C163.819,113.801 163.484,114.064 163.149,114.327 L163.149,116.296 Z" id="Path" fill="#F48BA2" fill-rule="nonzero"></path>
            <path d="M155.101,108.846 L155.101,110.136 L156.45,110.136 L156.45,111.146 L155.101,111.146 L155.101,111.967 L153.915,111.967 L153.915,111.146 L153.29,111.146 L153.29,111.967 L152.105,111.967 L152.105,111.146 L147.946,111.146 L147.946,108.914 C147.946,108.271 148.191,107.756 148.682,107.372 C149.169,106.987 149.817,106.795 150.627,106.795 C151.453,106.795 152.101,106.978 152.572,107.344 C153.039,107.71 153.279,108.218 153.29,108.87 L153.29,110.136 L153.915,110.136 L153.915,108.846 L155.101,108.846 Z M152.105,110.136 L152.105,108.93 C152.105,108.567 151.982,108.289 151.737,108.097 C151.491,107.905 151.125,107.808 150.639,107.808 C150.203,107.808 149.846,107.903 149.57,108.093 C149.293,108.28 149.149,108.539 149.138,108.87 L149.138,110.136 L152.105,110.136 Z" id="Shape" fill="#F48BA2" fill-rule="nonzero"></path>
        </g>
    </g>
</svg>